<svg width="1086" height="534" viewBox="0 0 1086 534" fill="none" xmlns="http://www.w3.org/2000/svg">
<rect width="1086" height="534" fill="black"/>
<path d="M289.938 227.094L289 222.875L324.812 220.812C326.375 220.875 327.688 221.438 328.75 222.5C329.812 223.562 330.344 224.719 330.344 225.969C330.344 226.781 330.031 227.5 329.406 228.125C328.781 228.75 327.844 229.125 326.594 229.25L310.844 228.406C312.406 250.469 313.562 270.531 314.312 288.594C313.75 290.469 312.688 291.406 311.125 291.406C310 291.406 308.906 290.938 307.844 290C306.781 289.125 306.125 288.031 305.875 286.719C306 283.344 306.062 278.219 306.062 271.344C306.062 268.781 306.031 264.938 305.969 259.812C305.969 254.688 305.969 250.844 305.969 248.281C305.969 240.844 306.094 234.125 306.344 228.125C299.281 227.625 293.812 227.281 289.938 227.094ZM335.5 221.094L339.719 222.031C339.781 223.219 340.188 232.562 340.938 250.062C342.625 249.812 344.5 249.688 346.562 249.688C354.812 249.688 361.562 252.031 366.812 256.719C372.062 261.344 374.688 266.781 374.688 273.031C374.688 285.719 366.844 292.062 351.156 292.062C347.094 292.062 343.375 291.75 340 291.125C336.625 290.5 334.688 289.719 334.188 288.781C334.375 283.531 334.531 272.906 334.656 256.906C334.781 240.844 335.062 228.906 335.5 221.094ZM341.406 257.094C341.844 270.406 342.156 279.281 342.344 283.719C346.656 284.281 350.438 284.562 353.688 284.562C362.438 284.562 366.812 280.406 366.812 272.094C366.812 267.781 364.938 264.156 361.188 261.219C357.5 258.219 352.625 256.719 346.562 256.719C344.688 256.719 342.969 256.844 341.406 257.094ZM385.562 221.75L389.781 222.688C389.969 225.625 390.75 247.75 392.125 289.062C391.562 290.938 390.5 291.875 388.938 291.875C387.812 291.875 386.719 291.406 385.656 290.469C384.594 289.594 383.938 288.5 383.688 287.188C383.812 282.688 384.031 272.75 384.344 257.375C384.719 242 385.125 230.125 385.562 221.75ZM428.031 221.469H460.938C462.062 230.281 462.75 242.531 463 258.219C463.312 273.844 463.625 284.188 463.938 289.25C463.375 291.188 462.281 292.156 460.656 292.156C459.531 292.156 458.438 291.688 457.375 290.75C456.375 289.812 455.75 288.688 455.5 287.375C455.5 282.312 455.344 272.031 455.031 256.531C454.719 240.969 454.562 231.5 454.562 228.125C453.188 228.125 450.938 228.219 447.812 228.406C444.75 228.594 442.281 228.688 440.406 228.688C437.406 228.688 435.094 228.625 433.469 228.5C433.469 228.688 433.688 237.844 434.125 255.969C434.625 274.094 434.938 285.188 435.062 289.25C434.5 291.188 433.406 292.156 431.781 292.156C430.656 292.156 429.562 291.688 428.5 290.75C427.5 289.812 426.875 288.688 426.625 287.375C426.812 282 426.969 271.562 427.094 256.062C427.281 240.562 427.594 229.031 428.031 221.469ZM473.125 222.688L477.344 221.562C477.344 223.562 477.375 224.688 477.438 224.938C481 222.562 486 221.375 492.438 221.375C499.375 221.375 504.562 223.562 508 227.938C511.438 232.25 513.156 238.312 513.156 246.125C513.156 253.062 511.469 258.812 508.094 263.375C504.719 267.938 499.625 270.219 492.812 270.219C491.688 270.219 487.188 269.844 479.312 269.094C479.438 273.656 479.688 280.75 480.062 290.375C479.5 292.312 478.406 293.281 476.781 293.281C475.656 293.281 474.562 292.812 473.5 291.875C472.5 291 471.875 289.906 471.625 288.594C471.812 283.344 472 273.125 472.188 257.938C472.438 242.75 472.75 231 473.125 222.688ZM478.281 231.219L479.031 260.469C482.469 262.344 486.438 263.281 490.938 263.281C495.25 263.281 498.906 261.656 501.906 258.406C504.906 255.156 506.406 251.188 506.406 246.5C506.406 241.438 504.844 236.875 501.719 232.812C498.594 228.75 494.688 226.719 490 226.719C486.188 226.719 482.281 228.219 478.281 231.219ZM520.938 258.594C520.938 256.469 520.938 254.875 520.938 253.812C520.938 252.688 520.969 251 521.031 248.75C521.156 246.5 521.281 244.719 521.406 243.406C521.594 242.094 521.844 240.406 522.156 238.344C522.469 236.219 522.875 234.531 523.375 233.281C523.875 231.969 524.438 230.5 525.062 228.875C525.75 227.25 526.594 225.938 527.594 224.938C528.594 223.938 529.688 223 530.875 222.125C532.062 221.188 533.469 220.5 535.094 220.062C536.719 219.625 538.5 219.406 540.438 219.406C544.312 219.406 547.688 220.188 550.562 221.75C553.438 223.25 555.688 225.156 557.312 227.469C558.938 229.781 560.219 232.625 561.156 236C562.156 239.375 562.781 242.594 563.031 245.656C563.344 248.719 563.5 252.094 563.5 255.781C563.5 258.281 563.438 260.531 563.312 262.531C563.25 264.531 563.062 266.812 562.75 269.375C562.5 271.875 562.094 274.094 561.531 276.031C561.031 277.969 560.312 279.938 559.375 281.938C558.438 283.875 557.312 285.5 556 286.812C554.75 288.062 553.156 289.094 551.219 289.906C549.281 290.719 547.125 291.125 544.75 291.125C540.875 291.125 537.531 290.656 534.719 289.719C531.969 288.781 529.688 287.469 527.875 285.781C526.125 284.094 524.719 281.875 523.656 279.125C522.656 276.375 521.938 273.375 521.5 270.125C521.125 266.875 520.938 263.031 520.938 258.594ZM556.75 259.344C556.75 256.281 556.5 253.094 556 249.781C555.562 246.469 554.781 242.906 553.656 239.094C552.594 235.281 550.875 232.188 548.5 229.812C546.125 227.375 543.281 226.156 539.969 226.156C537.469 226.156 535.25 227.844 533.312 231.219C531.438 234.531 530.094 238.281 529.281 242.469C528.469 246.594 528.062 250.5 528.062 254.188C528.062 256.75 528.062 258.719 528.062 260.094C528.125 261.406 528.25 263.312 528.438 265.812C528.625 268.25 528.875 270.188 529.188 271.625C529.562 273.062 530.125 274.719 530.875 276.594C531.625 278.469 532.5 279.938 533.5 281C534.562 282 535.906 282.906 537.531 283.719C539.219 284.469 541.094 284.875 543.156 284.938C547.719 284.688 551.125 282.125 553.375 277.25C555.625 272.375 556.75 266.406 556.75 259.344ZM572.5 221.281L576.719 222.219C577.344 232.531 578.062 249.688 578.875 273.688C591.062 252 599.438 234.562 604 221.375C604.938 220.625 605.844 220.25 606.719 220.25C608.094 220.25 609.219 221.062 610.094 222.688C611.031 224.312 611.531 226.156 611.594 228.219C611.781 234.031 611.938 243.844 612.062 257.656C612.25 271.469 612.5 281.781 612.812 288.594C612.25 290.469 611.188 291.406 609.625 291.406C608.5 291.406 607.406 290.938 606.344 290C605.281 289.125 604.625 288.031 604.375 286.719C604.562 281.281 604.656 272.938 604.656 261.688C604.719 250.438 604.781 242.844 604.844 238.906C603.469 241.281 601.062 245.781 597.625 252.406C594.188 259.031 591 264.719 588.062 269.469C585.188 274.219 582.219 278.344 579.156 281.844L579.531 289.438C578.969 291.375 577.875 292.344 576.25 292.344C575.125 292.344 574.031 291.875 572.969 290.938C571.969 290 571.344 288.875 571.094 287.562C571.281 282.25 571.469 271.844 571.656 256.344C571.844 240.844 572.125 229.156 572.5 221.281ZM656.031 222.875L656.969 227.094C654.219 227.281 649.406 227.594 642.531 228.031C635.656 228.406 630.844 228.719 628.094 228.969C628.281 234.906 628.406 244.844 628.469 258.781C628.531 272.719 628.688 282.938 628.938 289.438C628.375 291.375 627.281 292.344 625.656 292.344C624.531 292.344 623.438 291.875 622.375 290.938C621.375 290 620.75 288.875 620.5 287.562C621.188 279.688 621.625 261.281 621.812 232.344C621.812 231.281 621.812 229.656 621.812 227.469C621.875 225.281 621.906 223.562 621.906 222.312C625.281 222.5 628.688 222.594 632.125 222.594C633.5 222.594 635.562 222.594 638.312 222.594C641.062 222.531 643.125 222.5 644.5 222.5C648.75 222.5 652.594 222.625 656.031 222.875ZM662.312 222.688L666.531 221.562C666.531 223.562 666.562 224.688 666.625 224.938C670.188 222.562 675.188 221.375 681.625 221.375C688.562 221.375 693.75 223.562 697.188 227.938C700.625 232.25 702.344 238.312 702.344 246.125C702.344 253.062 700.656 258.812 697.281 263.375C693.906 267.938 688.812 270.219 682 270.219C680.875 270.219 676.375 269.844 668.5 269.094C668.625 273.656 668.875 280.75 669.25 290.375C668.688 292.312 667.594 293.281 665.969 293.281C664.844 293.281 663.75 292.812 662.688 291.875C661.688 291 661.062 289.906 660.812 288.594C661 283.344 661.188 273.125 661.375 257.938C661.625 242.75 661.938 231 662.312 222.688ZM667.469 231.219L668.219 260.469C671.656 262.344 675.625 263.281 680.125 263.281C684.438 263.281 688.094 261.656 691.094 258.406C694.094 255.156 695.594 251.188 695.594 246.5C695.594 241.438 694.031 236.875 690.906 232.812C687.781 228.75 683.875 226.719 679.188 226.719C675.375 226.719 671.469 228.219 667.469 231.219ZM719.688 222.031L726.812 222.5C728.562 230.25 732.156 241.219 737.594 255.406C743.031 269.531 746.625 280.094 748.375 287.094C748.375 288.906 748.062 290.25 747.438 291.125C746.812 292.062 746.031 292.531 745.094 292.531C744.281 292.531 743.5 292.188 742.75 291.5C742.062 290.875 741.594 289.969 741.344 288.781C740.781 286.031 738.969 280.531 735.906 272.281C723.031 270.656 714.938 269.656 711.625 269.281C710.812 271.531 709.812 275.188 708.625 280.25C707.438 285.312 706.5 288.812 705.812 290.75C704.875 291.875 703.812 292.438 702.625 292.438C701.312 292.438 700.188 291.844 699.25 290.656C698.312 289.531 697.844 288.125 697.844 286.438C699.844 279.125 703.469 268.375 708.719 254.188C713.969 240 717.625 229.281 719.688 222.031ZM722.969 231.5C721.719 239.062 718.25 250.156 712.562 264.781H723.062C727.812 264.781 731.781 264.938 734.969 265.25C728.531 251.438 724.531 240.188 722.969 231.5ZM743.312 298.812L740.594 293.938C744.031 291.625 746.969 288.969 749.406 285.969C751.844 282.906 753.75 279.875 755.125 276.875C756.5 273.812 757.594 270.344 758.406 266.469C759.219 262.594 759.719 259.031 759.906 255.781C760.156 252.469 760.281 248.656 760.281 244.344C760.281 242.094 760.344 238.625 760.469 233.938C760.656 229.188 760.75 225.562 760.75 223.062C762.562 222.75 765.344 222.594 769.094 222.594C770.656 222.594 773.031 222.656 776.219 222.781C779.406 222.844 781.812 222.875 783.438 222.875C786.438 222.875 789.188 222.75 791.688 222.5C792.438 226.688 792.812 233.25 792.812 242.188C792.812 244.562 792.781 248.312 792.719 253.438C792.656 258.5 792.625 262.344 792.625 264.969C792.625 275.219 793.062 283.656 793.938 290.281C793.375 292.219 792.312 293.188 790.75 293.188C789.625 293.188 788.531 292.719 787.469 291.781C786.406 290.906 785.75 289.812 785.5 288.5C785.625 283.625 785.688 279.906 785.688 277.344C785.688 273.719 785.594 268.031 785.406 260.281C785.281 252.531 785.219 246.531 785.219 242.281C785.219 236.531 785.281 232.25 785.406 229.438C783.906 229.312 781.312 229.219 777.625 229.156C773.938 229.094 771.125 228.938 769.188 228.688C768.625 231.938 768.156 236.188 767.781 241.438C767.469 246.625 767.188 251.25 766.938 255.312C766.75 259.312 766.188 263.75 765.25 268.625C764.375 273.438 763.156 277.625 761.594 281.188C760.094 284.75 757.781 288.125 754.656 291.312C751.594 294.562 747.812 297.062 743.312 298.812ZM808.281 273.875L804.062 272.938C803.75 268.812 802.938 252.438 801.625 223.812C801.875 221.375 802.969 220.156 804.906 220.156C806.156 220.156 807.312 220.688 808.375 221.75C809.438 222.812 810 224.125 810.062 225.688C809.875 229.062 809.656 236.406 809.406 247.719C809.156 259.031 808.781 267.75 808.281 273.875ZM805.469 279.125C807.156 279.125 808.562 279.875 809.688 281.375C810.812 282.812 811.375 284.469 811.375 286.344C811.375 287.719 811.031 288.844 810.344 289.719C809.719 290.531 808.844 290.938 807.719 290.938C805.969 290.938 804.594 290.219 803.594 288.781C802.594 287.344 802.094 285.656 802.094 283.719C802.094 282.344 802.375 281.25 802.938 280.438C803.562 279.562 804.406 279.125 805.469 279.125Z" fill="white"/>
</svg>
