<svg width="674" height="997" viewBox="0 0 674 997" fill="none" xmlns="http://www.w3.org/2000/svg">
<path d="M405.251 834.173C391.767 853.011 392.218 890.913 405.702 997H256.541C262.683 964.624 258.258 899.445 246.439 834.173C171.727 818.706 117.092 753.699 99.1129 723.128C-4.76428 400.405 90.6229 199.137 99.1129 168.897C107.603 138.657 173.026 52.3989 339.828 27.6122C506.631 2.82545 591.53 160.965 613.005 225.906C634.48 290.847 640.473 592.75 591.53 709.248C542.588 825.745 418.735 815.335 405.251 834.173Z" fill="#FFEACA"/>
<path d="M270 338.176C232.489 300.911 131.575 246.304 28 325.986C58.2343 364.644 148.962 421.202 270 338.176Z" fill="white"/>
<path d="M414 338.176C448.101 300.911 539.841 246.304 634 325.986C606.514 364.644 524.034 421.202 414 338.176Z" fill="white"/>
<ellipse cx="149" cy="333" rx="24" ry="28" fill="black"/>
<ellipse cx="524" cy="333" rx="24" ry="28" fill="black"/>
<path d="M464 631.741C464 641.257 401.821 675 337.404 675C272.988 675 221 641.257 221 631.741C221 622.225 272.988 640.541 337.404 640.541C401.821 640.541 464 622.225 464 631.741Z" fill="#FFAC88"/>
<path d="M658.751 361.096C647.499 359.058 629.343 389.971 621.672 405.682L614 549.631C616.557 551.754 623.717 556 631.9 556C642.129 556 658.751 503.771 668.979 470.65C679.208 437.529 672.815 363.644 658.751 361.096Z" fill="#FFEACA"/>
<path d="M15.2494 360.097C26.501 358.048 44.657 389.119 52.3285 404.911L60 549.598C57.4428 551.732 50.2827 556 42.0998 556C31.8711 556 15.2494 503.503 5.02075 470.212C-5.20795 436.921 1.18499 362.657 15.2494 360.097Z" fill="#FFEACA"/>
<path d="M493 639.91C493 649.113 400.7 639.91 337.511 639.91C274.322 639.91 193 649.113 193 639.91C193 630.707 271.966 600 337.511 600C392.171 600 493 630.707 493 639.91Z" fill="#FFAC88"/>
<path d="M513.524 249.866C504.453 249.866 450.114 269.955 424.078 280L414 261.166C427.858 258.655 461.62 251.373 485.808 242.333C516.044 231.033 519.823 237.311 545.019 242.333C570.215 247.355 604.229 283.767 581.553 271.211C558.877 258.655 524.862 249.866 513.524 249.866Z" fill="#AD9668"/>
<path d="M159.339 247.866C168.513 247.866 223.473 267.955 249.806 278L260 259.166C245.984 256.655 211.835 249.373 187.371 240.333C156.79 229.033 152.968 235.311 127.484 240.333C102 245.355 67.5966 281.767 90.5321 269.211C113.468 256.655 147.871 247.866 159.339 247.866Z" fill="#AD9668"/>
<path d="M427.998 89.1257C394.439 75.921 364.438 112.578 349.184 130.777C342.828 96.0724 323.76 20.563 333.93 10.4056C344.099 0.24813 360.201 -0.598324 366.981 0.248129C524.609 -2.29123 548.762 80.2379 562.745 101.822C576.728 123.407 608.508 203.397 617.406 209.745C624.525 214.824 644.102 207.629 653 203.397C651.729 208.476 642.83 221.68 617.406 233.869C585.627 249.105 469.948 105.632 427.998 89.1257Z" fill="#FEF17D"/>
<path d="M237.196 128.891C269.279 112.506 330.726 112.253 347.65 128.891C350.611 93.7374 339.21 24.9248 328.118 15.7985C317.026 6.67218 300.938 7.38577 294.281 8.88335C137.345 21.5885 121.321 106.058 109.509 128.891C97.6977 151.724 73.8461 234.404 65.6149 241.582C59.0299 247.324 38.8739 242.056 29.619 238.703C31.374 243.635 41.497 255.917 67.9489 265.591C101.014 277.683 197.094 149.372 237.196 128.891Z" fill="#FEF17D"/>
<path d="M309.138 470.966C309.138 457.697 297.046 376.127 291 337H309.138C327.275 337 325.98 470.966 325.98 488.828C325.98 506.69 309.138 487.552 309.138 470.966Z" fill="#E4CDA9"/>
<path d="M375.862 449.438C375.862 436.42 387.954 356.388 394 318H375.862C357.725 318 359.02 449.438 359.02 466.964C359.02 484.489 375.862 465.712 375.862 449.438Z" fill="#E4CDA9"/>
<path d="M293.522 530.73C286.189 525.797 296.577 515.521 302.688 511C318.4 511 313.163 522.098 310.544 530.73C307.925 539.362 323.638 539.362 324.948 545.527C326.257 551.693 302.688 536.895 293.522 530.73Z" fill="#E4CDA9"/>
<path d="M387.626 530.73C394.528 525.797 384.751 515.521 379 511C364.211 511 369.141 522.098 371.605 530.73C374.07 539.362 359.282 539.362 358.049 545.527C356.817 551.693 379 536.895 387.626 530.73Z" fill="#E4CDA9"/>
</svg>
