<svg width="2468" height="1020" viewBox="0 0 2468 1020" fill="none" xmlns="http://www.w3.org/2000/svg">
<path d="M299.478 846C310.116 831.196 407.827 839.377 446.439 747.826C485.051 656.275 480.323 419.02 463.381 367.985C481.029 285.07 445.133 198.945 424.979 166.247C409.035 149.981 405.846 126.778 406.245 117.21C396.678 134.751 407.839 143.124 411.028 170.632C413.579 192.639 398.273 202.127 390.301 204.12C376.908 210.499 363.462 191.097 358.413 180.599C336.729 108.838 295.699 81.3292 277.895 76.5452C232.614 58.6846 220.231 18.0732 219.699 0C207.582 9.88708 190.203 32.2925 183.028 42.2593C175.694 72.5584 198.573 99.8011 210.93 109.635C228.469 135.15 224.084 167.575 219.699 180.599C192.594 203.243 181.301 188.439 179.042 178.207C175.215 161.941 166.287 148.04 162.301 143.124C147.154 123.19 138.783 123.987 136.392 106.844C134.478 93.13 139.049 74.0202 141.573 66.1797C130.731 87.8675 113.671 106.313 106.496 112.824C91.828 134.512 94.007 163.057 96.9301 174.619C106.895 202.924 110.881 192.958 106.496 224.851C102.112 256.745 66.6364 246.38 65.4406 234.021C64.4839 224.134 57.3357 219.27 53.8811 218.074C42.4014 212.652 38.7343 194.818 38.3357 186.579C22.6382 209.542 27.1451 221.662 31.3608 224.851C46.8271 258.34 37.8051 365.051 31.3608 414.221C16.1769 489.277 8.89545 606.901 57.9575 758.734C72.1414 782.758 115.245 833.845 174.187 846H299.478Z" fill="#FFC700"/>
<path d="M796.839 849C807.477 834.196 905.188 842.377 943.8 750.826C982.412 659.275 987.802 421.535 970.86 370.5C988.508 287.584 950.015 201.198 929.861 168.5C913.917 152.234 924.962 131.568 925.361 122C915.794 139.542 905.2 146.124 908.389 173.632C910.94 195.639 895.633 205.127 887.661 207.12C874.268 213.499 872.41 184.13 867.361 173.632C845.677 101.871 794.165 81.2841 776.361 76.5C731.08 58.6395 726.392 20.0732 725.861 2C713.743 11.8871 687.564 35.2925 680.389 45.2593C673.054 75.5584 695.934 102.801 708.291 112.635C725.829 138.15 721.445 170.575 717.06 183.599C689.955 206.243 689.119 180.733 686.861 170.5C683.034 154.234 665.347 140.417 661.361 135.5C646.214 115.566 646.752 132.967 644.361 115.824C642.447 102.11 644.336 82.8406 646.861 75C636.019 96.6878 617.036 111.988 609.861 118.5C595.192 140.188 591.368 166.057 594.291 177.619C604.256 205.924 608.242 195.958 603.857 227.851C599.473 259.745 572.556 247.859 571.361 235.5C570.404 225.613 561.815 221.196 558.361 220C546.881 214.578 551.64 198.239 551.242 190C535.544 212.964 524.506 224.662 528.722 227.851C544.188 261.34 535.166 368.051 528.722 417.221C513.538 492.277 506.256 609.901 555.318 761.734C569.502 785.758 612.605 836.845 671.548 849H796.839Z" fill="#FFC700"/>
<path d="M1282.48 848.5C1293.12 833.696 1390.83 841.877 1429.44 750.326C1468.05 658.775 1463.32 421.52 1446.38 370.485C1464.03 287.57 1439.15 219.698 1419 187C1403.06 170.734 1438.6 157.068 1439 147.5C1429.43 165.042 1390.84 145.624 1394.03 173.132C1396.58 195.139 1402 212.66 1394.03 214.653C1380.63 221.032 1346.46 193.597 1341.41 183.099C1319.73 111.338 1292.8 83.8292 1275 79.0452C1229.72 61.1846 1246.53 27.0732 1246 9C1233.88 18.8871 1180.67 43.0332 1173.5 53C1166.17 83.2991 1181.57 102.301 1193.93 112.135C1211.47 137.65 1204.38 171.977 1200 185C1172.9 207.645 1181.26 193.331 1179 183.099C1175.17 166.833 1160.49 158.417 1156.5 153.5C1141.35 133.566 1126.39 140.143 1124 123C1122.09 109.286 1142.78 86.8857 1145.3 79.0452C1134.46 100.733 1087.1 116.488 1079.93 123C1065.26 144.688 1077.01 165.557 1079.93 177.119C1089.9 205.424 1087.38 190.606 1083 222.5C1078.62 254.394 1056.7 234.859 1055.5 222.5C1054.54 212.613 1040.45 213.696 1037 212.5C1025.52 207.078 1034.9 182.239 1034.5 174C1018.8 196.964 1010.15 224.162 1014.36 227.351C1029.83 260.84 1020.81 367.551 1014.36 416.721C999.177 491.777 991.895 609.401 1040.96 761.234C1055.14 785.258 1098.24 836.345 1157.19 848.5H1282.48Z" fill="#FFC700"/>
<path d="M1775.48 846.5C1786.12 831.696 1883.83 839.877 1922.44 748.326C1961.05 656.775 1956.32 419.52 1939.38 368.485C1957.03 285.57 1941.65 208.698 1921.5 176C1905.56 159.734 1900.58 135.568 1900.98 126C1891.41 143.542 1883.84 143.624 1887.03 171.132C1889.58 193.139 1882.97 214.507 1875 216.5C1861.61 222.879 1839.46 191.597 1834.41 181.099C1812.73 109.338 1790.8 84.2841 1773 79.5C1727.72 61.6395 1724.4 31.0732 1723.86 13C1711.75 22.8871 1666.2 32.7925 1659.03 42.7593C1651.69 73.0584 1674.57 100.301 1686.93 110.135C1704.47 135.65 1700.08 168.075 1695.7 181.099C1668.59 203.743 1670.76 193.233 1668.5 183C1664.67 166.734 1659.03 156.917 1655.04 152C1639.9 132.066 1625.39 134.643 1623 117.5C1621.09 103.786 1629.48 79.3406 1632 71.5C1621.16 93.1878 1599.17 106.488 1592 113C1577.33 134.688 1570.01 163.557 1572.93 175.119C1582.9 203.424 1586.88 193.458 1582.5 225.351C1578.11 257.245 1550.2 255.859 1549 243.5C1548.04 233.613 1533.34 219.77 1529.88 218.574C1518.4 213.152 1535.4 194.739 1535 186.5C1519.3 209.464 1503.15 222.162 1507.36 225.351C1522.83 258.84 1513.81 365.551 1507.36 414.721C1492.18 489.777 1484.9 607.401 1533.96 759.234C1548.14 783.258 1591.24 834.345 1650.19 846.5H1775.48Z" fill="#FFC700"/>
<path d="M2271.48 846C2282.12 831.196 2379.83 839.377 2418.44 747.826C2457.05 656.275 2452.32 419.02 2435.38 367.985C2453.03 285.07 2417.13 198.945 2396.98 166.247C2381.03 149.981 2377.85 126.778 2378.24 117.21C2368.68 134.751 2379.84 143.124 2383.03 170.632C2385.58 192.639 2370.27 202.127 2362.3 204.12C2348.91 210.499 2335.46 191.097 2330.41 180.599C2308.73 108.838 2267.7 81.3292 2249.9 76.5452C2204.61 58.6846 2192.23 18.0732 2191.7 0C2179.58 9.88708 2162.2 32.2925 2155.03 42.2593C2147.69 72.5584 2170.57 99.8011 2182.93 109.635C2200.47 135.15 2196.08 167.575 2191.7 180.599C2164.59 203.243 2153.3 188.439 2151.04 178.207C2147.22 161.941 2138.29 148.04 2134.3 143.124C2119.15 123.19 2110.78 123.987 2108.39 106.844C2106.48 93.13 2111.05 74.0202 2113.57 66.1797C2102.73 87.8675 2085.67 106.313 2078.5 112.824C2063.83 134.512 2066.01 163.057 2068.93 174.619C2078.9 202.924 2082.88 192.958 2078.5 224.851C2074.11 256.745 2038.64 246.38 2037.44 234.021C2036.48 224.134 2029.34 219.27 2025.88 218.074C2014.4 212.652 2010.73 194.818 2010.34 186.579C1994.64 209.542 1999.15 221.662 2003.36 224.851C2018.83 258.34 2009.81 365.051 2003.36 414.221C1988.18 489.277 1980.9 606.901 2029.96 758.734C2044.14 782.758 2087.24 833.845 2146.19 846H2271.48Z" fill="#FFC700"/>
<path d="M299.478 1017C288.84 933.586 288.84 878.258 299.478 863.446C310.116 848.635 407.827 856.82 446.439 765.221C485.051 673.621 480.323 436.241 463.381 385.18C481.029 302.22 445.133 216.05 424.979 183.334C409.035 167.06 405.846 143.845 406.245 134.272C396.678 151.822 407.839 160.199 411.028 187.722C413.579 209.74 398.273 219.234 390.301 221.228C376.908 227.61 363.462 208.198 358.413 197.694C336.729 125.895 295.699 98.3722 277.895 93.5856C232.614 75.7156 220.231 35.0827 219.699 17C207.582 26.8923 190.203 49.3095 183.028 59.2816C175.694 89.5967 198.573 116.854 210.93 126.693C228.469 152.221 224.084 184.664 219.699 197.694C192.594 220.351 181.301 205.539 179.042 195.301C175.215 179.026 166.287 165.119 162.301 160.199C147.154 140.255 138.783 141.053 136.392 123.901C134.478 110.179 139.049 91.0593 141.573 83.2146C130.731 104.914 113.671 123.369 106.496 129.884C91.828 151.583 94.007 180.143 96.9301 191.711C106.895 220.032 110.881 210.059 106.496 241.97C102.112 273.881 66.6364 263.51 65.4406 251.144C64.4839 241.252 57.3357 236.386 53.8811 235.189C42.4014 229.764 38.7343 211.921 38.3357 203.677C22.6382 226.653 27.1451 238.779 31.3608 241.97C46.8271 275.476 37.8051 382.244 31.3608 431.44C16.1769 506.535 8.89545 624.221 57.9575 776.135C72.1414 800.171 115.245 851.285 174.187 863.446C183.511 914.768 196.566 998.29 174.187 1017H299.478Z" fill="#FF8A00"/>
<path d="M796.838 1020C786.2 936.586 786.2 881.258 796.838 866.446C807.476 851.635 905.187 859.82 943.799 768.221C982.411 676.621 977.683 439.241 960.741 388.18C978.389 305.22 942.493 219.05 922.339 186.334C906.395 170.06 887.262 165.073 887.661 155.5C878.094 173.051 905.199 163.199 908.388 190.722C910.939 212.74 895.633 222.234 887.661 224.228C874.268 230.61 860.821 211.198 855.772 200.694C834.089 128.895 769.164 98.2866 751.36 93.5C706.079 75.63 692.891 33.0827 692.36 15C680.242 24.8923 666.835 58.0279 659.661 68C652.326 98.3151 687.003 127.433 699.36 137.272C716.898 162.8 721.444 187.664 717.059 200.694C689.954 223.351 678.661 208.539 676.402 198.301C672.575 182.026 663.647 168.119 659.661 163.199C644.514 143.255 620.751 154.424 618.36 137.272C616.447 123.55 606.835 92.8447 609.36 85C598.518 106.699 596.866 120.386 589.691 126.901C575.022 148.6 591.367 183.143 594.29 194.711C604.255 223.032 608.241 213.059 603.856 244.97C599.472 276.881 563.996 266.51 562.8 254.144C561.844 244.252 554.696 239.386 551.241 238.189C539.761 232.764 520.258 202.954 519.86 194.711C504.162 217.686 524.505 241.779 528.721 244.97C544.187 278.476 535.165 385.244 528.721 434.44C513.537 509.535 506.255 627.221 555.317 779.135C569.501 803.171 612.605 854.285 671.547 866.446C680.871 917.768 693.926 1001.29 671.547 1020H796.838Z" fill="#FF8A00"/>
<path d="M1282.48 1019.5C1271.84 936.086 1271.84 880.758 1282.48 865.946C1293.12 851.135 1390.83 859.32 1429.44 767.721C1468.05 676.121 1463.32 438.741 1446.38 387.68C1464.03 304.72 1428.13 218.55 1407.98 185.834C1392.03 169.56 1385.6 172.272 1386 162.699C1376.43 180.25 1390.84 162.699 1394.03 190.222C1396.58 212.24 1381.27 221.734 1373.3 223.728C1359.91 230.11 1346.46 210.698 1341.41 200.194C1319.73 128.395 1278.7 100.872 1260.9 96.0856C1215.61 78.2156 1166.56 41.5827 1166.03 23.5C1153.91 33.3923 1173.2 51.8095 1166.03 61.7816C1158.69 92.0967 1181.57 119.354 1193.93 129.193C1211.47 154.721 1207.08 187.164 1202.7 200.194C1175.59 222.851 1164.3 208.039 1162.04 197.801C1158.22 181.526 1149.29 167.619 1145.3 162.699C1130.15 142.755 1121.78 143.553 1119.39 126.401C1117.48 112.679 1062.98 103.93 1065.5 96.0856C1054.66 117.785 1096.67 125.869 1089.5 132.384C1074.83 154.083 1077.01 182.643 1079.93 194.211C1089.9 222.532 1093.88 212.559 1089.5 244.47C1085.11 276.381 1049.64 266.01 1048.44 253.644C1047.48 243.752 1040.34 238.886 1036.88 237.689C1025.4 232.264 1022.4 231.972 1022 223.728C1006.3 246.704 1010.15 241.279 1014.36 244.47C1029.83 277.976 1020.81 384.744 1014.36 433.94C999.177 509.035 991.895 626.721 1040.96 778.635C1055.14 802.671 1098.24 853.785 1157.19 865.946C1166.51 917.268 1179.57 1000.79 1157.19 1019.5H1282.48Z" fill="#FF8A00"/>
<path d="M1775.48 1017.5C1764.84 934.086 1764.84 878.758 1775.48 863.946C1786.12 849.135 1883.83 857.32 1922.44 765.721C1961.05 674.121 1956.32 436.741 1939.38 385.68C1957.03 302.72 1921.13 216.55 1900.98 183.834C1885.03 167.56 1886.63 133.974 1887.03 124.401C1877.46 141.952 1883.84 160.699 1887.03 188.222C1889.58 210.24 1874.27 219.734 1866.3 221.728C1852.91 228.11 1839.46 208.698 1834.41 198.194C1812.73 126.395 1771.7 98.8722 1753.9 94.0856C1708.61 76.2156 1705.53 35.0827 1705 17C1692.88 26.8923 1666.2 49.8095 1659.03 59.7816C1651.69 90.0967 1674.57 117.354 1686.93 127.193C1704.47 152.721 1700.08 185.164 1695.7 198.194C1668.59 220.851 1657.3 206.039 1655.04 195.801C1651.22 179.526 1642.29 165.619 1638.3 160.699C1623.15 140.755 1614.78 141.553 1612.39 124.401C1610.48 110.679 1587.48 96.3447 1590 88.5C1579.16 110.199 1589.67 123.869 1582.5 130.384C1567.83 152.083 1570.01 180.643 1572.93 192.211C1582.9 220.532 1586.88 210.559 1582.5 242.47C1578.11 274.381 1542.64 264.01 1541.44 251.644C1540.48 241.752 1533.34 236.886 1529.88 235.689C1518.4 230.264 1530.28 218.744 1529.88 210.5C1514.18 233.476 1503.15 239.279 1507.36 242.47C1522.83 275.976 1513.81 382.744 1507.36 431.94C1492.18 507.035 1484.9 624.721 1533.96 776.635C1548.14 800.671 1591.24 851.785 1650.19 863.946C1659.51 915.268 1672.57 998.79 1650.19 1017.5H1775.48Z" fill="#FF8A00"/>
<path d="M2271.48 1017C2260.84 933.586 2260.84 878.258 2271.48 863.446C2282.12 848.635 2379.83 856.82 2418.44 765.221C2457.05 673.621 2452.32 436.241 2435.38 385.18C2453.03 302.22 2417.13 216.05 2396.98 183.334C2381.03 167.06 2396.58 139.457 2396.98 129.884C2387.41 147.435 2379.84 160.199 2383.03 187.722C2385.58 209.74 2370.27 219.234 2362.3 221.228C2348.91 227.61 2335.46 208.198 2330.41 197.694C2308.73 125.895 2267.7 98.3722 2249.9 93.5856C2204.61 75.7156 2220.4 25.5827 2219.86 7.5C2207.75 17.3923 2162.2 49.3095 2155.03 59.2816C2147.69 89.5967 2170.57 116.854 2182.93 126.693C2200.47 152.221 2196.08 184.664 2191.7 197.694C2164.59 220.351 2153.3 205.539 2151.04 195.301C2147.22 179.026 2138.29 165.119 2134.3 160.199C2119.15 140.255 2110.78 141.053 2108.39 123.901C2106.48 110.179 2081.98 77.8447 2084.5 70C2073.66 91.6992 2085.67 123.369 2078.5 129.884C2063.83 151.583 2066.01 180.143 2068.93 191.711C2078.9 220.032 2082.88 210.059 2078.5 241.97C2074.11 273.881 2038.64 263.51 2037.44 251.144C2036.48 241.252 2029.34 236.386 2025.88 235.189C2014.4 229.764 2026.28 187.744 2025.88 179.5C2010.18 202.476 1999.15 238.779 2003.36 241.97C2018.83 275.476 2009.81 382.244 2003.36 431.44C1988.18 506.535 1980.9 624.221 2029.96 776.135C2044.14 800.171 2087.24 851.285 2146.19 863.446C2155.51 914.768 2168.57 998.29 2146.19 1017H2271.48Z" fill="#FF8A00"/>
</svg>
