<svg width="682" height="963" viewBox="0 0 682 963" fill="none" xmlns="http://www.w3.org/2000/svg">
<path d="M404.38 775.77C391.386 793.83 391.386 861.292 404.38 963H251.338C278.674 940.187 262.728 838.347 251.338 775.77C179.341 760.941 126.69 698.618 109.365 669.309C9.26178 359.908 101.183 166.948 109.365 137.957C117.546 108.965 180.592 26.2679 341.334 2.50437C502.077 -21.2592 583.892 130.352 604.586 192.613C625.281 254.873 631.056 544.313 583.892 656.002C536.728 767.69 417.374 757.71 404.38 775.77Z" fill="#F5EEE4"/>
<path d="M273 298.406C237.194 263.083 140.867 211.319 42 286.852C70.86 323.496 157.464 377.108 273 298.406Z" fill="white"/>
<path d="M413 298.406C446.171 263.083 535.409 211.319 627 286.852C600.264 323.496 520.033 377.108 413 298.406Z" fill="white"/>
<ellipse cx="157" cy="294" rx="23" ry="27" fill="#FF0000"/>
<ellipse cx="519" cy="294" rx="24" ry="27" fill="#FF0000"/>
<path d="M460 581.562C460 590.457 400.636 622 339.135 622C277.634 622 228 590.457 228 581.562C228 572.667 277.634 589.788 339.135 589.788C400.636 589.788 460 572.667 460 581.562Z" fill="#FFAC88"/>
<path d="M272.989 717.794L249.163 564.503L298.572 564.784L272.989 717.794Z" fill="white"/>
<path d="M414.757 723.924L390.931 570.633L440.34 570.915L414.757 723.924Z" fill="white"/>
<path d="M19.3548 335.4C29.0323 348.14 54.0323 366.025 65.3226 373.375L75 502C62.5 492.608 30 432.665 19.3548 410.125C8.70968 387.585 2.01613 331.317 0 306C2.41935 310.492 9.67742 322.66 19.3548 335.4Z" fill="#F5EEE4"/>
<path d="M662.645 347.25C652.968 359.925 627.968 377.719 616.677 385.031L607 513C619.5 503.656 652 444.019 662.645 421.594C673.29 399.169 679.984 343.188 682 318C679.581 322.469 672.323 334.575 662.645 347.25Z" fill="#F5EEE4"/>
<path d="M489 588.003C489 596.997 400.085 588.003 339.213 588.003C278.34 588.003 200 596.997 200 588.003C200 579.009 276.071 549 339.213 549C391.868 549 489 579.009 489 588.003Z" fill="#FFAC88"/>
<path d="M134.152 501.868C130.268 494.019 88.838 459.352 68.6084 443C65.6954 449.868 67.3947 465.484 68.6084 472.434C81.1508 480.201 107.935 496.962 114.732 501.868C123.228 508 130.511 531.302 134.152 549.698C137.065 564.415 149.931 571.365 156 573C156 565.642 139.007 511.679 134.152 501.868Z" fill="#D9D9D9"/>
<path d="M550.093 500.415C554.021 492.626 595.917 458.226 616.373 442C619.319 448.815 617.601 464.311 616.373 471.208C603.69 478.915 576.605 495.547 569.732 500.415C561.14 506.5 553.776 529.623 550.093 547.877C547.148 562.481 534.137 569.377 528 571C528 563.698 545.184 510.151 550.093 500.415Z" fill="#D9D9D9"/>
<path d="M534.264 219.531C528.401 219.531 462.607 239.844 430.443 250L428 235.375L539.15 211L599 237.812C579.864 231.719 540.127 219.531 534.264 219.531Z" fill="black"/>
<path d="M153.357 219.531C159.186 219.531 224.595 239.844 256.571 250L259 235.375L148.5 211L89 237.812C108.024 231.719 147.529 219.531 153.357 219.531Z" fill="black"/>
<path d="M312.619 426.068C312.619 413.383 300.873 335.404 295 298H312.619C330.239 298 328.98 426.068 328.98 443.144C328.98 460.22 312.619 441.924 312.619 426.068Z" fill="#D9D9D9"/>
<path d="M375.417 407.226C375.417 394.624 386.472 317.158 392 280H375.417C358.834 280 360.019 407.226 360.019 424.189C360.019 441.153 375.417 422.977 375.417 407.226Z" fill="#D9D9D9"/>
<path d="M299.225 484.182C292.755 479.386 301.921 469.396 307.313 465C321.177 465 316.556 475.79 314.245 484.182C311.934 492.574 325.798 492.574 326.954 498.568C328.109 504.562 307.313 490.176 299.225 484.182Z" fill="#D9D9D9"/>
<path d="M387.775 484.182C394.245 479.386 385.079 469.396 379.687 465C365.823 465 370.444 475.79 372.755 484.182C375.066 492.574 361.202 492.574 360.046 498.568C358.891 504.562 379.687 490.176 387.775 484.182Z" fill="#D9D9D9"/>
</svg>
