<svg width="644" height="997" viewBox="0 0 644 997" fill="none" xmlns="http://www.w3.org/2000/svg">
<path d="M391.38 809.77C378.386 827.83 378.386 895.292 391.38 997H238.338C265.674 974.187 249.728 872.347 238.338 809.77C166.341 794.941 113.69 732.618 96.3648 703.309C-3.73828 393.908 88.1833 200.948 96.3648 171.957C104.546 142.965 167.592 60.2679 328.334 36.5044C489.077 12.7408 570.892 164.352 591.586 226.613C612.28 288.873 618.056 578.313 570.892 690.002C523.728 801.69 404.374 791.71 391.38 809.77Z" fill="#F5EEE4"/>
<path d="M260 332.406C224.194 297.083 127.867 245.319 29 320.852C57.86 357.496 144.464 411.108 260 332.406Z" fill="white"/>
<path d="M400 332.406C433.17 297.083 522.409 245.319 614 320.852C587.264 357.496 507.033 411.108 400 332.406Z" fill="white"/>
<ellipse cx="144" cy="328" rx="23" ry="27" fill="black"/>
<ellipse cx="506" cy="328" rx="24" ry="27" fill="black"/>
<path d="M447 615.562C447 624.457 387.636 656 326.135 656C264.634 656 215 624.457 215 615.562C215 606.667 264.634 623.788 326.135 623.788C387.636 623.788 447 606.667 447 615.562Z" fill="#FFAC88"/>
<path d="M259.989 751.794L236.163 598.503L285.572 598.784L259.989 751.794Z" fill="white"/>
<path d="M401.757 757.924L377.931 604.633L427.34 604.914L401.757 757.924Z" fill="white"/>
<path d="M476 622.003C476 630.997 387.085 622.003 326.213 622.003C265.34 622.003 187 630.997 187 622.003C187 613.009 263.071 583 326.213 583C378.868 583 476 613.009 476 622.003Z" fill="#FFAC88"/>
<path d="M121.152 535.868C117.268 528.019 75.838 493.352 55.6084 477C52.6954 483.868 54.3947 499.484 55.6084 506.434C68.1508 514.201 94.9346 530.962 101.732 535.868C110.228 542 117.511 565.302 121.152 583.698C124.065 598.415 136.931 605.365 143 607C143 599.642 126.007 545.679 121.152 535.868Z" fill="#D9D9D9"/>
<path d="M537.093 534.415C541.021 526.626 582.917 492.226 603.373 476C606.319 482.815 604.601 498.311 603.373 505.208C590.69 512.915 563.605 529.547 556.732 534.415C548.14 540.5 540.776 563.623 537.093 581.877C534.148 596.481 521.137 603.377 515 605C515 597.698 532.184 544.151 537.093 534.415Z" fill="#D9D9D9"/>
<path d="M299.619 460.068C299.619 447.383 287.873 369.404 282 332H299.619C317.239 332 315.98 460.068 315.98 477.144C315.98 494.22 299.619 475.924 299.619 460.068Z" fill="#D9D9D9"/>
<path d="M362.417 441.226C362.417 428.624 373.472 351.158 379 314H362.417C345.834 314 347.018 441.226 347.018 458.189C347.018 475.153 362.417 456.977 362.417 441.226Z" fill="#D9D9D9"/>
<path d="M286.225 518.182C279.755 513.386 288.921 503.396 294.313 499C308.177 499 303.556 509.79 301.245 518.182C298.934 526.574 312.798 526.574 313.954 532.568C315.109 538.562 294.313 524.176 286.225 518.182Z" fill="#D9D9D9"/>
<path d="M374.775 518.182C381.245 513.386 372.079 503.396 366.687 499C352.823 499 357.444 509.79 359.755 518.182C362.066 526.574 348.202 526.574 347.046 532.568C345.891 538.562 366.687 524.176 374.775 518.182Z" fill="#D9D9D9"/>
<path d="M504.524 249.866C495.453 249.866 441.114 269.955 415.078 280L405 261.166C418.858 258.655 452.62 251.373 476.808 242.333C507.044 231.033 510.823 237.311 536.019 242.333C561.215 247.355 595.229 283.767 572.553 271.211C549.877 258.655 515.862 249.866 504.524 249.866Z" fill="#AD9668"/>
<path d="M150.339 247.866C159.513 247.866 214.473 267.955 240.806 278L251 259.166C236.984 256.655 202.835 249.373 178.371 240.333C147.79 229.033 143.968 235.311 118.484 240.333C92.9998 245.355 58.5966 281.767 81.5321 269.211C104.468 256.655 138.871 247.866 150.339 247.866Z" fill="#AD9668"/>
<path d="M418.998 89.1257C385.439 75.921 355.438 112.578 340.184 130.777C333.828 96.0724 314.76 20.563 324.93 10.4056C335.099 0.24813 351.201 -0.598324 357.981 0.248129C515.609 -2.29123 539.762 80.2379 553.745 101.822C567.728 123.407 599.508 203.397 608.406 209.745C615.525 214.824 635.102 207.629 644 203.397C642.729 208.476 633.83 221.68 608.406 233.869C576.627 249.105 460.948 105.632 418.998 89.1257Z" fill="#FEF17D"/>
<path d="M228.196 128.891C260.279 112.506 321.726 112.253 338.65 128.891C341.611 93.7374 330.21 24.9248 319.118 15.7985C308.026 6.67218 291.938 7.38577 285.281 8.88335C128.345 21.5885 112.321 106.058 100.509 128.891C88.6977 151.724 64.8461 234.404 56.6149 241.582C50.0299 247.324 29.8739 242.056 20.619 238.703C22.374 243.635 32.497 255.917 58.9489 265.591C92.0137 277.683 188.094 149.372 228.196 128.891Z" fill="#FEF17D"/>
</svg>
