<svg width="549" height="291" viewBox="0 0 549 291" fill="none" xmlns="http://www.w3.org/2000/svg">
<path d="M132.509 146.778C105.055 150.673 30.3723 259.187 5.04251 288C-13.342 270.956 35.6836 101.732 57.7451 98.0802C79.8065 94.4279 115.35 55.5129 166.826 22.6422C218.303 -10.2286 309 0.685315 309 14.0771C309 24.7905 301.646 155.748 301.646 205.257C277.133 195.518 261.69 181.152 253.846 167.517C244.041 150.473 166.827 141.908 132.509 146.778Z" fill="black" stroke="black"/>
<path d="M440.541 142.063C467.764 145.942 516.294 261.31 541.41 290C559.639 273.029 536.548 97.2099 514.673 93.5732C493.068 89.9812 435.896 53.3178 385.312 20.879L383.424 19.6681C332.382 -13.0626 302 13.5648 302 26.8995V205.142C306.456 203.93 317.312 181.097 325.09 167.52C334.812 150.549 406.514 137.214 440.541 142.063Z" fill="black" stroke="black"/>
</svg>
