<svg width="588" height="1060" viewBox="0 0 588 1060" fill="none" xmlns="http://www.w3.org/2000/svg">
<path d="M359.154 864.049C345.483 883.047 345.483 954.011 359.154 1061H198.144C226.903 1037 210.127 929.875 198.144 864.049C122.398 848.45 67.0063 782.891 48.7788 752.061C-56.5361 426.595 40.1713 223.616 48.7788 193.119C57.3862 162.623 123.714 75.6318 292.826 50.6344C461.937 25.637 548.012 185.12 569.784 250.613C591.555 316.106 597.631 620.574 548.012 738.062C498.392 855.55 372.825 845.051 359.154 864.049Z" fill="#F5EEE4"/>
<path d="M150.34 154.397C121.46 158.496 42.8981 272.681 16.2525 303C-3.08706 285.065 48.4854 106.997 71.6929 103.154C94.9003 99.3109 132.29 58.362 186.441 23.7733C240.591 -10.8154 336 0.668868 336 14.7606C336 26.0339 328.264 163.836 328.264 215.933C302.478 205.684 286.233 190.568 277.981 176.22C267.667 158.285 186.441 149.272 150.34 154.397Z" fill="black" stroke="black"/>
<path d="M473.863 149.304C502.523 153.387 553.618 274.805 580.061 305C599.254 287.138 574.943 102.099 551.912 98.271C529.165 94.4907 468.972 55.9044 415.715 21.7642L413.727 20.4898C359.988 -13.9575 328 14.0664 328 28.1005V215.691C332.691 214.416 344.122 190.386 352.31 176.097C362.546 158.235 438.037 144.201 473.863 149.304Z" fill="black" stroke="black"/>
</svg>
