<svg width="1086" height="534" viewBox="0 0 1086 534" fill="none" xmlns="http://www.w3.org/2000/svg">
<rect width="1086" height="534" fill="black"/>
<path d="M982.297 495.609L984.719 500.766C980.812 500.87 974.693 500.948 966.359 501C958.026 501 953.599 501 953.078 501C953.078 500.583 953.052 499.854 953 498.812C953 497.771 953 496.938 953 496.312C953.99 494.594 955.63 492.536 957.922 490.141C960.214 487.693 962.505 485.323 964.797 483.031C967.089 480.688 969.328 478.135 971.516 475.375C973.755 472.615 975.578 469.542 976.984 466.156C978.391 462.719 979.094 459.203 979.094 455.609C979.094 453.318 978.286 451.469 976.672 450.062C975.057 448.604 973.104 447.875 970.812 447.875C968.156 447.875 965.682 448.969 963.391 451.156C961.151 453.292 959.589 456.573 958.703 461L955.188 459.75C955.396 454.698 957.036 450.766 960.109 447.953C963.234 445.141 966.828 443.734 970.891 443.734C974.536 443.734 977.661 444.88 980.266 447.172C982.87 449.464 984.172 452.667 984.172 456.781C984.172 460.167 983.651 463.474 982.609 466.703C981.568 469.88 980.057 472.875 978.078 475.688C976.099 478.5 974.25 480.922 972.531 482.953C970.812 484.932 968.651 487.25 966.047 489.906C963.495 492.51 961.698 494.385 960.656 495.531C962.427 495.635 963.938 495.688 965.188 495.688C966.49 495.688 968.521 495.661 971.281 495.609C974.042 495.505 976.099 495.453 977.453 495.453C978.703 495.453 980.318 495.505 982.297 495.609ZM1017.06 434.906L1020.58 436.234C1018.6 443.005 1013.7 454.932 1005.89 472.016C998.13 489.047 993.234 500.974 991.203 507.797C990.474 508.682 989.562 509.125 988.469 509.125C987.427 509.125 986.516 508.708 985.734 507.875C985.005 507.094 984.641 506.156 984.641 505.062C984.641 502.771 987.01 496.729 991.75 486.938C996.542 477.146 1001.67 466.859 1007.14 456.078C1012.66 445.297 1015.97 438.24 1017.06 434.906ZM1049.8 495.609L1052.22 500.766C1048.31 500.87 1042.19 500.948 1033.86 501C1025.53 501 1021.1 501 1020.58 501C1020.58 500.583 1020.55 499.854 1020.5 498.812C1020.5 497.771 1020.5 496.938 1020.5 496.312C1021.49 494.594 1023.13 492.536 1025.42 490.141C1027.71 487.693 1030.01 485.323 1032.3 483.031C1034.59 480.688 1036.83 478.135 1039.02 475.375C1041.26 472.615 1043.08 469.542 1044.48 466.156C1045.89 462.719 1046.59 459.203 1046.59 455.609C1046.59 453.318 1045.79 451.469 1044.17 450.062C1042.56 448.604 1040.6 447.875 1038.31 447.875C1035.66 447.875 1033.18 448.969 1030.89 451.156C1028.65 453.292 1027.09 456.573 1026.2 461L1022.69 459.75C1022.9 454.698 1024.54 450.766 1027.61 447.953C1030.73 445.141 1034.33 443.734 1038.39 443.734C1042.04 443.734 1045.16 444.88 1047.77 447.172C1050.37 449.464 1051.67 452.667 1051.67 456.781C1051.67 460.167 1051.15 463.474 1050.11 466.703C1049.07 469.88 1047.56 472.875 1045.58 475.688C1043.6 478.5 1041.75 480.922 1040.03 482.953C1038.31 484.932 1036.15 487.25 1033.55 489.906C1030.99 492.51 1029.2 494.385 1028.16 495.531C1029.93 495.635 1031.44 495.688 1032.69 495.688C1033.99 495.688 1036.02 495.661 1038.78 495.609C1041.54 495.505 1043.6 495.453 1044.95 495.453C1046.2 495.453 1047.82 495.505 1049.8 495.609Z" fill="white"/>
<path d="M94.5 201.625L94.6875 204C92.4792 204.667 90.375 205 88.375 205C86.4583 205 84.8125 204.479 83.4375 203.438C82.1042 202.438 81.0833 201.167 80.375 199.625C79.7083 198.083 79.0208 196.417 78.3125 194.625C77.6458 192.833 77 191.167 76.375 189.625C75.7917 188.083 74.9167 186.812 73.75 185.812C72.5833 184.771 71.1875 184.25 69.5625 184.25L70.1875 202.625C69.8125 203.917 69.0833 204.562 68 204.562C67.25 204.562 66.5208 204.25 65.8125 203.625C65.1458 203 64.7292 202.25 64.5625 201.375C64.6042 200.5 64.75 193.458 65 180.25C65.25 167 65.4375 159.333 65.5625 157.25L68.375 157.875C68.4167 159.458 68.5417 162.438 68.75 166.812C68.9583 171.146 69.0833 174.083 69.125 175.625C70.9167 175.583 72.4375 174.917 73.6875 173.625C74.9792 172.292 76.0208 170.688 76.8125 168.812C77.6458 166.938 78.4792 165.083 79.3125 163.25C80.1458 161.375 81.2292 159.792 82.5625 158.5C83.9375 157.167 85.5625 156.5 87.4375 156.5C88.8542 156.5 91.25 156.812 94.625 157.438L94 159.938C91.4167 159.521 89.9375 159.312 89.5625 159.312C88.1042 159.312 86.875 159.917 85.875 161.125C84.875 162.333 84.0417 163.854 83.375 165.688C82.7083 167.479 81.9792 169.333 81.1875 171.25C80.3958 173.125 79.2292 174.854 77.6875 176.438C76.1458 178.021 74.25 179.083 72 179.625C74 180.083 75.7292 180.979 77.1875 182.312C78.6458 183.646 79.7292 185.146 80.4375 186.812C81.1458 188.479 81.8333 190.25 82.5 192.125C83.1667 193.958 83.75 195.625 84.25 197.125C84.75 198.625 85.4375 199.875 86.3125 200.875C87.2292 201.875 88.3333 202.375 89.625 202.375C90.875 202.375 92.5 202.125 94.5 201.625ZM90.5625 208.625L89.5625 205.938C90.9375 205.396 92.1875 204.542 93.3125 203.375C94.3958 202.208 95.2917 201 96 199.75C96.7083 198.458 97.3125 196.854 97.8125 194.938C98.3125 193.021 98.6667 191.354 98.875 189.938C99.125 188.479 99.3125 186.688 99.4375 184.562C99.5625 182.438 99.625 180.854 99.625 179.812C99.6667 178.729 99.6875 177.292 99.6875 175.5C99.6875 172.958 99.9167 171.438 100.375 170.938C100.958 170.312 104.188 170 110.062 170C114.688 170 117.312 169.979 117.938 169.938C118.021 186.854 118.229 197.833 118.562 202.875C118.146 204.125 117.417 204.75 116.375 204.75C115.667 204.75 114.979 204.458 114.312 203.875C113.646 203.292 113.229 202.583 113.062 201.75C113.021 200.125 113 197.708 113 194.5C113 192.917 113 190.521 113 187.312C113.042 184.104 113.062 181.688 113.062 180.062C113.062 177.062 113.042 174.812 113 173.312C111.25 173.604 109.521 173.771 107.812 173.812C106.104 173.854 104.896 173.917 104.188 174C104.062 175.375 103.958 177.417 103.875 180.125C103.792 182.833 103.708 185.229 103.625 187.312C103.583 189.354 103.333 191.688 102.875 194.312C102.417 196.896 101.75 199.104 100.875 200.938C100.042 202.729 98.7292 204.333 96.9375 205.75C95.1875 207.208 93.0625 208.167 90.5625 208.625ZM129.125 197.812C129.125 198.521 129.167 199.458 129.25 200.625C128.875 201.917 128.146 202.562 127.062 202.562C126.312 202.562 125.583 202.271 124.875 201.688C124.208 201.062 123.792 200.312 123.625 199.438C123.75 196.062 123.896 191.125 124.062 184.625C124.271 178.125 124.417 173.729 124.5 171.438L127.375 170.938C127.875 173.604 128.188 177.146 128.312 181.562C128.438 185.979 128.604 189.271 128.812 191.438C129.604 190.271 131.854 187.229 135.562 182.312C139.271 177.396 141.792 173.729 143.125 171.312C144.042 171.146 144.625 171.062 144.875 171.062C145.667 171.062 146.208 171.417 146.5 172.125C146.833 172.833 147.042 174.167 147.125 176.125L148.312 201.875C147.938 203.125 147.208 203.75 146.125 203.75C145.375 203.75 144.646 203.458 143.938 202.875C143.271 202.25 142.854 201.5 142.688 200.625C142.729 199.25 142.833 195.896 143 190.562C143.208 185.188 143.375 181.375 143.5 179.125C136.375 187.25 131.583 193.479 129.125 197.812ZM175.812 201.438L176 204.188C175 204.438 174.292 204.562 173.875 204.562C172.292 204.562 170.854 204.042 169.562 203C168.271 201.958 167.208 200.688 166.375 199.188C165.542 197.688 164.75 196.188 164 194.688C163.292 193.188 162.521 191.917 161.688 190.875C160.854 189.833 160 189.312 159.125 189.312C158.792 189.312 158.479 189.375 158.188 189.5C158.354 192 158.646 196.042 159.062 201.625C158.688 202.917 157.958 203.562 156.875 203.562C156.125 203.562 155.396 203.271 154.688 202.688C154.021 202.062 153.604 201.312 153.438 200.438C153.604 193.438 153.688 186.854 153.688 180.688C153.688 176.146 153.875 172.542 154.25 169.875L157.062 170.875C157.396 172.5 157.583 174.833 157.625 177.875C157.667 180.875 157.708 182.729 157.75 183.438C159 183.229 160.083 182.583 161 181.5C161.958 180.417 162.729 179.188 163.312 177.812C163.938 176.438 164.583 175.083 165.25 173.75C165.917 172.417 166.771 171.292 167.812 170.375C168.896 169.458 170.167 169 171.625 169C172.375 169 173.542 169.25 175.125 169.75L174.875 171.875C174.625 171.833 174.292 171.812 173.875 171.812C172.208 171.812 170.75 172.521 169.5 173.938C168.292 175.312 167.375 176.854 166.75 178.562C166.167 180.229 165.417 181.833 164.5 183.375C163.583 184.917 162.583 185.812 161.5 186.062C163.042 186.438 164.354 187.479 165.438 189.188C166.562 190.896 167.396 192.667 167.938 194.5C168.521 196.292 169.354 197.938 170.438 199.438C171.521 200.896 172.854 201.625 174.438 201.625C174.854 201.625 175.312 201.562 175.812 201.438ZM180.812 176L179.562 172.812C180.646 171.729 182.021 170.875 183.688 170.25C185.354 169.583 187 169.25 188.625 169.25C195.667 169.25 199.188 175.333 199.188 187.5C199.188 189.167 199.083 191.625 198.875 194.875C198.708 198.125 198.625 200.562 198.625 202.188C198.292 203.479 197.646 204.125 196.688 204.125C195.938 204.125 195.25 203.75 194.625 203C194 202.25 193.688 201.417 193.688 200.5C193.688 200.208 193.708 200 193.75 199.875C191.167 202.375 188.417 203.625 185.5 203.625C183.292 203.625 181.354 202.833 179.688 201.25C178.062 199.625 177.25 197.667 177.25 195.375C177.25 191.5 178.75 188 181.75 184.875C184.792 181.75 188.229 180.188 192.062 180.188C192.229 180.188 192.396 180.208 192.562 180.25C192.729 180.25 192.917 180.271 193.125 180.312C193.375 180.354 193.562 180.375 193.688 180.375C193.354 175.5 191.417 173.062 187.875 173.062C185.792 173.062 183.438 174.042 180.812 176ZM193.875 195.562C193.958 192.646 194 190.438 194 188.938C194 187.688 193.958 185.938 193.875 183.688H193.375C190.417 183.729 187.708 184.833 185.25 187C182.833 189.167 181.625 191.792 181.625 194.875C181.625 196.208 182.021 197.271 182.812 198.062C183.646 198.854 184.646 199.25 185.812 199.25C187.646 199.25 190.333 198.021 193.875 195.562ZM209.938 164.125L209.5 162.188C210.5 162.312 211.479 162.375 212.438 162.375C215.312 162.375 217.958 161.583 220.375 160C221.333 160.083 222.146 160.375 222.812 160.875C223.479 161.375 223.812 161.958 223.812 162.625C223.812 163.167 223.625 163.604 223.25 163.938C222.875 164.271 222.312 164.521 221.562 164.688C220.812 164.812 220.188 164.896 219.688 164.938C219.188 164.938 218.521 164.938 217.688 164.938C214.979 164.938 212.396 164.667 209.938 164.125ZM209.75 197.812C209.75 198.521 209.792 199.458 209.875 200.625C209.5 201.917 208.771 202.562 207.688 202.562C206.938 202.562 206.208 202.271 205.5 201.688C204.833 201.062 204.417 200.312 204.25 199.438C204.375 196.062 204.521 191.125 204.688 184.625C204.896 178.125 205.042 173.729 205.125 171.438L208 170.938C208.5 173.604 208.812 177.146 208.938 181.562C209.062 185.979 209.229 189.271 209.438 191.438C210.229 190.271 212.479 187.229 216.188 182.312C219.896 177.396 222.417 173.729 223.75 171.312C224.667 171.146 225.25 171.062 225.5 171.062C226.292 171.062 226.833 171.417 227.125 172.125C227.458 172.833 227.667 174.167 227.75 176.125L228.938 201.875C228.562 203.125 227.833 203.75 226.75 203.75C226 203.75 225.271 203.458 224.562 202.875C223.896 202.25 223.479 201.5 223.312 200.625C223.354 199.25 223.458 195.896 223.625 190.562C223.833 185.188 224 181.375 224.125 179.125C217 187.25 212.208 193.479 209.75 197.812ZM274.312 201.438L274.5 204.188C273.5 204.438 272.792 204.562 272.375 204.562C270.792 204.562 269.354 204.042 268.062 203C266.771 201.958 265.708 200.688 264.875 199.188C264.042 197.688 263.25 196.188 262.5 194.688C261.792 193.188 261.021 191.917 260.188 190.875C259.354 189.833 258.5 189.312 257.625 189.312C257.292 189.312 256.979 189.375 256.688 189.5C256.854 192 257.146 196.042 257.562 201.625C257.188 202.917 256.458 203.562 255.375 203.562C254.625 203.562 253.896 203.271 253.188 202.688C252.521 202.062 252.104 201.312 251.938 200.438C252.104 193.438 252.188 186.854 252.188 180.688C252.188 176.146 252.375 172.542 252.75 169.875L255.562 170.875C255.896 172.5 256.083 174.833 256.125 177.875C256.167 180.875 256.208 182.729 256.25 183.438C257.5 183.229 258.583 182.583 259.5 181.5C260.458 180.417 261.229 179.188 261.812 177.812C262.438 176.438 263.083 175.083 263.75 173.75C264.417 172.417 265.271 171.292 266.312 170.375C267.396 169.458 268.667 169 270.125 169C270.875 169 272.042 169.25 273.625 169.75L273.375 171.875C273.125 171.833 272.792 171.812 272.375 171.812C270.708 171.812 269.25 172.521 268 173.938C266.792 175.312 265.875 176.854 265.25 178.562C264.667 180.229 263.917 181.833 263 183.375C262.083 184.917 261.083 185.812 260 186.062C261.542 186.438 262.854 187.479 263.938 189.188C265.062 190.896 265.896 192.667 266.438 194.5C267.021 196.292 267.854 197.938 268.938 199.438C270.021 200.896 271.354 201.625 272.938 201.625C273.354 201.625 273.812 201.562 274.312 201.438ZM281.562 221.5L277.688 219.312C279.396 216.354 282.417 210.729 286.75 202.438C283.375 199.438 280.792 194.896 279 188.812C277.208 182.729 276.125 176.646 275.75 170.562L279.375 170.75C279.583 171.75 280.021 174.042 280.688 177.625C281.396 181.167 281.958 183.792 282.375 185.5C282.792 187.208 283.521 189.354 284.562 191.938C285.646 194.479 286.875 196.625 288.25 198.375C294.042 187.25 296.938 178.125 296.938 171V170.312C299.104 170.646 300.729 171.042 301.812 171.5C301.146 175.875 300.104 180.333 298.688 184.875C297.271 189.417 295.5 194 293.375 198.625C291.25 203.208 289.354 207.062 287.688 210.188C286.062 213.312 284.021 217.083 281.562 221.5ZM305.125 170.125L308.625 170.75C308.625 171.625 308.646 172.271 308.688 172.688C310.979 171.229 313.292 170.5 315.625 170.5C319.417 170.5 322.375 172.125 324.5 175.375C326.625 178.625 327.688 182.312 327.688 186.438C327.688 188.521 327.521 190.521 327.188 192.438C326.896 194.312 326.354 196.25 325.562 198.25C324.771 200.208 323.542 201.792 321.875 203C320.25 204.167 318.271 204.75 315.938 204.75C313.729 204.75 311.604 204.167 309.562 203C309.729 210.292 309.875 215.708 310 219.25C309.625 220.542 308.896 221.188 307.812 221.188C307.062 221.188 306.333 220.875 305.625 220.25C304.958 219.667 304.542 218.938 304.375 218.062L305.125 170.125ZM309.188 176.75L309.375 196.938C309.875 197.938 310.646 198.75 311.688 199.375C312.729 199.958 313.875 200.25 315.125 200.25C316.75 200.25 318.125 199.729 319.25 198.688C320.417 197.646 321.229 196.271 321.688 194.562C322.188 192.812 322.521 191.188 322.688 189.688C322.896 188.188 323 186.604 323 184.938C323 177.854 320.604 174.312 315.812 174.312C314.271 174.312 312.833 174.542 311.5 175C310.208 175.417 309.438 176 309.188 176.75ZM353.812 172L353.5 174.688C351.75 174.438 350.25 174.312 349 174.312C346.125 174.312 343.75 175.188 341.875 176.938C340 178.646 338.708 180.688 338 183.062C337.333 185.396 337 188 337 190.875C337 192.208 337.083 193.396 337.25 194.438C337.417 195.479 337.708 196.5 338.125 197.5C338.583 198.5 339.271 199.292 340.188 199.875C341.146 200.417 342.312 200.688 343.688 200.688C345.521 200.688 347.854 200.333 350.688 199.625C351.562 199.292 352.25 199.125 352.75 199.125C353.75 199.125 354.354 200.292 354.562 202.625C350.896 203.792 347.5 204.375 344.375 204.375C339.833 204.375 336.75 203.271 335.125 201.062C333.542 198.812 332.75 195.188 332.75 190.188C332.75 187.271 332.938 184.729 333.312 182.562C333.729 180.354 334.438 178.312 335.438 176.438C336.438 174.521 337.875 173.062 339.75 172.062C341.667 171.062 344 170.562 346.75 170.562C349.833 170.562 352.188 171.042 353.812 172ZM357.75 189.688C357.75 188.021 357.917 186.167 358.25 184.125C358.625 182.083 359.167 179.938 359.875 177.688C360.583 175.438 361.646 173.562 363.062 172.062C364.479 170.562 366.125 169.812 368 169.812C372 169.812 375.208 171.625 377.625 175.25C380.042 178.833 381.25 182.833 381.25 187.25C381.25 189.125 381.042 191 380.625 192.875C380.25 194.708 379.646 196.521 378.812 198.312C377.979 200.104 376.771 201.604 375.188 202.812C373.646 203.979 371.833 204.646 369.75 204.812C365.917 204.312 362.958 202.688 360.875 199.938C358.792 197.146 357.75 193.729 357.75 189.688ZM368.375 173.062C366.917 173.229 365.688 174.562 364.688 177.062C363.688 179.562 363.042 182 362.75 184.375C362.458 186.708 362.312 188.771 362.312 190.562C362.312 192.896 363.021 195.062 364.438 197.062C365.896 199.021 367.521 200 369.312 200C370.604 200 371.771 199.5 372.812 198.5C373.854 197.5 374.667 196.271 375.25 194.812C375.875 193.312 376.333 191.812 376.625 190.312C376.958 188.812 377.125 187.479 377.125 186.312C377.125 182.896 376.354 179.917 374.812 177.375C373.271 174.833 371.125 173.396 368.375 173.062ZM387.062 170.125L390.562 170.75C390.562 171.625 390.583 172.271 390.625 172.688C392.917 171.229 395.229 170.5 397.562 170.5C401.354 170.5 404.312 172.125 406.438 175.375C408.562 178.625 409.625 182.312 409.625 186.438C409.625 188.521 409.458 190.521 409.125 192.438C408.833 194.312 408.292 196.25 407.5 198.25C406.708 200.208 405.479 201.792 403.812 203C402.188 204.167 400.208 204.75 397.875 204.75C395.667 204.75 393.542 204.167 391.5 203C391.667 210.292 391.812 215.708 391.938 219.25C391.562 220.542 390.833 221.188 389.75 221.188C389 221.188 388.271 220.875 387.562 220.25C386.896 219.667 386.479 218.938 386.312 218.062L387.062 170.125ZM391.125 176.75L391.312 196.938C391.812 197.938 392.583 198.75 393.625 199.375C394.667 199.958 395.812 200.25 397.062 200.25C398.688 200.25 400.062 199.729 401.188 198.688C402.354 197.646 403.167 196.271 403.625 194.562C404.125 192.812 404.458 191.188 404.625 189.688C404.833 188.188 404.938 186.604 404.938 184.938C404.938 177.854 402.542 174.312 397.75 174.312C396.208 174.312 394.771 174.542 393.438 175C392.146 175.417 391.375 176 391.125 176.75ZM414.688 189.688C414.688 188.021 414.854 186.167 415.188 184.125C415.562 182.083 416.104 179.938 416.812 177.688C417.521 175.438 418.583 173.562 420 172.062C421.417 170.562 423.062 169.812 424.938 169.812C428.938 169.812 432.146 171.625 434.562 175.25C436.979 178.833 438.188 182.833 438.188 187.25C438.188 189.125 437.979 191 437.562 192.875C437.188 194.708 436.583 196.521 435.75 198.312C434.917 200.104 433.708 201.604 432.125 202.812C430.583 203.979 428.771 204.646 426.688 204.812C422.854 204.312 419.896 202.688 417.812 199.938C415.729 197.146 414.688 193.729 414.688 189.688ZM425.312 173.062C423.854 173.229 422.625 174.562 421.625 177.062C420.625 179.562 419.979 182 419.688 184.375C419.396 186.708 419.25 188.771 419.25 190.562C419.25 192.896 419.958 195.062 421.375 197.062C422.833 199.021 424.458 200 426.25 200C427.542 200 428.708 199.5 429.75 198.5C430.792 197.5 431.604 196.271 432.188 194.812C432.812 193.312 433.271 191.812 433.562 190.312C433.896 188.812 434.062 187.479 434.062 186.312C434.062 182.896 433.292 179.917 431.75 177.375C430.208 174.833 428.062 173.396 425.312 173.062ZM467.75 172.188L472 171.812C474.083 177.438 476.208 187.917 478.375 203.25C477.667 203.417 476.958 203.5 476.25 203.5C475.625 203.5 474.896 203.396 474.062 203.188C473.479 200.896 472.771 196.854 471.938 191.062C471.146 185.271 470.438 181.167 469.812 178.75C467.771 182.083 465.021 188.208 461.562 197.125C461.271 197.167 460.75 197.25 460 197.375C459.292 197.5 458.75 197.562 458.375 197.562C457.917 197.562 457.375 197.5 456.75 197.375C456.083 195.667 455.083 192.938 453.75 189.188C452.458 185.396 451.417 182.542 450.625 180.625C446.625 190.875 444.125 198.458 443.125 203.375L440.688 202.688C440.896 199.521 442.042 194 444.125 186.125C446.208 178.208 447.458 173.167 447.875 171C448.375 171 448.938 171.062 449.562 171.188C450.229 171.271 450.729 171.312 451.062 171.312C452.146 173.188 453.625 176.792 455.5 182.125C457.375 187.417 458.625 190.729 459.25 192.062C462.417 183.062 465.25 176.438 467.75 172.188ZM523.312 172.188L527.562 171.812C529.646 177.438 531.771 187.917 533.938 203.25C533.229 203.417 532.521 203.5 531.812 203.5C531.188 203.5 530.458 203.396 529.625 203.188C529.042 200.896 528.333 196.854 527.5 191.062C526.708 185.271 526 181.167 525.375 178.75C523.333 182.083 520.583 188.208 517.125 197.125C516.833 197.167 516.312 197.25 515.562 197.375C514.854 197.5 514.312 197.562 513.938 197.562C513.479 197.562 512.938 197.5 512.312 197.375C511.646 195.667 510.646 192.938 509.312 189.188C508.021 185.396 506.979 182.542 506.188 180.625C502.188 190.875 499.688 198.458 498.688 203.375L496.25 202.688C496.458 199.521 497.604 194 499.688 186.125C501.771 178.208 503.021 173.167 503.438 171C503.938 171 504.5 171.062 505.125 171.188C505.792 171.271 506.292 171.312 506.625 171.312C507.708 173.188 509.188 176.792 511.062 182.125C512.938 187.417 514.188 190.729 514.812 192.062C517.979 183.062 520.812 176.438 523.312 172.188ZM536.688 171.312L539.5 171.938C539.583 173.271 539.708 174.833 539.875 176.625C540.083 178.417 540.312 180.458 540.562 182.75C542.229 182.25 543.812 182 545.312 182C547.104 182 548.771 182.354 550.312 183.062C551.854 183.729 553.167 184.625 554.25 185.75C555.333 186.875 556.188 188.167 556.812 189.625C557.438 191.042 557.75 192.5 557.75 194C557.75 195.458 557.458 196.792 556.875 198C556.333 199.208 555.542 200.25 554.5 201.125C553.5 201.958 552.292 202.604 550.875 203.062C549.5 203.562 547.979 203.812 546.312 203.812C545.312 203.812 544.25 203.75 543.125 203.625C542 203.542 540.979 203.417 540.062 203.25C539.146 203.083 538.375 202.896 537.75 202.688C537.167 202.438 536.875 202.167 536.875 201.875C536.875 201.208 536.854 200.25 536.812 199C536.812 197.75 536.792 196.375 536.75 194.875C536.75 193.375 536.729 191.792 536.688 190.125C536.646 188.458 536.604 186.854 536.562 185.312C536.562 183.771 536.542 182.375 536.5 181.125C536.5 179.833 536.5 178.792 536.5 178C536.5 175.667 536.562 173.438 536.688 171.312ZM541.125 186.625L540.562 199.188C542.229 199.771 543.812 200.062 545.312 200.062C546.479 200.062 547.542 199.875 548.5 199.5C549.5 199.083 550.333 198.562 551 197.938C551.667 197.271 552.188 196.521 552.562 195.688C552.938 194.854 553.125 193.979 553.125 193.062C553.125 192.146 552.938 191.292 552.562 190.5C552.188 189.667 551.625 188.938 550.875 188.312C550.125 187.688 549.208 187.208 548.125 186.875C547.042 186.5 545.812 186.312 544.438 186.312C543.979 186.312 543.479 186.354 542.938 186.438C542.396 186.479 541.792 186.542 541.125 186.625ZM560.625 171.125L563.438 171.75C563.729 175.042 564.042 179.188 564.375 184.188C564.708 189.146 565.062 195 565.438 201.75C565.062 203 564.333 203.625 563.25 203.625C562.5 203.625 561.771 203.333 561.062 202.75C560.396 202.125 559.979 201.375 559.812 200.5C559.854 199.875 559.875 198.854 559.875 197.438C559.917 196.021 559.958 194.396 560 192.562C560.042 190.729 560.083 188.771 560.125 186.688C560.167 184.604 560.208 182.583 560.25 180.625C560.292 178.667 560.333 176.854 560.375 175.188C560.458 173.479 560.542 172.125 560.625 171.125ZM599.188 170.5L602 171.125C602.125 173.917 602.188 180.708 602.188 191.5C602.188 196.875 602.25 200.771 602.375 203.188C599.208 203.271 595.083 203.312 590 203.312C580.167 203.312 573.667 203.208 570.5 203C570.625 200.625 570.771 195.354 570.938 187.188C571.104 178.979 571.333 173.083 571.625 169.5L574.438 170.188C574.729 173.688 574.958 179.042 575.125 186.25C575.292 193.458 575.396 197.771 575.438 199.188C576.354 199.104 578 199.062 580.375 199.062C582.792 199.021 584.354 198.979 585.062 198.938C585.146 197.479 585.188 195.188 585.188 192.062C585.188 190.854 585.167 189 585.125 186.5C585.125 184 585.125 182.125 585.125 180.875C585.125 176.792 585.271 173.208 585.562 170.125L588.375 170.75C588.625 174.083 588.812 179.312 588.938 186.438C589.104 193.562 589.208 197.646 589.25 198.688C593.5 198.688 596.479 198.667 598.188 198.625C598.312 196.125 598.458 191.604 598.625 185.062C598.833 178.521 599.021 173.667 599.188 170.5ZM612.938 197.812C612.938 198.521 612.979 199.458 613.062 200.625C612.688 201.917 611.958 202.562 610.875 202.562C610.125 202.562 609.396 202.271 608.688 201.688C608.021 201.062 607.604 200.312 607.438 199.438C607.562 196.062 607.708 191.125 607.875 184.625C608.083 178.125 608.229 173.729 608.312 171.438L611.188 170.938C611.688 173.604 612 177.146 612.125 181.562C612.25 185.979 612.417 189.271 612.625 191.438C613.417 190.271 615.667 187.229 619.375 182.312C623.083 177.396 625.604 173.729 626.938 171.312C627.854 171.146 628.438 171.062 628.688 171.062C629.479 171.062 630.021 171.417 630.312 172.125C630.646 172.833 630.854 174.167 630.938 176.125L632.125 201.875C631.75 203.125 631.021 203.75 629.938 203.75C629.188 203.75 628.458 203.458 627.75 202.875C627.083 202.25 626.667 201.5 626.5 200.625C626.542 199.25 626.646 195.896 626.812 190.562C627.021 185.188 627.188 181.375 627.312 179.125C620.188 187.25 615.396 193.479 612.938 197.812ZM673.812 171.312L676.625 171.938L678.062 202.25C677.688 203.5 676.958 204.125 675.875 204.125C675.125 204.125 674.396 203.812 673.688 203.188C672.979 202.604 672.542 201.875 672.375 201C672.375 200.875 672.562 197.354 672.938 190.438V189.938C671.771 189.854 670.042 189.812 667.75 189.812C664.292 189.812 661.688 189.708 659.938 189.5C660.146 191.917 660.417 195.812 660.75 201.188C660.375 202.479 659.646 203.125 658.562 203.125C657.812 203.125 657.083 202.833 656.375 202.25C655.708 201.625 655.292 200.875 655.125 200C655.25 197.917 655.312 195.833 655.312 193.75C655.312 192.417 655.292 190.417 655.25 187.75C655.208 185.083 655.188 183.104 655.188 181.812C655.188 177.812 655.312 174.458 655.562 171.75L658.375 172.438C659.208 181.479 659.646 186.125 659.688 186.375C666.812 186.75 670.479 186.938 670.688 186.938C672.396 186.938 673.25 186.833 673.25 186.625C673.25 185.792 673.333 183.146 673.5 178.688C673.667 174.229 673.771 171.771 673.812 171.312ZM685.375 176L684.125 172.812C685.208 171.729 686.583 170.875 688.25 170.25C689.917 169.583 691.562 169.25 693.188 169.25C700.229 169.25 703.75 175.333 703.75 187.5C703.75 189.167 703.646 191.625 703.438 194.875C703.271 198.125 703.188 200.562 703.188 202.188C702.854 203.479 702.208 204.125 701.25 204.125C700.5 204.125 699.812 203.75 699.188 203C698.562 202.25 698.25 201.417 698.25 200.5C698.25 200.208 698.271 200 698.312 199.875C695.729 202.375 692.979 203.625 690.062 203.625C687.854 203.625 685.917 202.833 684.25 201.25C682.625 199.625 681.812 197.667 681.812 195.375C681.812 191.5 683.312 188 686.312 184.875C689.354 181.75 692.792 180.188 696.625 180.188C696.792 180.188 696.958 180.208 697.125 180.25C697.292 180.25 697.479 180.271 697.688 180.312C697.938 180.354 698.125 180.375 698.25 180.375C697.917 175.5 695.979 173.062 692.438 173.062C690.354 173.062 688 174.042 685.375 176ZM698.438 195.562C698.521 192.646 698.562 190.438 698.562 188.938C698.562 187.688 698.521 185.938 698.438 183.688H697.938C694.979 183.729 692.271 184.833 689.812 187C687.396 189.167 686.188 191.792 686.188 194.875C686.188 196.208 686.583 197.271 687.375 198.062C688.208 198.854 689.208 199.25 690.375 199.25C692.208 199.25 694.896 198.021 698.438 195.562ZM727.438 170.125L730.938 170.75C730.938 171.625 730.958 172.271 731 172.688C733.292 171.229 735.604 170.5 737.938 170.5C741.729 170.5 744.688 172.125 746.812 175.375C748.938 178.625 750 182.312 750 186.438C750 188.521 749.833 190.521 749.5 192.438C749.208 194.312 748.667 196.25 747.875 198.25C747.083 200.208 745.854 201.792 744.188 203C742.562 204.167 740.583 204.75 738.25 204.75C736.042 204.75 733.917 204.167 731.875 203C732.042 210.292 732.188 215.708 732.312 219.25C731.938 220.542 731.208 221.188 730.125 221.188C729.375 221.188 728.646 220.875 727.938 220.25C727.271 219.667 726.854 218.938 726.688 218.062L727.438 170.125ZM731.5 176.75L731.688 196.938C732.188 197.938 732.958 198.75 734 199.375C735.042 199.958 736.188 200.25 737.438 200.25C739.062 200.25 740.438 199.729 741.562 198.688C742.729 197.646 743.542 196.271 744 194.562C744.5 192.812 744.833 191.188 745 189.688C745.208 188.188 745.312 186.604 745.312 184.938C745.312 177.854 742.917 174.312 738.125 174.312C736.583 174.312 735.146 174.542 733.812 175C732.521 175.417 731.75 176 731.5 176.75ZM757.312 176L756.062 172.812C757.146 171.729 758.521 170.875 760.188 170.25C761.854 169.583 763.5 169.25 765.125 169.25C772.167 169.25 775.688 175.333 775.688 187.5C775.688 189.167 775.583 191.625 775.375 194.875C775.208 198.125 775.125 200.562 775.125 202.188C774.792 203.479 774.146 204.125 773.188 204.125C772.438 204.125 771.75 203.75 771.125 203C770.5 202.25 770.188 201.417 770.188 200.5C770.188 200.208 770.208 200 770.25 199.875C767.667 202.375 764.917 203.625 762 203.625C759.792 203.625 757.854 202.833 756.188 201.25C754.562 199.625 753.75 197.667 753.75 195.375C753.75 191.5 755.25 188 758.25 184.875C761.292 181.75 764.729 180.188 768.562 180.188C768.729 180.188 768.896 180.208 769.062 180.25C769.229 180.25 769.417 180.271 769.625 180.312C769.875 180.354 770.062 180.375 770.188 180.375C769.854 175.5 767.917 173.062 764.375 173.062C762.292 173.062 759.938 174.042 757.312 176ZM770.375 195.562C770.458 192.646 770.5 190.438 770.5 188.938C770.5 187.688 770.458 185.938 770.375 183.688H769.875C766.917 183.729 764.208 184.833 761.75 187C759.333 189.167 758.125 191.792 758.125 194.875C758.125 196.208 758.521 197.271 759.312 198.062C760.146 198.854 761.146 199.25 762.312 199.25C764.146 199.25 766.833 198.021 770.375 195.562ZM784.438 187.562L784.188 184.062C784.312 184.062 784.5 184.083 784.75 184.125C785.042 184.125 785.25 184.125 785.375 184.125C789.583 184.125 791.688 182.292 791.688 178.625C791.229 175.417 789.458 173.812 786.375 173.812C785.208 173.812 783.5 174.146 781.25 174.812L780.125 173C781.875 171.375 784.375 170.562 787.625 170.562C789.917 170.562 791.833 171.146 793.375 172.312C794.917 173.479 795.688 175.188 795.688 177.438C795.688 178.812 795.417 180.167 794.875 181.5C794.333 182.792 793.625 183.771 792.75 184.438C794.333 184.771 795.562 185.854 796.438 187.688C797.354 189.479 797.812 191.5 797.812 193.75C797.812 196.667 796.875 199.208 795 201.375C793.125 203.542 790.708 204.625 787.75 204.625C786.292 204.625 784.542 204.208 782.5 203.375C780.458 202.542 779.438 201.5 779.438 200.25C779.438 199.375 780 198.938 781.125 198.938C781.875 198.938 782.854 199.292 784.062 200C785.271 200.667 786.271 201 787.062 201C788.812 201 790.354 200.229 791.688 198.688C793.021 197.146 793.688 195.438 793.688 193.562C793.688 191.562 792.979 190.062 791.562 189.062C790.188 188.021 788.417 187.5 786.25 187.5C785.417 187.5 784.812 187.521 784.438 187.562ZM821.625 171.312L824.438 171.938L825.875 202.25C825.5 203.5 824.771 204.125 823.688 204.125C822.938 204.125 822.208 203.812 821.5 203.188C820.792 202.604 820.354 201.875 820.188 201C820.188 200.875 820.375 197.354 820.75 190.438V189.938C819.583 189.854 817.854 189.812 815.562 189.812C812.104 189.812 809.5 189.708 807.75 189.5C807.958 191.917 808.229 195.812 808.562 201.188C808.188 202.479 807.458 203.125 806.375 203.125C805.625 203.125 804.896 202.833 804.188 202.25C803.521 201.625 803.104 200.875 802.938 200C803.062 197.917 803.125 195.833 803.125 193.75C803.125 192.417 803.104 190.417 803.062 187.75C803.021 185.083 803 183.104 803 181.812C803 177.812 803.125 174.458 803.375 171.75L806.188 172.438C807.021 181.479 807.458 186.125 807.5 186.375C814.625 186.75 818.292 186.938 818.5 186.938C820.208 186.938 821.062 186.833 821.062 186.625C821.062 185.792 821.146 183.146 821.312 178.688C821.479 174.229 821.583 171.771 821.625 171.312ZM831.125 171.312L833.938 171.938C834.021 173.271 834.146 174.833 834.312 176.625C834.521 178.417 834.75 180.458 835 182.75C836.667 182.25 838.25 182 839.75 182C841.542 182 843.208 182.354 844.75 183.062C846.292 183.729 847.604 184.625 848.688 185.75C849.771 186.875 850.625 188.167 851.25 189.625C851.875 191.042 852.188 192.5 852.188 194C852.188 195.458 851.896 196.792 851.312 198C850.771 199.208 849.979 200.25 848.938 201.125C847.938 201.958 846.729 202.604 845.312 203.062C843.938 203.562 842.417 203.812 840.75 203.812C839.75 203.812 838.688 203.75 837.562 203.625C836.438 203.542 835.417 203.417 834.5 203.25C833.583 203.083 832.812 202.896 832.188 202.688C831.604 202.438 831.312 202.167 831.312 201.875C831.312 201.208 831.292 200.25 831.25 199C831.25 197.75 831.229 196.375 831.188 194.875C831.188 193.375 831.167 191.792 831.125 190.125C831.083 188.458 831.042 186.854 831 185.312C831 183.771 830.979 182.375 830.938 181.125C830.938 179.833 830.938 178.792 830.938 178C830.938 175.667 831 173.438 831.125 171.312ZM835.562 186.625L835 199.188C836.667 199.771 838.25 200.062 839.75 200.062C840.917 200.062 841.979 199.875 842.938 199.5C843.938 199.083 844.771 198.562 845.438 197.938C846.104 197.271 846.625 196.521 847 195.688C847.375 194.854 847.562 193.979 847.562 193.062C847.562 192.146 847.375 191.292 847 190.5C846.625 189.667 846.062 188.938 845.312 188.312C844.562 187.688 843.646 187.208 842.562 186.875C841.479 186.5 840.25 186.312 838.875 186.312C838.417 186.312 837.917 186.354 837.375 186.438C836.833 186.479 836.229 186.542 835.562 186.625ZM855.062 171.125L857.875 171.75C858.167 175.042 858.479 179.188 858.812 184.188C859.146 189.146 859.5 195 859.875 201.75C859.5 203 858.771 203.625 857.688 203.625C856.938 203.625 856.208 203.333 855.5 202.75C854.833 202.125 854.417 201.375 854.25 200.5C854.292 199.875 854.312 198.854 854.312 197.438C854.354 196.021 854.396 194.396 854.438 192.562C854.479 190.729 854.521 188.771 854.562 186.688C854.604 184.604 854.646 182.583 854.688 180.625C854.729 178.667 854.771 176.854 854.812 175.188C854.896 173.479 854.979 172.125 855.062 171.125ZM890.125 196.938L890.75 199.688C888.917 200.354 886.188 201.104 882.562 201.938C878.979 202.729 876.312 203.125 874.562 203.125C872.771 203.125 871.208 202.542 869.875 201.375C868.542 200.167 867.542 198.646 866.875 196.812C866.208 194.938 865.708 193.104 865.375 191.312C865.083 189.479 864.938 187.688 864.938 185.938C864.938 175.521 869.646 170.312 879.062 170.312C881.312 170.312 883.292 171.042 885 172.5C886.708 173.917 887.562 175.771 887.562 178.062C887.562 179.312 887.208 180.417 886.5 181.375C885.833 182.333 885 183.104 884 183.688C883.042 184.229 881.792 184.729 880.25 185.188C878.75 185.646 877.417 185.979 876.25 186.188C875.083 186.396 873.688 186.625 872.062 186.875C870.438 187.125 869.312 187.312 868.688 187.438C868.729 188.646 868.792 189.708 868.875 190.625C869 191.542 869.208 192.542 869.5 193.625C869.833 194.667 870.25 195.542 870.75 196.25C871.292 196.917 872.021 197.479 872.938 197.938C873.854 198.396 874.938 198.625 876.188 198.625C877.688 198.625 879.521 198.5 881.688 198.25C883.854 197.958 885.771 197.667 887.438 197.375C889.146 197.083 890.042 196.938 890.125 196.938ZM868.938 183.562C874.604 181.938 879.25 180.229 882.875 178.438C882.583 177.062 882.188 176.062 881.688 175.438C881.188 174.812 880.438 174.5 879.438 174.5C876.896 174.5 874.583 175.375 872.5 177.125C870.458 178.875 869.271 181.021 868.938 183.562ZM80.875 240.812L83.4375 240C83.8958 241.542 84.3333 247.333 84.75 257.375C85.2083 267.375 85.5208 272.75 85.6875 273.5C85.3125 274.792 84.5833 275.438 83.5 275.438C82.75 275.438 82.0208 275.125 81.3125 274.5C80.6458 273.875 80.2292 273.125 80.0625 272.25C80.1458 269.875 80.2292 266.271 80.3125 261.438C78.1458 261.979 76.3542 262.25 74.9375 262.25C72.7708 262.25 70.8958 261.812 69.3125 260.938C67.7292 260.062 66.5 258.854 65.625 257.312C64.7917 255.771 64.1875 254.146 63.8125 252.438C63.4375 250.688 63.25 248.812 63.25 246.812C63.25 245.229 63.4583 243.146 63.875 240.562L66.6875 241.25C66.7292 241.792 66.7917 242.833 66.875 244.375C67 245.875 67.1042 246.958 67.1875 247.625C67.2708 248.292 67.3958 249.25 67.5625 250.5C67.7708 251.708 68.0417 252.625 68.375 253.25C68.75 253.833 69.1875 254.479 69.6875 255.188C70.2292 255.896 70.8958 256.396 71.6875 256.688C72.5208 256.979 73.4792 257.125 74.5625 257.125C75.9375 257.125 77.8542 256.729 80.3125 255.938C80.3125 254.854 80.4167 252.458 80.625 248.75C80.8333 245 80.9375 242.667 80.9375 241.75C80.9375 241.208 80.9167 240.896 80.875 240.812ZM93 247L91.75 243.812C92.8333 242.729 94.2083 241.875 95.875 241.25C97.5417 240.583 99.1875 240.25 100.812 240.25C107.854 240.25 111.375 246.333 111.375 258.5C111.375 260.167 111.271 262.625 111.062 265.875C110.896 269.125 110.812 271.562 110.812 273.188C110.479 274.479 109.833 275.125 108.875 275.125C108.125 275.125 107.438 274.75 106.812 274C106.188 273.25 105.875 272.417 105.875 271.5C105.875 271.208 105.896 271 105.938 270.875C103.354 273.375 100.604 274.625 97.6875 274.625C95.4792 274.625 93.5417 273.833 91.875 272.25C90.25 270.625 89.4375 268.667 89.4375 266.375C89.4375 262.5 90.9375 259 93.9375 255.875C96.9792 252.75 100.417 251.188 104.25 251.188C104.417 251.188 104.583 251.208 104.75 251.25C104.917 251.25 105.104 251.271 105.312 251.312C105.562 251.354 105.75 251.375 105.875 251.375C105.542 246.5 103.604 244.062 100.062 244.062C97.9792 244.062 95.625 245.042 93 247ZM106.062 266.562C106.146 263.646 106.188 261.438 106.188 259.938C106.188 258.688 106.146 256.938 106.062 254.688H105.562C102.604 254.729 99.8958 255.833 97.4375 258C95.0208 260.167 93.8125 262.792 93.8125 265.875C93.8125 267.208 94.2083 268.271 95 269.062C95.8333 269.854 96.8333 270.25 98 270.25C99.8333 270.25 102.521 269.021 106.062 266.562ZM137.5 243L137.188 245.688C135.438 245.438 133.938 245.312 132.688 245.312C129.812 245.312 127.438 246.188 125.562 247.938C123.688 249.646 122.396 251.688 121.688 254.062C121.021 256.396 120.688 259 120.688 261.875C120.688 263.208 120.771 264.396 120.938 265.438C121.104 266.479 121.396 267.5 121.812 268.5C122.271 269.5 122.958 270.292 123.875 270.875C124.833 271.417 126 271.688 127.375 271.688C129.208 271.688 131.542 271.333 134.375 270.625C135.25 270.292 135.938 270.125 136.438 270.125C137.438 270.125 138.042 271.292 138.25 273.625C134.583 274.792 131.188 275.375 128.062 275.375C123.521 275.375 120.438 274.271 118.812 272.062C117.229 269.812 116.438 266.188 116.438 261.188C116.438 258.271 116.625 255.729 117 253.562C117.417 251.354 118.125 249.312 119.125 247.438C120.125 245.521 121.562 244.062 123.438 243.062C125.354 242.062 127.688 241.562 130.438 241.562C133.521 241.562 135.875 242.042 137.5 243ZM139.438 245.312L138.875 242.562C144.458 242.229 153.25 241.771 165.25 241.188C166.25 241.229 167.104 241.604 167.812 242.312C168.521 243.021 168.875 243.771 168.875 244.562C168.875 245.812 168.042 246.521 166.375 246.688L154.688 246.125C154.896 249.25 155 253.812 155 259.812C155.042 265.771 155.125 270.125 155.25 272.875C154.875 274.083 154.146 274.688 153.062 274.688C152.354 274.688 151.667 274.396 151 273.812C150.333 273.229 149.917 272.521 149.75 271.688C150.333 261.438 150.938 252.833 151.562 245.875L139.438 245.312ZM176.938 268.812C176.938 269.521 176.979 270.458 177.062 271.625C176.688 272.917 175.958 273.562 174.875 273.562C174.125 273.562 173.396 273.271 172.688 272.688C172.021 272.062 171.604 271.312 171.438 270.438C171.562 267.062 171.708 262.125 171.875 255.625C172.083 249.125 172.229 244.729 172.312 242.438L175.188 241.938C175.688 244.604 176 248.146 176.125 252.562C176.25 256.979 176.417 260.271 176.625 262.438C177.417 261.271 179.667 258.229 183.375 253.312C187.083 248.396 189.604 244.729 190.938 242.312C191.854 242.146 192.438 242.062 192.688 242.062C193.479 242.062 194.021 242.417 194.312 243.125C194.646 243.833 194.854 245.167 194.938 247.125L196.125 272.875C195.75 274.125 195.021 274.75 193.938 274.75C193.188 274.75 192.458 274.458 191.75 273.875C191.083 273.25 190.667 272.5 190.5 271.625C190.542 270.25 190.646 266.896 190.812 261.562C191.021 256.188 191.188 252.375 191.312 250.125C184.188 258.25 179.396 264.479 176.938 268.812ZM212.438 279.625L211.438 276.938C212.812 276.396 214.062 275.542 215.188 274.375C216.271 273.208 217.167 272 217.875 270.75C218.583 269.458 219.188 267.854 219.688 265.938C220.188 264.021 220.542 262.354 220.75 260.938C221 259.479 221.188 257.688 221.312 255.562C221.438 253.438 221.5 251.854 221.5 250.812C221.542 249.729 221.562 248.292 221.562 246.5C221.562 243.958 221.792 242.438 222.25 241.938C222.833 241.312 226.062 241 231.938 241C236.562 241 239.188 240.979 239.812 240.938C239.896 257.854 240.104 268.833 240.438 273.875C240.021 275.125 239.292 275.75 238.25 275.75C237.542 275.75 236.854 275.458 236.188 274.875C235.521 274.292 235.104 273.583 234.938 272.75C234.896 271.125 234.875 268.708 234.875 265.5C234.875 263.917 234.875 261.521 234.875 258.312C234.917 255.104 234.938 252.688 234.938 251.062C234.938 248.062 234.917 245.812 234.875 244.312C233.125 244.604 231.396 244.771 229.688 244.812C227.979 244.854 226.771 244.917 226.062 245C225.938 246.375 225.833 248.417 225.75 251.125C225.667 253.833 225.583 256.229 225.5 258.312C225.458 260.354 225.208 262.688 224.75 265.312C224.292 267.896 223.625 270.104 222.75 271.938C221.917 273.729 220.604 275.333 218.812 276.75C217.062 278.208 214.938 279.167 212.438 279.625ZM251 268.812C251 269.521 251.042 270.458 251.125 271.625C250.75 272.917 250.021 273.562 248.938 273.562C248.188 273.562 247.458 273.271 246.75 272.688C246.083 272.062 245.667 271.312 245.5 270.438C245.625 267.062 245.771 262.125 245.938 255.625C246.146 249.125 246.292 244.729 246.375 242.438L249.25 241.938C249.75 244.604 250.062 248.146 250.188 252.562C250.312 256.979 250.479 260.271 250.688 262.438C251.479 261.271 253.729 258.229 257.438 253.312C261.146 248.396 263.667 244.729 265 242.312C265.917 242.146 266.5 242.062 266.75 242.062C267.542 242.062 268.083 242.417 268.375 243.125C268.708 243.833 268.917 245.167 269 247.125L270.188 272.875C269.812 274.125 269.083 274.75 268 274.75C267.25 274.75 266.521 274.458 265.812 273.875C265.146 273.25 264.729 272.5 264.562 271.625C264.604 270.25 264.708 266.896 264.875 261.562C265.083 256.188 265.25 252.375 265.375 250.125C258.25 258.25 253.458 264.479 251 268.812ZM275.312 274.188C275.438 271.896 275.521 266.604 275.562 258.312C275.604 249.979 275.771 244.188 276.062 240.938L278.875 241.562C279.167 244.896 279.375 250.229 279.5 257.562C279.667 264.896 279.771 268.896 279.812 269.562C280.438 269.521 281.458 269.5 282.875 269.5C283.875 269.5 285.333 269.521 287.25 269.562C289.208 269.604 290.583 269.625 291.375 269.625H293.125C293.25 267.042 293.396 262.5 293.562 256C293.729 249.458 293.896 244.625 294.062 241.5L296.875 242.125C297.042 245.375 297.125 250.521 297.125 257.562C297.167 264.604 297.188 268.625 297.188 269.625H301.875C301.833 270.792 301.729 272.938 301.562 276.062C301.396 279.188 301.292 281.521 301.25 283.062L298.25 282.562L297 274.188C291.583 274.354 287.542 274.438 284.875 274.438C281.333 274.438 278.146 274.354 275.312 274.188ZM307.938 247L306.688 243.812C307.771 242.729 309.146 241.875 310.812 241.25C312.479 240.583 314.125 240.25 315.75 240.25C322.792 240.25 326.312 246.333 326.312 258.5C326.312 260.167 326.208 262.625 326 265.875C325.833 269.125 325.75 271.562 325.75 273.188C325.417 274.479 324.771 275.125 323.812 275.125C323.062 275.125 322.375 274.75 321.75 274C321.125 273.25 320.812 272.417 320.812 271.5C320.812 271.208 320.833 271 320.875 270.875C318.292 273.375 315.542 274.625 312.625 274.625C310.417 274.625 308.479 273.833 306.812 272.25C305.188 270.625 304.375 268.667 304.375 266.375C304.375 262.5 305.875 259 308.875 255.875C311.917 252.75 315.354 251.188 319.188 251.188C319.354 251.188 319.521 251.208 319.688 251.25C319.854 251.25 320.042 251.271 320.25 251.312C320.5 251.354 320.688 251.375 320.812 251.375C320.479 246.5 318.542 244.062 315 244.062C312.917 244.062 310.562 245.042 307.938 247ZM321 266.562C321.083 263.646 321.125 261.438 321.125 259.938C321.125 258.688 321.083 256.938 321 254.688H320.5C317.542 254.729 314.833 255.833 312.375 258C309.958 260.167 308.75 262.792 308.75 265.875C308.75 267.208 309.146 268.271 309.938 269.062C310.771 269.854 311.771 270.25 312.938 270.25C314.771 270.25 317.458 269.021 321 266.562ZM330.188 281.5L330.062 279.5C333.062 278.458 334.562 277.042 334.562 275.25C334.562 274.958 334.479 274.479 334.312 273.812C333.729 273.896 333.333 273.938 333.125 273.938C332.333 273.938 331.708 273.417 331.25 272.375C330.792 271.292 330.562 270.25 330.562 269.25C330.562 268.333 330.75 267.604 331.125 267.062C331.5 266.479 332.042 266.188 332.75 266.188C334.333 266.188 335.604 267.104 336.562 268.938C337.521 270.771 338 272.604 338 274.438C338 276.396 337.354 278.021 336.062 279.312C334.771 280.646 332.812 281.375 330.188 281.5ZM376 240.812L378.562 240C379.021 241.542 379.458 247.333 379.875 257.375C380.333 267.375 380.646 272.75 380.812 273.5C380.438 274.792 379.708 275.438 378.625 275.438C377.875 275.438 377.146 275.125 376.438 274.5C375.771 273.875 375.354 273.125 375.188 272.25C375.271 269.875 375.354 266.271 375.438 261.438C373.271 261.979 371.479 262.25 370.062 262.25C367.896 262.25 366.021 261.812 364.438 260.938C362.854 260.062 361.625 258.854 360.75 257.312C359.917 255.771 359.312 254.146 358.938 252.438C358.562 250.688 358.375 248.812 358.375 246.812C358.375 245.229 358.583 243.146 359 240.562L361.812 241.25C361.854 241.792 361.917 242.833 362 244.375C362.125 245.875 362.229 246.958 362.312 247.625C362.396 248.292 362.521 249.25 362.688 250.5C362.896 251.708 363.167 252.625 363.5 253.25C363.875 253.833 364.312 254.479 364.812 255.188C365.354 255.896 366.021 256.396 366.812 256.688C367.646 256.979 368.604 257.125 369.688 257.125C371.062 257.125 372.979 256.729 375.438 255.938C375.438 254.854 375.542 252.458 375.75 248.75C375.958 245 376.062 242.667 376.062 241.75C376.062 241.208 376.042 240.896 376 240.812ZM383.875 245.312L383.312 242.562C388.896 242.229 397.688 241.771 409.688 241.188C410.688 241.229 411.542 241.604 412.25 242.312C412.958 243.021 413.312 243.771 413.312 244.562C413.312 245.812 412.479 246.521 410.812 246.688L399.125 246.125C399.333 249.25 399.438 253.812 399.438 259.812C399.479 265.771 399.562 270.125 399.688 272.875C399.312 274.083 398.583 274.688 397.5 274.688C396.792 274.688 396.104 274.396 395.438 273.812C394.771 273.229 394.354 272.521 394.188 271.688C394.771 261.438 395.375 252.833 396 245.875L383.875 245.312ZM413.5 260.688C413.5 259.021 413.667 257.167 414 255.125C414.375 253.083 414.917 250.938 415.625 248.688C416.333 246.438 417.396 244.562 418.812 243.062C420.229 241.562 421.875 240.812 423.75 240.812C427.75 240.812 430.958 242.625 433.375 246.25C435.792 249.833 437 253.833 437 258.25C437 260.125 436.792 262 436.375 263.875C436 265.708 435.396 267.521 434.562 269.312C433.729 271.104 432.521 272.604 430.938 273.812C429.396 274.979 427.583 275.646 425.5 275.812C421.667 275.312 418.708 273.688 416.625 270.938C414.542 268.146 413.5 264.729 413.5 260.688ZM424.125 244.062C422.667 244.229 421.438 245.562 420.438 248.062C419.438 250.562 418.792 253 418.5 255.375C418.208 257.708 418.062 259.771 418.062 261.562C418.062 263.896 418.771 266.062 420.188 268.062C421.646 270.021 423.271 271 425.062 271C426.354 271 427.521 270.5 428.562 269.5C429.604 268.5 430.417 267.271 431 265.812C431.625 264.312 432.083 262.812 432.375 261.312C432.708 259.812 432.875 258.479 432.875 257.312C432.875 253.896 432.104 250.917 430.562 248.375C429.021 245.833 426.875 244.396 424.125 244.062ZM446.25 244.25C447.25 243.458 448.5 242.812 450 242.312C451.542 241.771 452.896 241.5 454.062 241.5C461.812 241.5 465.688 245.979 465.688 254.938C465.688 256.854 465.542 258.896 465.25 261.062C464.958 263.188 464.438 265.521 463.688 268.062C462.979 270.604 461.833 272.688 460.25 274.312C458.708 275.979 456.833 276.812 454.625 276.812C452.25 276.812 450.229 276.188 448.562 274.938C446.896 273.688 445.583 271.854 444.625 269.438C443.708 267.021 443.042 264.312 442.625 261.312C442.25 258.271 442.062 254.729 442.062 250.688C442.062 246.604 442.562 242.958 443.562 239.75C444.604 236.542 446.167 233.729 448.25 231.312C450.333 228.896 452.667 226.812 455.25 225.062C457.833 223.312 460.958 221.583 464.625 219.875C464.875 220.208 465.146 220.5 465.438 220.75C465.771 220.958 466.062 221.292 466.312 221.75C466.604 222.208 467.042 223.104 467.625 224.438C466.833 224.896 465.562 225.583 463.812 226.5C462.062 227.417 460.604 228.208 459.438 228.875C458.271 229.5 456.875 230.396 455.25 231.562C453.667 232.688 452.333 233.812 451.25 234.938C450.208 236.021 449.208 237.396 448.25 239.062C447.333 240.688 446.667 242.417 446.25 244.25ZM460.875 254.562C460.875 251.479 460.167 249.188 458.75 247.688C457.333 246.146 455.438 245.375 453.062 245.375C450.854 245.375 449.062 246.333 447.688 248.25C446.312 250.125 445.625 252.417 445.625 255.125C445.625 256.75 445.75 258.479 446 260.312C446.292 262.146 446.708 264 447.25 265.875C447.833 267.708 448.646 269.229 449.688 270.438C450.771 271.646 451.979 272.25 453.312 272.25C458.354 272.25 460.875 266.354 460.875 254.562ZM471.625 242.312L474.438 242.938C474.521 244.271 474.646 245.833 474.812 247.625C475.021 249.417 475.25 251.458 475.5 253.75C477.167 253.25 478.75 253 480.25 253C482.042 253 483.708 253.354 485.25 254.062C486.792 254.729 488.104 255.625 489.188 256.75C490.271 257.875 491.125 259.167 491.75 260.625C492.375 262.042 492.688 263.5 492.688 265C492.688 266.458 492.396 267.792 491.812 269C491.271 270.208 490.479 271.25 489.438 272.125C488.438 272.958 487.229 273.604 485.812 274.062C484.438 274.562 482.917 274.812 481.25 274.812C480.25 274.812 479.188 274.75 478.062 274.625C476.938 274.542 475.917 274.417 475 274.25C474.083 274.083 473.312 273.896 472.688 273.688C472.104 273.438 471.812 273.167 471.812 272.875C471.812 272.208 471.792 271.25 471.75 270C471.75 268.75 471.729 267.375 471.688 265.875C471.688 264.375 471.667 262.792 471.625 261.125C471.583 259.458 471.542 257.854 471.5 256.312C471.5 254.771 471.479 253.375 471.438 252.125C471.438 250.833 471.438 249.792 471.438 249C471.438 246.667 471.5 244.438 471.625 242.312ZM476.062 257.625L475.5 270.188C477.167 270.771 478.75 271.062 480.25 271.062C481.417 271.062 482.479 270.875 483.438 270.5C484.438 270.083 485.271 269.562 485.938 268.938C486.604 268.271 487.125 267.521 487.5 266.688C487.875 265.854 488.062 264.979 488.062 264.062C488.062 263.146 487.875 262.292 487.5 261.5C487.125 260.667 486.562 259.938 485.812 259.312C485.062 258.688 484.146 258.208 483.062 257.875C481.979 257.5 480.75 257.312 479.375 257.312C478.917 257.312 478.417 257.354 477.875 257.438C477.333 257.479 476.729 257.542 476.062 257.625ZM495.562 242.125L498.375 242.75C498.667 246.042 498.979 250.188 499.312 255.188C499.646 260.146 500 266 500.375 272.75C500 274 499.271 274.625 498.188 274.625C497.438 274.625 496.708 274.333 496 273.75C495.333 273.125 494.917 272.375 494.75 271.5C494.792 270.875 494.812 269.854 494.812 268.438C494.854 267.021 494.896 265.396 494.938 263.562C494.979 261.729 495.021 259.771 495.062 257.688C495.104 255.604 495.146 253.583 495.188 251.625C495.229 249.667 495.271 247.854 495.312 246.188C495.396 244.479 495.479 243.125 495.562 242.125ZM523.75 242.75L544.812 242.938L546.25 273.25C545.875 274.5 545.146 275.125 544.062 275.125C543.312 275.125 542.583 274.812 541.875 274.188C541.167 273.604 540.729 272.875 540.562 272C540.604 271.25 540.667 268.896 540.75 264.938C540.875 260.938 541 257.125 541.125 253.5C541.25 249.833 541.333 247.458 541.375 246.375C540.208 246.292 538.479 246.25 536.188 246.25C533.062 246.25 530.458 246.125 528.375 245.875C528.5 247.25 528.604 251.688 528.688 259.188C528.771 266.646 528.854 270.979 528.938 272.188C528.562 273.479 527.833 274.125 526.75 274.125C526 274.125 525.271 273.833 524.562 273.25C523.896 272.625 523.479 271.875 523.312 271C523.438 268.917 523.5 266.833 523.5 264.75C523.5 263.667 523.479 261.875 523.438 259.375C523.396 256.875 523.375 254.896 523.375 253.438C523.375 249.146 523.5 245.583 523.75 242.75ZM551.312 260.688C551.312 259.021 551.479 257.167 551.812 255.125C552.188 253.083 552.729 250.938 553.438 248.688C554.146 246.438 555.208 244.562 556.625 243.062C558.042 241.562 559.688 240.812 561.562 240.812C565.562 240.812 568.771 242.625 571.188 246.25C573.604 249.833 574.812 253.833 574.812 258.25C574.812 260.125 574.604 262 574.188 263.875C573.812 265.708 573.208 267.521 572.375 269.312C571.542 271.104 570.333 272.604 568.75 273.812C567.208 274.979 565.396 275.646 563.312 275.812C559.479 275.312 556.521 273.688 554.438 270.938C552.354 268.146 551.312 264.729 551.312 260.688ZM561.938 244.062C560.479 244.229 559.25 245.562 558.25 248.062C557.25 250.562 556.604 253 556.312 255.375C556.021 257.708 555.875 259.771 555.875 261.562C555.875 263.896 556.583 266.062 558 268.062C559.458 270.021 561.083 271 562.875 271C564.167 271 565.333 270.5 566.375 269.5C567.417 268.5 568.229 267.271 568.812 265.812C569.438 264.312 569.896 262.812 570.188 261.312C570.521 259.812 570.688 258.479 570.688 257.312C570.688 253.896 569.917 250.917 568.375 248.375C566.833 245.833 564.688 244.396 561.938 244.062ZM604.375 243.188L608.625 242.812C610.708 248.438 612.833 258.917 615 274.25C614.292 274.417 613.583 274.5 612.875 274.5C612.25 274.5 611.521 274.396 610.688 274.188C610.104 271.896 609.396 267.854 608.562 262.062C607.771 256.271 607.062 252.167 606.438 249.75C604.396 253.083 601.646 259.208 598.188 268.125C597.896 268.167 597.375 268.25 596.625 268.375C595.917 268.5 595.375 268.562 595 268.562C594.542 268.562 594 268.5 593.375 268.375C592.708 266.667 591.708 263.938 590.375 260.188C589.083 256.396 588.042 253.542 587.25 251.625C583.25 261.875 580.75 269.458 579.75 274.375L577.312 273.688C577.521 270.521 578.667 265 580.75 257.125C582.833 249.208 584.083 244.167 584.5 242C585 242 585.562 242.062 586.188 242.188C586.854 242.271 587.354 242.312 587.688 242.312C588.771 244.188 590.25 247.792 592.125 253.125C594 258.417 595.25 261.729 595.875 263.062C599.042 254.062 601.875 247.438 604.375 243.188ZM642.75 267.938L643.375 270.688C641.542 271.354 638.812 272.104 635.188 272.938C631.604 273.729 628.938 274.125 627.188 274.125C625.396 274.125 623.833 273.542 622.5 272.375C621.167 271.167 620.167 269.646 619.5 267.812C618.833 265.938 618.333 264.104 618 262.312C617.708 260.479 617.562 258.688 617.562 256.938C617.562 246.521 622.271 241.312 631.688 241.312C633.938 241.312 635.917 242.042 637.625 243.5C639.333 244.917 640.188 246.771 640.188 249.062C640.188 250.312 639.833 251.417 639.125 252.375C638.458 253.333 637.625 254.104 636.625 254.688C635.667 255.229 634.417 255.729 632.875 256.188C631.375 256.646 630.042 256.979 628.875 257.188C627.708 257.396 626.312 257.625 624.688 257.875C623.062 258.125 621.938 258.312 621.312 258.438C621.354 259.646 621.417 260.708 621.5 261.625C621.625 262.542 621.833 263.542 622.125 264.625C622.458 265.667 622.875 266.542 623.375 267.25C623.917 267.917 624.646 268.479 625.562 268.938C626.479 269.396 627.562 269.625 628.812 269.625C630.312 269.625 632.146 269.5 634.312 269.25C636.479 268.958 638.396 268.667 640.062 268.375C641.771 268.083 642.667 267.938 642.75 267.938ZM621.562 254.562C627.229 252.938 631.875 251.229 635.5 249.438C635.208 248.062 634.812 247.062 634.312 246.438C633.812 245.812 633.062 245.5 632.062 245.5C629.521 245.5 627.208 246.375 625.125 248.125C623.083 249.875 621.896 252.021 621.562 254.562ZM664.562 242.312L667.375 242.938L668.812 273.25C668.438 274.5 667.708 275.125 666.625 275.125C665.875 275.125 665.146 274.812 664.438 274.188C663.729 273.604 663.292 272.875 663.125 272C663.125 271.875 663.312 268.354 663.688 261.438V260.938C662.521 260.854 660.792 260.812 658.5 260.812C655.042 260.812 652.438 260.708 650.688 260.5C650.896 262.917 651.167 266.812 651.5 272.188C651.125 273.479 650.396 274.125 649.312 274.125C648.562 274.125 647.833 273.833 647.125 273.25C646.458 272.625 646.042 271.875 645.875 271C646 268.917 646.062 266.833 646.062 264.75C646.062 263.417 646.042 261.417 646 258.75C645.958 256.083 645.938 254.104 645.938 252.812C645.938 248.812 646.062 245.458 646.312 242.75L649.125 243.438C649.958 252.479 650.396 257.125 650.438 257.375C657.562 257.75 661.229 257.938 661.438 257.938C663.146 257.938 664 257.833 664 257.625C664 256.792 664.083 254.146 664.25 249.688C664.417 245.229 664.521 242.771 664.562 242.312ZM695.312 241.562L696.25 275.125C695.833 276.375 695.125 277 694.125 277C693.417 277 692.708 276.708 692 276.125C691.333 275.542 690.917 274.833 690.75 274L691.375 260.438C689.625 261.562 687.812 262.146 685.938 262.188C684.354 267.396 682.354 271.208 679.938 273.625C677.562 276.042 673.75 277.979 668.5 279.438L667.5 276.75C675.292 274.792 679.729 269.646 680.812 261.312C678.812 260.479 677.146 259.208 675.812 257.5C674.521 255.792 673.875 253.833 673.875 251.625C673.875 247.208 675 244.271 677.25 242.812C679.5 241.354 683.062 240.625 687.938 240.625C690.479 240.625 692.938 240.938 695.312 241.562ZM691.875 255.188L691.562 245.312C690.104 244.854 687.958 244.625 685.125 244.625C683.125 244.625 681.417 245.083 680 246C678.583 246.875 677.875 248.312 677.875 250.312C677.875 252.562 678.771 254.5 680.562 256.125C682.354 257.708 684.312 258.5 686.438 258.5C688.938 258.5 690.75 257.396 691.875 255.188ZM699.375 245.312L698.812 242.562C704.396 242.229 713.188 241.771 725.188 241.188C726.188 241.229 727.042 241.604 727.75 242.312C728.458 243.021 728.812 243.771 728.812 244.562C728.812 245.812 727.979 246.521 726.312 246.688L714.625 246.125C714.833 249.25 714.938 253.812 714.938 259.812C714.979 265.771 715.062 270.125 715.188 272.875C714.812 274.083 714.083 274.688 713 274.688C712.292 274.688 711.604 274.396 710.938 273.812C710.271 273.229 709.854 272.521 709.688 271.688C710.271 261.438 710.875 252.833 711.5 245.875L699.375 245.312ZM731.562 242.312L734.375 242.938C734.458 244.271 734.583 245.833 734.75 247.625C734.958 249.417 735.188 251.458 735.438 253.75C737.104 253.25 738.688 253 740.188 253C741.979 253 743.646 253.354 745.188 254.062C746.729 254.729 748.042 255.625 749.125 256.75C750.208 257.875 751.062 259.167 751.688 260.625C752.312 262.042 752.625 263.5 752.625 265C752.625 266.458 752.312 267.792 751.688 269C751.062 270.208 750.229 271.25 749.188 272.125C748.146 272.958 746.938 273.604 745.562 274.062C744.188 274.562 742.729 274.812 741.188 274.812C740.896 274.812 740.25 274.792 739.25 274.75C738.25 274.708 737.188 274.604 736.062 274.438C734.979 274.312 734 274.125 733.125 273.875C732.25 273.625 731.792 273.271 731.75 272.812C731.75 272.104 731.729 271.146 731.688 269.938C731.688 268.688 731.667 267.312 731.625 265.812C731.625 264.312 731.604 262.75 731.562 261.125C731.521 259.458 731.479 257.854 731.438 256.312C731.438 254.771 731.417 253.354 731.375 252.062C731.375 250.771 731.375 249.75 731.375 249C731.375 246.667 731.438 244.438 731.562 242.312ZM736 257.625L735.438 270.188C737.104 270.771 738.688 271.062 740.188 271.062C741.354 271.062 742.417 270.875 743.375 270.5C744.375 270.083 745.208 269.562 745.875 268.938C746.542 268.271 747.062 267.521 747.438 266.688C747.812 265.854 748 264.979 748 264.062C748 263.146 747.812 262.292 747.438 261.5C747.062 260.667 746.5 259.938 745.75 259.312C745 258.688 744.083 258.208 743 257.875C741.917 257.5 740.688 257.312 739.312 257.312C738.854 257.312 738.354 257.354 737.812 257.438C737.271 257.479 736.667 257.542 736 257.625ZM779.812 268.812C779.812 269.521 779.854 270.458 779.938 271.625C779.562 272.917 778.833 273.562 777.75 273.562C777 273.562 776.271 273.271 775.562 272.688C774.896 272.062 774.479 271.312 774.312 270.438C774.438 267.062 774.583 262.125 774.75 255.625C774.958 249.125 775.104 244.729 775.188 242.438L778.062 241.938C778.562 244.604 778.875 248.146 779 252.562C779.125 256.979 779.292 260.271 779.5 262.438C780.292 261.271 782.542 258.229 786.25 253.312C789.958 248.396 792.479 244.729 793.812 242.312C794.729 242.146 795.312 242.062 795.562 242.062C796.354 242.062 796.896 242.417 797.188 243.125C797.521 243.833 797.729 245.167 797.812 247.125L799 272.875C798.625 274.125 797.896 274.75 796.812 274.75C796.062 274.75 795.333 274.458 794.625 273.875C793.958 273.25 793.542 272.5 793.375 271.625C793.417 270.25 793.521 266.896 793.688 261.562C793.896 256.188 794.062 252.375 794.188 250.125C787.062 258.25 782.271 264.479 779.812 268.812ZM804.25 275.562L801.562 274.125C802.646 271.417 805.479 266.167 810.062 258.375C807.646 255.083 804.896 249.604 801.812 241.938H804.562C806.104 245.188 808.708 249.417 812.375 254.625C813 253.75 813.812 252.396 814.812 250.562C815.854 248.729 816.854 247.146 817.812 245.812C818.812 244.479 819.938 243.312 821.188 242.312C822.688 243.146 823.438 244.125 823.438 245.25C823.438 245.875 823.292 246.479 823 247.062C821.875 248.438 820.438 250.604 818.688 253.562C816.938 256.521 815.854 258.312 815.438 258.938C819.854 265.104 822.833 269.75 824.375 272.875C824.375 274.458 823.667 275.25 822.25 275.25C820.833 275.25 819.75 274.562 819 273.188C818.25 270.688 816.271 267.146 813.062 262.562C812.354 263.729 810.896 265.854 808.688 268.938C806.521 271.979 805.042 274.188 804.25 275.562ZM827.812 266.188C828.938 266.188 829.875 266.688 830.625 267.688C831.417 268.646 831.812 269.75 831.812 271C831.812 271.917 831.583 272.667 831.125 273.25C830.708 273.792 830.125 274.062 829.375 274.062C828.208 274.062 827.271 273.583 826.562 272.625C825.896 271.667 825.562 270.542 825.562 269.25C825.562 268.333 825.75 267.604 826.125 267.062C826.542 266.479 827.104 266.188 827.812 266.188ZM65.5 299.188L68.3125 299.812C68.7292 306.688 69.2083 318.125 69.75 334.125C77.875 319.667 83.4583 308.042 86.5 299.25C87.125 298.75 87.7292 298.5 88.3125 298.5C89.2292 298.5 89.9792 299.042 90.5625 300.125C91.1875 301.208 91.5208 302.438 91.5625 303.812C91.6875 307.688 91.7917 314.229 91.875 323.438C92 332.646 92.1667 339.521 92.375 344.062C92 345.312 91.2917 345.938 90.25 345.938C89.5 345.938 88.7708 345.625 88.0625 345C87.3542 344.417 86.9167 343.688 86.75 342.812C86.875 339.188 86.9375 333.625 86.9375 326.125C86.9792 318.625 87.0208 313.562 87.0625 310.938C86.1458 312.521 84.5417 315.521 82.25 319.938C79.9583 324.354 77.8333 328.146 75.875 331.312C73.9583 334.479 71.9792 337.229 69.9375 339.562L70.1875 344.625C69.8125 345.917 69.0833 346.562 68 346.562C67.25 346.562 66.5208 346.25 65.8125 345.625C65.1458 345 64.7292 344.25 64.5625 343.375C64.6875 339.833 64.8125 332.896 64.9375 322.562C65.0625 312.229 65.25 304.438 65.5 299.188ZM115.812 313.75L136.875 313.938L138.312 344.25C137.938 345.5 137.208 346.125 136.125 346.125C135.375 346.125 134.646 345.812 133.938 345.188C133.229 344.604 132.792 343.875 132.625 343C132.667 342.25 132.729 339.896 132.812 335.938C132.938 331.938 133.062 328.125 133.188 324.5C133.312 320.833 133.396 318.458 133.438 317.375C132.271 317.292 130.542 317.25 128.25 317.25C125.125 317.25 122.521 317.125 120.438 316.875C120.562 318.25 120.667 322.688 120.75 330.188C120.833 337.646 120.917 341.979 121 343.188C120.625 344.479 119.896 345.125 118.812 345.125C118.062 345.125 117.333 344.833 116.625 344.25C115.958 343.625 115.542 342.875 115.375 342C115.5 339.917 115.562 337.833 115.562 335.75C115.562 334.667 115.542 332.875 115.5 330.375C115.458 327.875 115.438 325.896 115.438 324.438C115.438 320.146 115.562 316.583 115.812 313.75ZM143.375 331.688C143.375 330.021 143.542 328.167 143.875 326.125C144.25 324.083 144.792 321.938 145.5 319.688C146.208 317.438 147.271 315.562 148.688 314.062C150.104 312.562 151.75 311.812 153.625 311.812C157.625 311.812 160.833 313.625 163.25 317.25C165.667 320.833 166.875 324.833 166.875 329.25C166.875 331.125 166.667 333 166.25 334.875C165.875 336.708 165.271 338.521 164.438 340.312C163.604 342.104 162.396 343.604 160.812 344.812C159.271 345.979 157.458 346.646 155.375 346.812C151.542 346.312 148.583 344.688 146.5 341.938C144.417 339.146 143.375 335.729 143.375 331.688ZM154 315.062C152.542 315.229 151.312 316.562 150.312 319.062C149.312 321.562 148.667 324 148.375 326.375C148.083 328.708 147.938 330.771 147.938 332.562C147.938 334.896 148.646 337.062 150.062 339.062C151.521 341.021 153.146 342 154.938 342C156.229 342 157.396 341.5 158.438 340.5C159.479 339.5 160.292 338.271 160.875 336.812C161.5 335.312 161.958 333.812 162.25 332.312C162.583 330.812 162.75 329.479 162.75 328.312C162.75 324.896 161.979 321.917 160.438 319.375C158.896 316.833 156.75 315.396 154 315.062ZM196.438 314.188L200.688 313.812C202.771 319.438 204.896 329.917 207.062 345.25C206.354 345.417 205.646 345.5 204.938 345.5C204.312 345.5 203.583 345.396 202.75 345.188C202.167 342.896 201.458 338.854 200.625 333.062C199.833 327.271 199.125 323.167 198.5 320.75C196.458 324.083 193.708 330.208 190.25 339.125C189.958 339.167 189.438 339.25 188.688 339.375C187.979 339.5 187.438 339.562 187.062 339.562C186.604 339.562 186.062 339.5 185.438 339.375C184.771 337.667 183.771 334.938 182.438 331.188C181.146 327.396 180.104 324.542 179.312 322.625C175.312 332.875 172.812 340.458 171.812 345.375L169.375 344.688C169.583 341.521 170.729 336 172.812 328.125C174.896 320.208 176.146 315.167 176.562 313C177.062 313 177.625 313.062 178.25 313.188C178.917 313.271 179.417 313.312 179.75 313.312C180.833 315.188 182.312 318.792 184.188 324.125C186.062 329.417 187.312 332.729 187.938 334.062C191.104 325.062 193.938 318.438 196.438 314.188ZM228.312 313.312L231.125 313.938L232.562 344.25C232.188 345.5 231.458 346.125 230.375 346.125C229.625 346.125 228.896 345.812 228.188 345.188C227.479 344.604 227.042 343.875 226.875 343C226.875 342.875 227.062 339.354 227.438 332.438V331.938C226.271 331.854 224.542 331.812 222.25 331.812C218.792 331.812 216.188 331.708 214.438 331.5C214.646 333.917 214.917 337.812 215.25 343.188C214.875 344.479 214.146 345.125 213.062 345.125C212.312 345.125 211.583 344.833 210.875 344.25C210.208 343.625 209.792 342.875 209.625 342C209.75 339.917 209.812 337.833 209.812 335.75C209.812 334.417 209.792 332.417 209.75 329.75C209.708 327.083 209.688 325.104 209.688 323.812C209.688 319.812 209.812 316.458 210.062 313.75L212.875 314.438C213.708 323.479 214.146 328.125 214.188 328.375C221.312 328.75 224.979 328.938 225.188 328.938C226.896 328.938 227.75 328.833 227.75 328.625C227.75 327.792 227.833 325.146 228 320.688C228.167 316.229 228.271 313.771 228.312 313.312ZM243.125 339.812C243.125 340.521 243.167 341.458 243.25 342.625C242.875 343.917 242.146 344.562 241.062 344.562C240.312 344.562 239.583 344.271 238.875 343.688C238.208 343.062 237.792 342.312 237.625 341.438C237.75 338.062 237.896 333.125 238.062 326.625C238.271 320.125 238.417 315.729 238.5 313.438L241.375 312.938C241.875 315.604 242.188 319.146 242.312 323.562C242.438 327.979 242.604 331.271 242.812 333.438C243.604 332.271 245.854 329.229 249.562 324.312C253.271 319.396 255.792 315.729 257.125 313.312C258.042 313.146 258.625 313.062 258.875 313.062C259.667 313.062 260.208 313.417 260.5 314.125C260.833 314.833 261.042 316.167 261.125 318.125L262.312 343.875C261.938 345.125 261.208 345.75 260.125 345.75C259.375 345.75 258.646 345.458 257.938 344.875C257.271 344.25 256.854 343.5 256.688 342.625C256.729 341.25 256.833 337.896 257 332.562C257.208 327.188 257.375 323.375 257.5 321.125C250.375 329.25 245.583 335.479 243.125 339.812ZM266.25 352.5L266.125 350.5C269.125 349.458 270.625 348.042 270.625 346.25C270.625 345.958 270.542 345.479 270.375 344.812C269.792 344.896 269.396 344.938 269.188 344.938C268.396 344.938 267.771 344.417 267.312 343.375C266.854 342.292 266.625 341.25 266.625 340.25C266.625 339.333 266.812 338.604 267.188 338.062C267.562 337.479 268.104 337.188 268.812 337.188C270.396 337.188 271.667 338.104 272.625 339.938C273.583 341.771 274.062 343.604 274.062 345.438C274.062 347.396 273.417 349.021 272.125 350.312C270.833 351.646 268.875 352.375 266.25 352.5ZM300.25 363.5L296.375 361.312C298.083 358.354 301.104 352.729 305.438 344.438C302.062 341.438 299.479 336.896 297.688 330.812C295.896 324.729 294.812 318.646 294.438 312.562L298.062 312.75C298.271 313.75 298.708 316.042 299.375 319.625C300.083 323.167 300.646 325.792 301.062 327.5C301.479 329.208 302.208 331.354 303.25 333.938C304.333 336.479 305.562 338.625 306.938 340.375C312.729 329.25 315.625 320.125 315.625 313V312.312C317.792 312.646 319.417 313.042 320.5 313.5C319.833 317.875 318.792 322.333 317.375 326.875C315.958 331.417 314.188 336 312.062 340.625C309.938 345.208 308.042 349.062 306.375 352.188C304.75 355.312 302.708 359.083 300.25 363.5ZM338.938 316.312L338.375 313.562C343.958 313.229 352.75 312.771 364.75 312.188C365.75 312.229 366.604 312.604 367.312 313.312C368.021 314.021 368.375 314.771 368.375 315.562C368.375 316.812 367.542 317.521 365.875 317.688L354.188 317.125C354.396 320.25 354.5 324.812 354.5 330.812C354.542 336.771 354.625 341.125 354.75 343.875C354.375 345.083 353.646 345.688 352.562 345.688C351.854 345.688 351.167 345.396 350.5 344.812C349.833 344.229 349.417 343.521 349.25 342.688C349.833 332.438 350.438 323.833 351.062 316.875L338.938 316.312ZM393.875 338.938L394.5 341.688C392.667 342.354 389.938 343.104 386.312 343.938C382.729 344.729 380.062 345.125 378.312 345.125C376.521 345.125 374.958 344.542 373.625 343.375C372.292 342.167 371.292 340.646 370.625 338.812C369.958 336.938 369.458 335.104 369.125 333.312C368.833 331.479 368.688 329.688 368.688 327.938C368.688 317.521 373.396 312.312 382.812 312.312C385.062 312.312 387.042 313.042 388.75 314.5C390.458 315.917 391.312 317.771 391.312 320.062C391.312 321.312 390.958 322.417 390.25 323.375C389.583 324.333 388.75 325.104 387.75 325.688C386.792 326.229 385.542 326.729 384 327.188C382.5 327.646 381.167 327.979 380 328.188C378.833 328.396 377.438 328.625 375.812 328.875C374.188 329.125 373.062 329.312 372.438 329.438C372.479 330.646 372.542 331.708 372.625 332.625C372.75 333.542 372.958 334.542 373.25 335.625C373.583 336.667 374 337.542 374.5 338.25C375.042 338.917 375.771 339.479 376.688 339.938C377.604 340.396 378.688 340.625 379.938 340.625C381.438 340.625 383.271 340.5 385.438 340.25C387.604 339.958 389.521 339.667 391.188 339.375C392.896 339.083 393.792 338.938 393.875 338.938ZM372.688 325.562C378.354 323.938 383 322.229 386.625 320.438C386.333 319.062 385.938 318.062 385.438 317.438C384.938 316.812 384.188 316.5 383.188 316.5C380.646 316.5 378.333 317.375 376.25 319.125C374.208 320.875 373.021 323.021 372.688 325.562ZM401.188 315.25C402.188 314.458 403.438 313.812 404.938 313.312C406.479 312.771 407.833 312.5 409 312.5C416.75 312.5 420.625 316.979 420.625 325.938C420.625 327.854 420.479 329.896 420.188 332.062C419.896 334.188 419.375 336.521 418.625 339.062C417.917 341.604 416.771 343.688 415.188 345.312C413.646 346.979 411.771 347.812 409.562 347.812C407.188 347.812 405.167 347.188 403.5 345.938C401.833 344.688 400.521 342.854 399.562 340.438C398.646 338.021 397.979 335.312 397.562 332.312C397.188 329.271 397 325.729 397 321.688C397 317.604 397.5 313.958 398.5 310.75C399.542 307.542 401.104 304.729 403.188 302.312C405.271 299.896 407.604 297.812 410.188 296.062C412.771 294.312 415.896 292.583 419.562 290.875C419.812 291.208 420.083 291.5 420.375 291.75C420.708 291.958 421 292.292 421.25 292.75C421.542 293.208 421.979 294.104 422.562 295.438C421.771 295.896 420.5 296.583 418.75 297.5C417 298.417 415.542 299.208 414.375 299.875C413.208 300.5 411.812 301.396 410.188 302.562C408.604 303.688 407.271 304.812 406.188 305.938C405.146 307.021 404.146 308.396 403.188 310.062C402.271 311.688 401.604 313.417 401.188 315.25ZM415.812 325.562C415.812 322.479 415.104 320.188 413.688 318.688C412.271 317.146 410.375 316.375 408 316.375C405.792 316.375 404 317.333 402.625 319.25C401.25 321.125 400.562 323.417 400.562 326.125C400.562 327.75 400.688 329.479 400.938 331.312C401.229 333.146 401.646 335 402.188 336.875C402.771 338.708 403.583 340.229 404.625 341.438C405.708 342.646 406.917 343.25 408.25 343.25C413.292 343.25 415.812 337.354 415.812 325.562ZM447.812 312.562L448.75 346.125C448.333 347.375 447.625 348 446.625 348C445.917 348 445.208 347.708 444.5 347.125C443.833 346.542 443.417 345.833 443.25 345L443.875 331.438C442.125 332.562 440.312 333.146 438.438 333.188C436.854 338.396 434.854 342.208 432.438 344.625C430.062 347.042 426.25 348.979 421 350.438L420 347.75C427.792 345.792 432.229 340.646 433.312 332.312C431.312 331.479 429.646 330.208 428.312 328.5C427.021 326.792 426.375 324.833 426.375 322.625C426.375 318.208 427.5 315.271 429.75 313.812C432 312.354 435.562 311.625 440.438 311.625C442.979 311.625 445.438 311.938 447.812 312.562ZM444.375 326.188L444.062 316.312C442.604 315.854 440.458 315.625 437.625 315.625C435.625 315.625 433.917 316.083 432.5 317C431.083 317.875 430.375 319.312 430.375 321.312C430.375 323.562 431.271 325.5 433.062 327.125C434.854 328.708 436.812 329.5 438.938 329.5C441.438 329.5 443.25 328.396 444.375 326.188ZM490.438 313.312L493.25 313.938L494.688 344.25C494.312 345.5 493.583 346.125 492.5 346.125C491.75 346.125 491.021 345.812 490.312 345.188C489.604 344.604 489.167 343.875 489 343C489 342.875 489.188 339.354 489.562 332.438V331.938C488.396 331.854 486.667 331.812 484.375 331.812C480.917 331.812 478.312 331.708 476.562 331.5C476.771 333.917 477.042 337.812 477.375 343.188C477 344.479 476.271 345.125 475.188 345.125C474.438 345.125 473.708 344.833 473 344.25C472.333 343.625 471.917 342.875 471.75 342C471.875 339.917 471.938 337.833 471.938 335.75C471.938 334.417 471.917 332.417 471.875 329.75C471.833 327.083 471.812 325.104 471.812 323.812C471.812 319.812 471.938 316.458 472.188 313.75L475 314.438C475.833 323.479 476.271 328.125 476.312 328.375C483.438 328.75 487.104 328.938 487.312 328.938C489.021 328.938 489.875 328.833 489.875 328.625C489.875 327.792 489.958 325.146 490.125 320.688C490.292 316.229 490.396 313.771 490.438 313.312ZM524.938 338.938L525.562 341.688C523.729 342.354 521 343.104 517.375 343.938C513.792 344.729 511.125 345.125 509.375 345.125C507.583 345.125 506.021 344.542 504.688 343.375C503.354 342.167 502.354 340.646 501.688 338.812C501.021 336.938 500.521 335.104 500.188 333.312C499.896 331.479 499.75 329.688 499.75 327.938C499.75 317.521 504.458 312.312 513.875 312.312C516.125 312.312 518.104 313.042 519.812 314.5C521.521 315.917 522.375 317.771 522.375 320.062C522.375 321.312 522.021 322.417 521.312 323.375C520.646 324.333 519.812 325.104 518.812 325.688C517.854 326.229 516.604 326.729 515.062 327.188C513.562 327.646 512.229 327.979 511.062 328.188C509.896 328.396 508.5 328.625 506.875 328.875C505.25 329.125 504.125 329.312 503.5 329.438C503.542 330.646 503.604 331.708 503.688 332.625C503.812 333.542 504.021 334.542 504.312 335.625C504.646 336.667 505.062 337.542 505.562 338.25C506.104 338.917 506.833 339.479 507.75 339.938C508.667 340.396 509.75 340.625 511 340.625C512.5 340.625 514.333 340.5 516.5 340.25C518.667 339.958 520.583 339.667 522.25 339.375C523.958 339.083 524.854 338.938 524.938 338.938ZM503.75 325.562C509.417 323.938 514.062 322.229 517.688 320.438C517.396 319.062 517 318.062 516.5 317.438C516 316.812 515.25 316.5 514.25 316.5C511.708 316.5 509.396 317.375 507.312 319.125C505.271 320.875 504.083 323.021 503.75 325.562ZM543.938 316.312L543.375 313.562C548.958 313.229 557.75 312.771 569.75 312.188C570.75 312.229 571.604 312.604 572.312 313.312C573.021 314.021 573.375 314.771 573.375 315.562C573.375 316.812 572.542 317.521 570.875 317.688L559.188 317.125C559.396 320.25 559.5 324.812 559.5 330.812C559.542 336.771 559.625 341.125 559.75 343.875C559.375 345.083 558.646 345.688 557.562 345.688C556.854 345.688 556.167 345.396 555.5 344.812C554.833 344.229 554.417 343.521 554.25 342.688C554.833 332.438 555.438 323.833 556.062 316.875L543.938 316.312ZM578.188 318L576.938 314.812C578.021 313.729 579.396 312.875 581.062 312.25C582.729 311.583 584.375 311.25 586 311.25C593.042 311.25 596.562 317.333 596.562 329.5C596.562 331.167 596.458 333.625 596.25 336.875C596.083 340.125 596 342.562 596 344.188C595.667 345.479 595.021 346.125 594.062 346.125C593.312 346.125 592.625 345.75 592 345C591.375 344.25 591.062 343.417 591.062 342.5C591.062 342.208 591.083 342 591.125 341.875C588.542 344.375 585.792 345.625 582.875 345.625C580.667 345.625 578.729 344.833 577.062 343.25C575.438 341.625 574.625 339.667 574.625 337.375C574.625 333.5 576.125 330 579.125 326.875C582.167 323.75 585.604 322.188 589.438 322.188C589.604 322.188 589.771 322.208 589.938 322.25C590.104 322.25 590.292 322.271 590.5 322.312C590.75 322.354 590.938 322.375 591.062 322.375C590.729 317.5 588.792 315.062 585.25 315.062C583.167 315.062 580.812 316.042 578.188 318ZM591.25 337.562C591.333 334.646 591.375 332.438 591.375 330.938C591.375 329.688 591.333 327.938 591.25 325.688H590.75C587.792 325.729 585.083 326.833 582.625 329C580.208 331.167 579 333.792 579 336.875C579 338.208 579.396 339.271 580.188 340.062C581.021 340.854 582.021 341.25 583.188 341.25C585.021 341.25 587.708 340.021 591.25 337.562ZM624 343.438L624.188 346.188C623.188 346.438 622.479 346.562 622.062 346.562C620.479 346.562 619.042 346.042 617.75 345C616.458 343.958 615.396 342.688 614.562 341.188C613.729 339.688 612.938 338.188 612.188 336.688C611.479 335.188 610.708 333.917 609.875 332.875C609.042 331.833 608.188 331.312 607.312 331.312C606.979 331.312 606.667 331.375 606.375 331.5C606.542 334 606.833 338.042 607.25 343.625C606.875 344.917 606.146 345.562 605.062 345.562C604.312 345.562 603.583 345.271 602.875 344.688C602.208 344.062 601.792 343.312 601.625 342.438C601.792 335.438 601.875 328.854 601.875 322.688C601.875 318.146 602.062 314.542 602.438 311.875L605.25 312.875C605.583 314.5 605.771 316.833 605.812 319.875C605.854 322.875 605.896 324.729 605.938 325.438C607.188 325.229 608.271 324.583 609.188 323.5C610.146 322.417 610.917 321.188 611.5 319.812C612.125 318.438 612.771 317.083 613.438 315.75C614.104 314.417 614.958 313.292 616 312.375C617.083 311.458 618.354 311 619.812 311C620.562 311 621.729 311.25 623.312 311.75L623.062 313.875C622.812 313.833 622.479 313.812 622.062 313.812C620.396 313.812 618.938 314.521 617.688 315.938C616.479 317.312 615.562 318.854 614.938 320.562C614.354 322.229 613.604 323.833 612.688 325.375C611.771 326.917 610.771 327.812 609.688 328.062C611.229 328.438 612.542 329.479 613.625 331.188C614.75 332.896 615.583 334.667 616.125 336.5C616.708 338.292 617.542 339.938 618.625 341.438C619.708 342.896 621.042 343.625 622.625 343.625C623.042 343.625 623.5 343.562 624 343.438ZM669.125 314.188L673.375 313.812C675.458 319.438 677.583 329.917 679.75 345.25C679.042 345.417 678.333 345.5 677.625 345.5C677 345.5 676.271 345.396 675.438 345.188C674.854 342.896 674.146 338.854 673.312 333.062C672.521 327.271 671.812 323.167 671.188 320.75C669.146 324.083 666.396 330.208 662.938 339.125C662.646 339.167 662.125 339.25 661.375 339.375C660.667 339.5 660.125 339.562 659.75 339.562C659.292 339.562 658.75 339.5 658.125 339.375C657.458 337.667 656.458 334.938 655.125 331.188C653.833 327.396 652.792 324.542 652 322.625C648 332.875 645.5 340.458 644.5 345.375L642.062 344.688C642.271 341.521 643.417 336 645.5 328.125C647.583 320.208 648.833 315.167 649.25 313C649.75 313 650.312 313.062 650.938 313.188C651.604 313.271 652.104 313.312 652.438 313.312C653.521 315.188 655 318.792 656.875 324.125C658.75 329.417 660 332.729 660.625 334.062C663.792 325.062 666.625 318.438 669.125 314.188ZM701 313.312L703.812 313.938L705.25 344.25C704.875 345.5 704.146 346.125 703.062 346.125C702.312 346.125 701.583 345.812 700.875 345.188C700.167 344.604 699.729 343.875 699.562 343C699.562 342.875 699.75 339.354 700.125 332.438V331.938C698.958 331.854 697.229 331.812 694.938 331.812C691.479 331.812 688.875 331.708 687.125 331.5C687.333 333.917 687.604 337.812 687.938 343.188C687.562 344.479 686.833 345.125 685.75 345.125C685 345.125 684.271 344.833 683.562 344.25C682.896 343.625 682.479 342.875 682.312 342C682.438 339.917 682.5 337.833 682.5 335.75C682.5 334.417 682.479 332.417 682.438 329.75C682.396 327.083 682.375 325.104 682.375 323.812C682.375 319.812 682.5 316.458 682.75 313.75L685.562 314.438C686.396 323.479 686.833 328.125 686.875 328.375C694 328.75 697.667 328.938 697.875 328.938C699.583 328.938 700.438 328.833 700.438 328.625C700.438 327.792 700.521 325.146 700.688 320.688C700.854 316.229 700.958 313.771 701 313.312ZM710.312 331.688C710.312 330.021 710.479 328.167 710.812 326.125C711.188 324.083 711.729 321.938 712.438 319.688C713.146 317.438 714.208 315.562 715.625 314.062C717.042 312.562 718.688 311.812 720.562 311.812C724.562 311.812 727.771 313.625 730.188 317.25C732.604 320.833 733.812 324.833 733.812 329.25C733.812 331.125 733.604 333 733.188 334.875C732.812 336.708 732.208 338.521 731.375 340.312C730.542 342.104 729.333 343.604 727.75 344.812C726.208 345.979 724.396 346.646 722.312 346.812C718.479 346.312 715.521 344.688 713.438 341.938C711.354 339.146 710.312 335.729 710.312 331.688ZM720.938 315.062C719.479 315.229 718.25 316.562 717.25 319.062C716.25 321.562 715.604 324 715.312 326.375C715.021 328.708 714.875 330.771 714.875 332.562C714.875 334.896 715.583 337.062 717 339.062C718.458 341.021 720.083 342 721.875 342C723.167 342 724.333 341.5 725.375 340.5C726.417 339.5 727.229 338.271 727.812 336.812C728.438 335.312 728.896 333.812 729.188 332.312C729.521 330.812 729.688 329.479 729.688 328.312C729.688 324.896 728.917 321.917 727.375 319.375C725.833 316.833 723.688 315.396 720.938 315.062ZM740.125 312.938C741.917 312.771 744.625 312.5 748.25 312.125C751.875 311.708 754.438 311.438 755.938 311.312C756.979 311.354 757.854 311.75 758.562 312.5C759.312 313.208 759.688 313.979 759.688 314.812C759.688 316.062 758.854 316.771 757.188 316.938C755.646 316.812 753.312 316.604 750.188 316.312C747.062 316.021 744.688 315.812 743.062 315.688C743.104 318.229 743.354 322.354 743.812 328.062C744.271 333.771 744.5 338.125 744.5 341.125C744.5 343.708 743.479 345 741.438 345C739.729 345 738.875 343.833 738.875 341.5C738.875 338.75 738.938 335.812 739.062 332.688C739.188 329.521 739.375 325.917 739.625 321.875C739.875 317.792 740.042 314.812 740.125 312.938ZM759.438 331.688C759.438 330.021 759.604 328.167 759.938 326.125C760.312 324.083 760.854 321.938 761.562 319.688C762.271 317.438 763.333 315.562 764.75 314.062C766.167 312.562 767.812 311.812 769.688 311.812C773.688 311.812 776.896 313.625 779.312 317.25C781.729 320.833 782.938 324.833 782.938 329.25C782.938 331.125 782.729 333 782.312 334.875C781.938 336.708 781.333 338.521 780.5 340.312C779.667 342.104 778.458 343.604 776.875 344.812C775.333 345.979 773.521 346.646 771.438 346.812C767.604 346.312 764.646 344.688 762.562 341.938C760.479 339.146 759.438 335.729 759.438 331.688ZM770.062 315.062C768.604 315.229 767.375 316.562 766.375 319.062C765.375 321.562 764.729 324 764.438 326.375C764.146 328.708 764 330.771 764 332.562C764 334.896 764.708 337.062 766.125 339.062C767.583 341.021 769.208 342 771 342C772.292 342 773.458 341.5 774.5 340.5C775.542 339.5 776.354 338.271 776.938 336.812C777.562 335.312 778.021 333.812 778.312 332.312C778.646 330.812 778.812 329.479 778.812 328.312C778.812 324.896 778.042 321.917 776.5 319.375C774.958 316.833 772.812 315.396 770.062 315.062ZM807.25 312.938C813.708 311.562 817.646 310.875 819.062 310.875C824.646 310.875 827.438 313.271 827.438 318.062C827.438 319.729 827.146 321.354 826.562 322.938C826.021 324.479 825.333 325.5 824.5 326C827.75 328.208 829.375 331.25 829.375 335.125C829.375 338.792 828.167 341.646 825.75 343.688C823.375 345.729 820.229 346.75 816.312 346.75C811.646 346.75 808.167 345.5 805.875 343L807.25 312.938ZM810.812 328.625L811.375 341.312C812.417 341.812 813.604 342.062 814.938 342.062C817.521 342.062 819.896 341.25 822.062 339.625C824.229 338 825.312 336.104 825.312 333.938C825.312 332.438 824.729 331.062 823.562 329.812C822.396 328.521 820.917 327.875 819.125 327.875C818.083 327.875 815.312 328.125 810.812 328.625ZM810.188 315.75L810.625 325.375C811.25 325.292 812.208 325.229 813.5 325.188C814.792 325.146 815.833 325.062 816.625 324.938C817.417 324.771 818.292 324.458 819.25 324C820.208 323.5 820.958 322.646 821.5 321.438C822.083 320.229 822.479 318.646 822.688 316.688C822.271 315.438 821 314.812 818.875 314.812C817.917 314.812 816.417 314.958 814.375 315.25C812.333 315.542 810.938 315.708 810.188 315.75ZM835.188 312.125L838.688 312.75C838.688 313.625 838.708 314.271 838.75 314.688C841.042 313.229 843.354 312.5 845.688 312.5C849.479 312.5 852.438 314.125 854.562 317.375C856.688 320.625 857.75 324.312 857.75 328.438C857.75 330.521 857.583 332.521 857.25 334.438C856.958 336.312 856.417 338.25 855.625 340.25C854.833 342.208 853.604 343.792 851.938 345C850.312 346.167 848.333 346.75 846 346.75C843.792 346.75 841.667 346.167 839.625 345C839.792 352.292 839.938 357.708 840.062 361.25C839.688 362.542 838.958 363.188 837.875 363.188C837.125 363.188 836.396 362.875 835.688 362.25C835.021 361.667 834.604 360.938 834.438 360.062L835.188 312.125ZM839.25 318.75L839.438 338.938C839.938 339.938 840.708 340.75 841.75 341.375C842.792 341.958 843.938 342.25 845.188 342.25C846.812 342.25 848.188 341.729 849.312 340.688C850.479 339.646 851.292 338.271 851.75 336.562C852.25 334.812 852.583 333.188 852.75 331.688C852.958 330.188 853.062 328.604 853.062 326.938C853.062 319.854 850.667 316.312 845.875 316.312C844.333 316.312 842.896 316.542 841.562 317C840.271 317.417 839.5 318 839.25 318.75ZM888 338.938L888.625 341.688C886.792 342.354 884.062 343.104 880.438 343.938C876.854 344.729 874.188 345.125 872.438 345.125C870.646 345.125 869.083 344.542 867.75 343.375C866.417 342.167 865.417 340.646 864.75 338.812C864.083 336.938 863.583 335.104 863.25 333.312C862.958 331.479 862.812 329.688 862.812 327.938C862.812 317.521 867.521 312.312 876.938 312.312C879.188 312.312 881.167 313.042 882.875 314.5C884.583 315.917 885.438 317.771 885.438 320.062C885.438 321.312 885.083 322.417 884.375 323.375C883.708 324.333 882.875 325.104 881.875 325.688C880.917 326.229 879.667 326.729 878.125 327.188C876.625 327.646 875.292 327.979 874.125 328.188C872.958 328.396 871.562 328.625 869.938 328.875C868.312 329.125 867.188 329.312 866.562 329.438C866.604 330.646 866.667 331.708 866.75 332.625C866.875 333.542 867.083 334.542 867.375 335.625C867.708 336.667 868.125 337.542 868.625 338.25C869.167 338.917 869.896 339.479 870.812 339.938C871.729 340.396 872.812 340.625 874.062 340.625C875.562 340.625 877.396 340.5 879.562 340.25C881.729 339.958 883.646 339.667 885.312 339.375C887.021 339.083 887.917 338.938 888 338.938ZM866.812 325.562C872.479 323.938 877.125 322.229 880.75 320.438C880.458 319.062 880.062 318.062 879.562 317.438C879.062 316.812 878.312 316.5 877.312 316.5C874.771 316.5 872.458 317.375 870.375 319.125C868.333 320.875 867.146 323.021 866.812 325.562ZM915.625 314.188L919.875 313.812C921.958 319.438 924.083 329.917 926.25 345.25C925.542 345.417 924.833 345.5 924.125 345.5C923.5 345.5 922.771 345.396 921.938 345.188C921.354 342.896 920.646 338.854 919.812 333.062C919.021 327.271 918.312 323.167 917.688 320.75C915.646 324.083 912.896 330.208 909.438 339.125C909.146 339.167 908.625 339.25 907.875 339.375C907.167 339.5 906.625 339.562 906.25 339.562C905.792 339.562 905.25 339.5 904.625 339.375C903.958 337.667 902.958 334.938 901.625 331.188C900.333 327.396 899.292 324.542 898.5 322.625C894.5 332.875 892 340.458 891 345.375L888.562 344.688C888.771 341.521 889.917 336 892 328.125C894.083 320.208 895.333 315.167 895.75 313C896.25 313 896.812 313.062 897.438 313.188C898.104 313.271 898.604 313.312 898.938 313.312C900.021 315.188 901.5 318.792 903.375 324.125C905.25 329.417 906.5 332.729 907.125 334.062C910.292 325.062 913.125 318.438 915.625 314.188ZM954 338.938L954.625 341.688C952.792 342.354 950.062 343.104 946.438 343.938C942.854 344.729 940.188 345.125 938.438 345.125C936.646 345.125 935.083 344.542 933.75 343.375C932.417 342.167 931.417 340.646 930.75 338.812C930.083 336.938 929.583 335.104 929.25 333.312C928.958 331.479 928.812 329.688 928.812 327.938C928.812 317.521 933.521 312.312 942.938 312.312C945.188 312.312 947.167 313.042 948.875 314.5C950.583 315.917 951.438 317.771 951.438 320.062C951.438 321.312 951.083 322.417 950.375 323.375C949.708 324.333 948.875 325.104 947.875 325.688C946.917 326.229 945.667 326.729 944.125 327.188C942.625 327.646 941.292 327.979 940.125 328.188C938.958 328.396 937.562 328.625 935.938 328.875C934.312 329.125 933.188 329.312 932.562 329.438C932.604 330.646 932.667 331.708 932.75 332.625C932.875 333.542 933.083 334.542 933.375 335.625C933.708 336.667 934.125 337.542 934.625 338.25C935.167 338.917 935.896 339.479 936.812 339.938C937.729 340.396 938.812 340.625 940.062 340.625C941.562 340.625 943.396 340.5 945.562 340.25C947.729 339.958 949.646 339.667 951.312 339.375C953.021 339.083 953.917 338.938 954 338.938ZM932.812 325.562C938.479 323.938 943.125 322.229 946.75 320.438C946.458 319.062 946.062 318.062 945.562 317.438C945.062 316.812 944.312 316.5 943.312 316.5C940.771 316.5 938.458 317.375 936.375 319.125C934.333 320.875 933.146 323.021 932.812 325.562ZM975.812 313.312L978.625 313.938L980.062 344.25C979.688 345.5 978.958 346.125 977.875 346.125C977.125 346.125 976.396 345.812 975.688 345.188C974.979 344.604 974.542 343.875 974.375 343C974.375 342.875 974.562 339.354 974.938 332.438V331.938C973.771 331.854 972.042 331.812 969.75 331.812C966.292 331.812 963.688 331.708 961.938 331.5C962.146 333.917 962.417 337.812 962.75 343.188C962.375 344.479 961.646 345.125 960.562 345.125C959.812 345.125 959.083 344.833 958.375 344.25C957.708 343.625 957.292 342.875 957.125 342C957.25 339.917 957.312 337.833 957.312 335.75C957.312 334.417 957.292 332.417 957.25 329.75C957.208 327.083 957.188 325.104 957.188 323.812C957.188 319.812 957.312 316.458 957.562 313.75L960.375 314.438C961.208 323.479 961.646 328.125 961.688 328.375C968.812 328.75 972.479 328.938 972.688 328.938C974.396 328.938 975.25 328.833 975.25 328.625C975.25 327.792 975.333 325.146 975.5 320.688C975.667 316.229 975.771 313.771 975.812 313.312ZM990.625 339.812C990.625 340.521 990.667 341.458 990.75 342.625C990.375 343.917 989.646 344.562 988.562 344.562C987.812 344.562 987.083 344.271 986.375 343.688C985.708 343.062 985.292 342.312 985.125 341.438C985.25 338.062 985.396 333.125 985.562 326.625C985.771 320.125 985.917 315.729 986 313.438L988.875 312.938C989.375 315.604 989.688 319.146 989.812 323.562C989.938 327.979 990.104 331.271 990.312 333.438C991.104 332.271 993.354 329.229 997.062 324.312C1000.77 319.396 1003.29 315.729 1004.62 313.312C1005.54 313.146 1006.12 313.062 1006.38 313.062C1007.17 313.062 1007.71 313.417 1008 314.125C1008.33 314.833 1008.54 316.167 1008.62 318.125L1009.81 343.875C1009.44 345.125 1008.71 345.75 1007.62 345.75C1006.88 345.75 1006.15 345.458 1005.44 344.875C1004.77 344.25 1004.35 343.5 1004.19 342.625C1004.23 341.25 1004.33 337.896 1004.5 332.562C1004.71 327.188 1004.88 323.375 1005 321.125C997.875 329.25 993.083 335.479 990.625 339.812ZM1019.38 334.25L1016.56 333.625C1016.35 330.875 1015.81 319.958 1014.94 300.875C1015.1 299.25 1015.83 298.438 1017.12 298.438C1017.96 298.438 1018.73 298.792 1019.44 299.5C1020.15 300.208 1020.52 301.083 1020.56 302.125C1020.44 304.375 1020.29 309.271 1020.12 316.812C1019.96 324.354 1019.71 330.167 1019.38 334.25ZM1017.5 337.75C1018.62 337.75 1019.56 338.25 1020.31 339.25C1021.06 340.208 1021.44 341.312 1021.44 342.562C1021.44 343.479 1021.21 344.229 1020.75 344.812C1020.33 345.354 1019.75 345.625 1019 345.625C1017.83 345.625 1016.92 345.146 1016.25 344.188C1015.58 343.229 1015.25 342.104 1015.25 340.812C1015.25 339.896 1015.44 339.167 1015.81 338.625C1016.23 338.042 1016.79 337.75 1017.5 337.75Z" fill="white"/>
</svg>
