<svg width="1086" height="534" viewBox="0 0 1086 534" fill="none" xmlns="http://www.w3.org/2000/svg">
<rect width="1086" height="534" fill="black"/>
<path d="M956.594 500.766V496.625C957.844 496.469 959.38 496.208 961.203 495.844C963.078 495.479 964.536 495.219 965.578 495.062C965.734 491.312 965.812 487.536 965.812 483.734C965.812 481.339 965.786 477.745 965.734 472.953C965.682 468.109 965.656 464.464 965.656 462.016C965.656 456.234 965.734 451.859 965.891 448.891C961.151 451.599 957.688 453.786 955.5 455.453L953 452.875C953.833 452.198 955.266 451.026 957.297 449.359C959.328 447.641 961.151 446.104 962.766 444.75C964.38 443.344 965.63 442.198 966.516 441.312C967.349 441.417 968.208 441.495 969.094 441.547C969.979 441.547 970.839 441.599 971.672 441.703C971.984 447.745 972.141 458.812 972.141 474.906C972.141 484.49 972.219 491.365 972.375 495.531C972.844 495.583 973.964 495.792 975.734 496.156C977.557 496.469 978.964 496.677 979.953 496.781L981.203 500.922C978.599 500.922 976.333 500.922 974.406 500.922C972.479 500.922 969.901 500.922 966.672 500.922C963.495 500.922 960.995 500.922 959.172 500.922C957.401 500.87 956.542 500.818 956.594 500.766ZM1013.62 434.906L1017.14 436.234C1015.16 443.005 1010.27 454.932 1002.45 472.016C994.693 489.047 989.797 500.974 987.766 507.797C987.036 508.682 986.125 509.125 985.031 509.125C983.99 509.125 983.078 508.708 982.297 507.875C981.568 507.094 981.203 506.156 981.203 505.062C981.203 502.771 983.573 496.729 988.312 486.938C993.104 477.146 998.234 466.859 1003.7 456.078C1009.22 445.297 1012.53 438.24 1013.62 434.906ZM1046.36 495.609L1048.78 500.766C1044.88 500.87 1038.76 500.948 1030.42 501C1022.09 501 1017.66 501 1017.14 501C1017.14 500.583 1017.11 499.854 1017.06 498.812C1017.06 497.771 1017.06 496.938 1017.06 496.312C1018.05 494.594 1019.69 492.536 1021.98 490.141C1024.28 487.693 1026.57 485.323 1028.86 483.031C1031.15 480.688 1033.39 478.135 1035.58 475.375C1037.82 472.615 1039.64 469.542 1041.05 466.156C1042.45 462.719 1043.16 459.203 1043.16 455.609C1043.16 453.318 1042.35 451.469 1040.73 450.062C1039.12 448.604 1037.17 447.875 1034.88 447.875C1032.22 447.875 1029.74 448.969 1027.45 451.156C1025.21 453.292 1023.65 456.573 1022.77 461L1019.25 459.75C1019.46 454.698 1021.1 450.766 1024.17 447.953C1027.3 445.141 1030.89 443.734 1034.95 443.734C1038.6 443.734 1041.72 444.88 1044.33 447.172C1046.93 449.464 1048.23 452.667 1048.23 456.781C1048.23 460.167 1047.71 463.474 1046.67 466.703C1045.63 469.88 1044.12 472.875 1042.14 475.688C1040.16 478.5 1038.31 480.922 1036.59 482.953C1034.88 484.932 1032.71 487.25 1030.11 489.906C1027.56 492.51 1025.76 494.385 1024.72 495.531C1026.49 495.635 1028 495.688 1029.25 495.688C1030.55 495.688 1032.58 495.661 1035.34 495.609C1038.1 495.505 1040.16 495.453 1041.52 495.453C1042.77 495.453 1044.38 495.505 1046.36 495.609Z" fill="white"/>
<path d="M123.828 195.029H147.822C148.643 201.455 149.144 210.387 149.326 221.826C149.554 233.219 149.782 240.762 150.01 244.453C149.6 245.866 148.802 246.572 147.617 246.572C146.797 246.572 145.999 246.23 145.225 245.547C144.495 244.863 144.04 244.043 143.857 243.086C143.857 239.395 143.743 231.898 143.516 220.596C143.288 209.248 143.174 202.344 143.174 199.883C142.171 199.883 140.531 199.951 138.252 200.088C136.019 200.225 134.219 200.293 132.852 200.293C130.664 200.293 128.978 200.247 127.793 200.156C127.793 200.293 127.952 206.969 128.271 220.186C128.636 233.402 128.864 241.491 128.955 244.453C128.545 245.866 127.747 246.572 126.562 246.572C125.742 246.572 124.945 246.23 124.17 245.547C123.441 244.863 122.985 244.043 122.803 243.086C122.939 239.167 123.053 231.556 123.145 220.254C123.281 208.952 123.509 200.544 123.828 195.029ZM155.615 230.439C155.615 228.617 155.798 226.589 156.162 224.355C156.572 222.122 157.165 219.775 157.939 217.314C158.714 214.854 159.876 212.803 161.426 211.162C162.975 209.521 164.775 208.701 166.826 208.701C171.201 208.701 174.71 210.684 177.354 214.648C179.997 218.568 181.318 222.943 181.318 227.773C181.318 229.824 181.09 231.875 180.635 233.926C180.225 235.931 179.564 237.913 178.652 239.873C177.741 241.833 176.419 243.473 174.688 244.795C173.001 246.071 171.019 246.8 168.74 246.982C164.548 246.436 161.312 244.658 159.033 241.65C156.755 238.597 155.615 234.86 155.615 230.439ZM167.236 212.256C165.641 212.438 164.297 213.896 163.203 216.631C162.109 219.365 161.403 222.031 161.084 224.629C160.765 227.181 160.605 229.437 160.605 231.396C160.605 233.949 161.38 236.318 162.93 238.506C164.525 240.648 166.302 241.719 168.262 241.719C169.674 241.719 170.951 241.172 172.09 240.078C173.229 238.984 174.118 237.64 174.756 236.045C175.439 234.404 175.941 232.764 176.26 231.123C176.624 229.482 176.807 228.024 176.807 226.748C176.807 223.011 175.964 219.753 174.277 216.973C172.591 214.193 170.244 212.62 167.236 212.256ZM213.652 211.299L218.301 210.889C220.579 217.041 222.904 228.503 225.273 245.273C224.499 245.456 223.724 245.547 222.949 245.547C222.266 245.547 221.468 245.433 220.557 245.205C219.919 242.699 219.144 238.278 218.232 231.943C217.367 225.609 216.592 221.12 215.908 218.477C213.675 222.122 210.667 228.822 206.885 238.574C206.566 238.62 205.996 238.711 205.176 238.848C204.401 238.984 203.809 239.053 203.398 239.053C202.897 239.053 202.305 238.984 201.621 238.848C200.892 236.979 199.798 233.994 198.34 229.893C196.927 225.745 195.788 222.624 194.922 220.527C190.547 231.738 187.812 240.033 186.719 245.41L184.053 244.658C184.281 241.195 185.534 235.156 187.812 226.543C190.091 217.884 191.458 212.37 191.914 210C192.461 210 193.076 210.068 193.76 210.205C194.489 210.296 195.036 210.342 195.4 210.342C196.585 212.393 198.203 216.335 200.254 222.168C202.305 227.956 203.672 231.579 204.355 233.037C207.819 223.193 210.918 215.947 213.652 211.299ZM228.076 230.439C228.076 228.617 228.258 226.589 228.623 224.355C229.033 222.122 229.626 219.775 230.4 217.314C231.175 214.854 232.337 212.803 233.887 211.162C235.436 209.521 237.236 208.701 239.287 208.701C243.662 208.701 247.171 210.684 249.814 214.648C252.458 218.568 253.779 222.943 253.779 227.773C253.779 229.824 253.551 231.875 253.096 233.926C252.686 235.931 252.025 237.913 251.113 239.873C250.202 241.833 248.88 243.473 247.148 244.795C245.462 246.071 243.48 246.8 241.201 246.982C237.008 246.436 233.773 244.658 231.494 241.65C229.215 238.597 228.076 234.86 228.076 230.439ZM239.697 212.256C238.102 212.438 236.758 213.896 235.664 216.631C234.57 219.365 233.864 222.031 233.545 224.629C233.226 227.181 233.066 229.437 233.066 231.396C233.066 233.949 233.841 236.318 235.391 238.506C236.986 240.648 238.763 241.719 240.723 241.719C242.135 241.719 243.411 241.172 244.551 240.078C245.69 238.984 246.579 237.64 247.217 236.045C247.9 234.404 248.402 232.764 248.721 231.123C249.085 229.482 249.268 228.024 249.268 226.748C249.268 223.011 248.424 219.753 246.738 216.973C245.052 214.193 242.705 212.62 239.697 212.256ZM260.684 209.932C262.643 209.749 265.605 209.453 269.57 209.043C273.535 208.587 276.338 208.291 277.979 208.154C279.118 208.2 280.075 208.633 280.85 209.453C281.67 210.228 282.08 211.071 282.08 211.982C282.08 213.35 281.169 214.124 279.346 214.307C277.66 214.17 275.107 213.942 271.689 213.623C268.271 213.304 265.674 213.076 263.896 212.939C263.942 215.719 264.215 220.231 264.717 226.475C265.218 232.718 265.469 237.48 265.469 240.762C265.469 243.587 264.352 245 262.119 245C260.251 245 259.316 243.724 259.316 241.172C259.316 238.164 259.385 234.951 259.521 231.533C259.658 228.07 259.863 224.128 260.137 219.707C260.41 215.241 260.592 211.982 260.684 209.932ZM290.83 239.326C290.83 240.101 290.876 241.126 290.967 242.402C290.557 243.815 289.759 244.521 288.574 244.521C287.754 244.521 286.956 244.202 286.182 243.564C285.452 242.881 284.997 242.061 284.814 241.104C284.951 237.412 285.111 232.012 285.293 224.902C285.521 217.793 285.68 212.985 285.771 210.479L288.916 209.932C289.463 212.848 289.805 216.722 289.941 221.553C290.078 226.383 290.26 229.984 290.488 232.354C291.354 231.077 293.815 227.751 297.871 222.373C301.927 216.995 304.684 212.985 306.143 210.342C307.145 210.16 307.783 210.068 308.057 210.068C308.923 210.068 309.515 210.456 309.834 211.23C310.199 212.005 310.426 213.464 310.518 215.605L311.816 243.77C311.406 245.137 310.609 245.82 309.424 245.82C308.604 245.82 307.806 245.501 307.031 244.863C306.302 244.18 305.846 243.359 305.664 242.402C305.71 240.898 305.824 237.23 306.006 231.396C306.234 225.518 306.416 221.348 306.553 218.887C298.76 227.773 293.519 234.587 290.83 239.326ZM338.477 209.932C345.54 208.428 349.847 207.676 351.396 207.676C357.503 207.676 360.557 210.296 360.557 215.537C360.557 217.36 360.238 219.137 359.6 220.869C359.007 222.555 358.255 223.672 357.344 224.219C360.898 226.634 362.676 229.961 362.676 234.199C362.676 238.21 361.354 241.331 358.711 243.564C356.113 245.798 352.673 246.914 348.389 246.914C343.285 246.914 339.479 245.547 336.973 242.812L338.477 209.932ZM342.373 227.09L342.988 240.967C344.128 241.514 345.426 241.787 346.885 241.787C349.71 241.787 352.308 240.898 354.678 239.121C357.048 237.344 358.232 235.27 358.232 232.9C358.232 231.26 357.594 229.756 356.318 228.389C355.042 226.976 353.424 226.27 351.465 226.27C350.326 226.27 347.295 226.543 342.373 227.09ZM341.689 213.008L342.168 223.535C342.852 223.444 343.9 223.376 345.312 223.33C346.725 223.285 347.865 223.193 348.73 223.057C349.596 222.874 350.553 222.533 351.602 222.031C352.65 221.484 353.47 220.55 354.062 219.229C354.701 217.907 355.133 216.175 355.361 214.033C354.906 212.666 353.516 211.982 351.191 211.982C350.143 211.982 348.503 212.142 346.27 212.461C344.036 212.78 342.51 212.962 341.689 213.008ZM370.674 215.469L369.307 211.982C370.492 210.798 371.995 209.863 373.818 209.18C375.641 208.451 377.441 208.086 379.219 208.086C386.921 208.086 390.771 214.74 390.771 228.047C390.771 229.87 390.658 232.559 390.43 236.113C390.247 239.668 390.156 242.334 390.156 244.111C389.792 245.524 389.085 246.23 388.037 246.23C387.217 246.23 386.465 245.82 385.781 245C385.098 244.18 384.756 243.268 384.756 242.266C384.756 241.947 384.779 241.719 384.824 241.582C381.999 244.316 378.991 245.684 375.801 245.684C373.385 245.684 371.266 244.818 369.443 243.086C367.666 241.309 366.777 239.167 366.777 236.66C366.777 232.422 368.418 228.594 371.699 225.176C375.026 221.758 378.786 220.049 382.979 220.049C383.161 220.049 383.343 220.072 383.525 220.117C383.708 220.117 383.913 220.14 384.141 220.186C384.414 220.231 384.619 220.254 384.756 220.254C384.391 214.922 382.272 212.256 378.398 212.256C376.12 212.256 373.545 213.327 370.674 215.469ZM384.961 236.865C385.052 233.675 385.098 231.26 385.098 229.619C385.098 228.252 385.052 226.338 384.961 223.877H384.414C381.178 223.923 378.216 225.13 375.527 227.5C372.884 229.87 371.562 232.741 371.562 236.113C371.562 237.572 371.995 238.734 372.861 239.6C373.773 240.465 374.867 240.898 376.143 240.898C378.148 240.898 381.087 239.554 384.961 236.865ZM423.105 211.299L427.754 210.889C430.033 217.041 432.357 228.503 434.727 245.273C433.952 245.456 433.177 245.547 432.402 245.547C431.719 245.547 430.921 245.433 430.01 245.205C429.372 242.699 428.597 238.278 427.686 231.943C426.82 225.609 426.045 221.12 425.361 218.477C423.128 222.122 420.12 228.822 416.338 238.574C416.019 238.62 415.449 238.711 414.629 238.848C413.854 238.984 413.262 239.053 412.852 239.053C412.35 239.053 411.758 238.984 411.074 238.848C410.345 236.979 409.251 233.994 407.793 229.893C406.38 225.745 405.241 222.624 404.375 220.527C400 231.738 397.266 240.033 396.172 245.41L393.506 244.658C393.734 241.195 394.987 235.156 397.266 226.543C399.544 217.884 400.911 212.37 401.367 210C401.914 210 402.529 210.068 403.213 210.205C403.942 210.296 404.489 210.342 404.854 210.342C406.038 212.393 407.656 216.335 409.707 222.168C411.758 227.956 413.125 231.579 413.809 233.037C417.272 223.193 420.371 215.947 423.105 211.299ZM438.008 210.82L461.045 211.025L462.617 244.18C462.207 245.547 461.41 246.23 460.225 246.23C459.404 246.23 458.607 245.889 457.832 245.205C457.057 244.567 456.579 243.77 456.396 242.812C456.442 241.992 456.51 239.417 456.602 235.088C456.738 230.713 456.875 226.543 457.012 222.578C457.148 218.568 457.24 215.97 457.285 214.785C456.009 214.694 454.118 214.648 451.611 214.648C448.193 214.648 445.345 214.512 443.066 214.238C443.203 215.742 443.317 220.596 443.408 228.799C443.499 236.956 443.59 241.696 443.682 243.018C443.271 244.43 442.474 245.137 441.289 245.137C440.469 245.137 439.671 244.818 438.896 244.18C438.167 243.496 437.712 242.676 437.529 241.719C437.666 239.44 437.734 237.161 437.734 234.883C437.734 233.698 437.712 231.738 437.666 229.004C437.62 226.27 437.598 224.105 437.598 222.51C437.598 217.816 437.734 213.919 438.008 210.82ZM474.17 239.326C474.17 240.101 474.215 241.126 474.307 242.402C473.896 243.815 473.099 244.521 471.914 244.521C471.094 244.521 470.296 244.202 469.521 243.564C468.792 242.881 468.337 242.061 468.154 241.104C468.291 237.412 468.451 232.012 468.633 224.902C468.861 217.793 469.02 212.985 469.111 210.479L472.256 209.932C472.803 212.848 473.145 216.722 473.281 221.553C473.418 226.383 473.6 229.984 473.828 232.354C474.694 231.077 477.155 227.751 481.211 222.373C485.267 216.995 488.024 212.985 489.482 210.342C490.485 210.16 491.123 210.068 491.396 210.068C492.262 210.068 492.855 210.456 493.174 211.23C493.538 212.005 493.766 213.464 493.857 215.605L495.156 243.77C494.746 245.137 493.949 245.82 492.764 245.82C491.943 245.82 491.146 245.501 490.371 244.863C489.642 244.18 489.186 243.359 489.004 242.402C489.049 240.898 489.163 237.23 489.346 231.396C489.574 225.518 489.756 221.348 489.893 218.887C482.1 227.773 476.859 234.587 474.17 239.326ZM501.582 209.043L505.41 209.727C505.41 210.684 505.433 211.39 505.479 211.846C507.985 210.251 510.514 209.453 513.066 209.453C517.214 209.453 520.449 211.23 522.773 214.785C525.098 218.34 526.26 222.373 526.26 226.885C526.26 229.163 526.077 231.351 525.713 233.447C525.394 235.498 524.801 237.617 523.936 239.805C523.07 241.947 521.725 243.678 519.902 245C518.125 246.276 515.96 246.914 513.408 246.914C510.993 246.914 508.669 246.276 506.436 245C506.618 252.975 506.777 258.9 506.914 262.773C506.504 264.186 505.706 264.893 504.521 264.893C503.701 264.893 502.904 264.551 502.129 263.867C501.4 263.229 500.944 262.432 500.762 261.475L501.582 209.043ZM506.025 216.289L506.23 238.369C506.777 239.463 507.62 240.352 508.76 241.035C509.899 241.673 511.152 241.992 512.52 241.992C514.297 241.992 515.801 241.423 517.031 240.283C518.307 239.144 519.196 237.64 519.697 235.771C520.244 233.857 520.609 232.08 520.791 230.439C521.019 228.799 521.133 227.067 521.133 225.244C521.133 217.497 518.512 213.623 513.271 213.623C511.585 213.623 510.013 213.874 508.555 214.375C507.142 214.831 506.299 215.469 506.025 216.289ZM536.719 265.234L532.48 262.842C534.349 259.606 537.653 253.454 542.393 244.385C538.701 241.104 535.876 236.136 533.916 229.482C531.956 222.829 530.771 216.175 530.361 209.521L534.326 209.727C534.554 210.82 535.033 213.327 535.762 217.246C536.536 221.12 537.152 223.991 537.607 225.859C538.063 227.728 538.861 230.075 540 232.9C541.185 235.68 542.529 238.027 544.033 239.941C550.368 227.773 553.535 217.793 553.535 210V209.248C555.905 209.613 557.682 210.046 558.867 210.547C558.138 215.332 556.999 220.208 555.449 225.176C553.9 230.143 551.963 235.156 549.639 240.215C547.314 245.228 545.241 249.443 543.418 252.861C541.641 256.279 539.408 260.404 536.719 265.234ZM581.699 210.82L604.736 211.025L606.309 244.18C605.898 245.547 605.101 246.23 603.916 246.23C603.096 246.23 602.298 245.889 601.523 245.205C600.749 244.567 600.27 243.77 600.088 242.812C600.133 241.992 600.202 239.417 600.293 235.088C600.43 230.713 600.566 226.543 600.703 222.578C600.84 218.568 600.931 215.97 600.977 214.785C599.701 214.694 597.809 214.648 595.303 214.648C591.885 214.648 589.036 214.512 586.758 214.238C586.895 215.742 587.008 220.596 587.1 228.799C587.191 236.956 587.282 241.696 587.373 243.018C586.963 244.43 586.165 245.137 584.98 245.137C584.16 245.137 583.363 244.818 582.588 244.18C581.859 243.496 581.403 242.676 581.221 241.719C581.357 239.44 581.426 237.161 581.426 234.883C581.426 233.698 581.403 231.738 581.357 229.004C581.312 226.27 581.289 224.105 581.289 222.51C581.289 217.816 581.426 213.919 581.699 210.82ZM612.666 209.043L616.494 209.727C616.494 210.684 616.517 211.39 616.562 211.846C619.069 210.251 621.598 209.453 624.15 209.453C628.298 209.453 631.533 211.23 633.857 214.785C636.182 218.34 637.344 222.373 637.344 226.885C637.344 229.163 637.161 231.351 636.797 233.447C636.478 235.498 635.885 237.617 635.02 239.805C634.154 241.947 632.809 243.678 630.986 245C629.209 246.276 627.044 246.914 624.492 246.914C622.077 246.914 619.753 246.276 617.52 245C617.702 252.975 617.861 258.9 617.998 262.773C617.588 264.186 616.79 264.893 615.605 264.893C614.785 264.893 613.988 264.551 613.213 263.867C612.484 263.229 612.028 262.432 611.846 261.475L612.666 209.043ZM617.109 216.289L617.314 238.369C617.861 239.463 618.704 240.352 619.844 241.035C620.983 241.673 622.236 241.992 623.604 241.992C625.381 241.992 626.885 241.423 628.115 240.283C629.391 239.144 630.28 237.64 630.781 235.771C631.328 233.857 631.693 232.08 631.875 230.439C632.103 228.799 632.217 227.067 632.217 225.244C632.217 217.497 629.596 213.623 624.355 213.623C622.669 213.623 621.097 213.874 619.639 214.375C618.226 214.831 617.383 215.469 617.109 216.289ZM670.43 238.369L671.113 241.377C669.108 242.106 666.123 242.926 662.158 243.838C658.239 244.704 655.322 245.137 653.408 245.137C651.449 245.137 649.74 244.499 648.281 243.223C646.823 241.901 645.729 240.238 645 238.232C644.271 236.182 643.724 234.176 643.359 232.217C643.04 230.212 642.881 228.252 642.881 226.338C642.881 214.945 648.031 209.248 658.33 209.248C660.791 209.248 662.956 210.046 664.824 211.641C666.693 213.19 667.627 215.218 667.627 217.725C667.627 219.092 667.24 220.299 666.465 221.348C665.736 222.396 664.824 223.239 663.73 223.877C662.682 224.469 661.315 225.016 659.629 225.518C657.988 226.019 656.53 226.383 655.254 226.611C653.978 226.839 652.451 227.09 650.674 227.363C648.896 227.637 647.666 227.842 646.982 227.979C647.028 229.3 647.096 230.462 647.188 231.465C647.324 232.467 647.552 233.561 647.871 234.746C648.236 235.885 648.691 236.842 649.238 237.617C649.831 238.346 650.628 238.962 651.631 239.463C652.633 239.964 653.818 240.215 655.186 240.215C656.826 240.215 658.831 240.078 661.201 239.805C663.571 239.486 665.667 239.167 667.49 238.848C669.359 238.529 670.339 238.369 670.43 238.369ZM647.256 223.74C653.454 221.963 658.535 220.094 662.5 218.135C662.181 216.631 661.748 215.537 661.201 214.854C660.654 214.17 659.834 213.828 658.74 213.828C655.96 213.828 653.431 214.785 651.152 216.699C648.919 218.613 647.62 220.96 647.256 223.74ZM675.352 209.932C682.415 208.428 686.722 207.676 688.271 207.676C694.378 207.676 697.432 210.296 697.432 215.537C697.432 217.36 697.113 219.137 696.475 220.869C695.882 222.555 695.13 223.672 694.219 224.219C697.773 226.634 699.551 229.961 699.551 234.199C699.551 238.21 698.229 241.331 695.586 243.564C692.988 245.798 689.548 246.914 685.264 246.914C680.16 246.914 676.354 245.547 673.848 242.812L675.352 209.932ZM679.248 227.09L679.863 240.967C681.003 241.514 682.301 241.787 683.76 241.787C686.585 241.787 689.183 240.898 691.553 239.121C693.923 237.344 695.107 235.27 695.107 232.9C695.107 231.26 694.469 229.756 693.193 228.389C691.917 226.976 690.299 226.27 688.34 226.27C687.201 226.27 684.17 226.543 679.248 227.09ZM678.564 213.008L679.043 223.535C679.727 223.444 680.775 223.376 682.188 223.33C683.6 223.285 684.74 223.193 685.605 223.057C686.471 222.874 687.428 222.533 688.477 222.031C689.525 221.484 690.345 220.55 690.938 219.229C691.576 217.907 692.008 216.175 692.236 214.033C691.781 212.666 690.391 211.982 688.066 211.982C687.018 211.982 685.378 212.142 683.145 212.461C680.911 212.78 679.385 212.962 678.564 213.008ZM705.908 209.043L709.736 209.727C709.736 210.684 709.759 211.39 709.805 211.846C712.311 210.251 714.84 209.453 717.393 209.453C721.54 209.453 724.775 211.23 727.1 214.785C729.424 218.34 730.586 222.373 730.586 226.885C730.586 229.163 730.404 231.351 730.039 233.447C729.72 235.498 729.128 237.617 728.262 239.805C727.396 241.947 726.051 243.678 724.229 245C722.451 246.276 720.286 246.914 717.734 246.914C715.319 246.914 712.995 246.276 710.762 245C710.944 252.975 711.104 258.9 711.24 262.773C710.83 264.186 710.033 264.893 708.848 264.893C708.027 264.893 707.23 264.551 706.455 263.867C705.726 263.229 705.27 262.432 705.088 261.475L705.908 209.043ZM710.352 216.289L710.557 238.369C711.104 239.463 711.947 240.352 713.086 241.035C714.225 241.673 715.479 241.992 716.846 241.992C718.623 241.992 720.127 241.423 721.357 240.283C722.633 239.144 723.522 237.64 724.023 235.771C724.57 233.857 724.935 232.08 725.117 230.439C725.345 228.799 725.459 227.067 725.459 225.244C725.459 217.497 722.839 213.623 717.598 213.623C715.911 213.623 714.339 213.874 712.881 214.375C711.468 214.831 710.625 215.469 710.352 216.289ZM738.584 215.469L737.217 211.982C738.402 210.798 739.906 209.863 741.729 209.18C743.551 208.451 745.352 208.086 747.129 208.086C754.831 208.086 758.682 214.74 758.682 228.047C758.682 229.87 758.568 232.559 758.34 236.113C758.158 239.668 758.066 242.334 758.066 244.111C757.702 245.524 756.995 246.23 755.947 246.23C755.127 246.23 754.375 245.82 753.691 245C753.008 244.18 752.666 243.268 752.666 242.266C752.666 241.947 752.689 241.719 752.734 241.582C749.909 244.316 746.901 245.684 743.711 245.684C741.296 245.684 739.176 244.818 737.354 243.086C735.576 241.309 734.688 239.167 734.688 236.66C734.688 232.422 736.328 228.594 739.609 225.176C742.936 221.758 746.696 220.049 750.889 220.049C751.071 220.049 751.253 220.072 751.436 220.117C751.618 220.117 751.823 220.14 752.051 220.186C752.324 220.231 752.529 220.254 752.666 220.254C752.301 214.922 750.182 212.256 746.309 212.256C744.03 212.256 741.455 213.327 738.584 215.469ZM752.871 236.865C752.962 233.675 753.008 231.26 753.008 229.619C753.008 228.252 752.962 226.338 752.871 223.877H752.324C749.089 223.923 746.126 225.13 743.438 227.5C740.794 229.87 739.473 232.741 739.473 236.113C739.473 237.572 739.906 238.734 740.771 239.6C741.683 240.465 742.777 240.898 744.053 240.898C746.058 240.898 748.997 239.554 752.871 236.865ZM762.031 213.623L761.416 210.615C767.523 210.251 777.139 209.749 790.264 209.111C791.357 209.157 792.292 209.567 793.066 210.342C793.841 211.117 794.229 211.937 794.229 212.803C794.229 214.17 793.317 214.945 791.494 215.127L778.711 214.512C778.939 217.93 779.053 222.92 779.053 229.482C779.098 235.999 779.189 240.762 779.326 243.77C778.916 245.091 778.118 245.752 776.934 245.752C776.159 245.752 775.407 245.433 774.678 244.795C773.949 244.157 773.493 243.382 773.311 242.471C773.949 231.26 774.609 221.849 775.293 214.238L762.031 213.623ZM803.047 239.326C803.047 240.101 803.092 241.126 803.184 242.402C802.773 243.815 801.976 244.521 800.791 244.521C799.971 244.521 799.173 244.202 798.398 243.564C797.669 242.881 797.214 242.061 797.031 241.104C797.168 237.412 797.327 232.012 797.51 224.902C797.738 217.793 797.897 212.985 797.988 210.479L801.133 209.932C801.68 212.848 802.021 216.722 802.158 221.553C802.295 226.383 802.477 229.984 802.705 232.354C803.571 231.077 806.032 227.751 810.088 222.373C814.144 216.995 816.901 212.985 818.359 210.342C819.362 210.16 820 210.068 820.273 210.068C821.139 210.068 821.732 210.456 822.051 211.23C822.415 212.005 822.643 213.464 822.734 215.605L824.033 243.77C823.623 245.137 822.826 245.82 821.641 245.82C820.82 245.82 820.023 245.501 819.248 244.863C818.519 244.18 818.063 243.359 817.881 242.402C817.926 240.898 818.04 237.23 818.223 231.396C818.451 225.518 818.633 221.348 818.77 218.887C810.977 227.773 805.736 234.587 803.047 239.326ZM827.451 213.623L826.836 210.615C832.943 210.251 842.559 209.749 855.684 209.111C856.777 209.157 857.712 209.567 858.486 210.342C859.261 211.117 859.648 211.937 859.648 212.803C859.648 214.17 858.737 214.945 856.914 215.127L844.131 214.512C844.359 217.93 844.473 222.92 844.473 229.482C844.518 235.999 844.609 240.762 844.746 243.77C844.336 245.091 843.538 245.752 842.354 245.752C841.579 245.752 840.827 245.433 840.098 244.795C839.368 244.157 838.913 243.382 838.73 242.471C839.368 231.26 840.029 221.849 840.713 214.238L827.451 213.623ZM862.656 210.342L865.732 211.025C865.824 212.484 865.96 214.193 866.143 216.152C866.37 218.112 866.621 220.345 866.895 222.852C868.717 222.305 870.449 222.031 872.09 222.031C874.049 222.031 875.872 222.419 877.559 223.193C879.245 223.923 880.68 224.902 881.865 226.133C883.05 227.363 883.984 228.776 884.668 230.371C885.352 231.921 885.693 233.516 885.693 235.156C885.693 236.751 885.352 238.21 884.668 239.531C883.984 240.853 883.073 241.992 881.934 242.949C880.794 243.861 879.473 244.567 877.969 245.068C876.465 245.615 874.87 245.889 873.184 245.889C872.865 245.889 872.158 245.866 871.064 245.82C869.971 245.775 868.809 245.661 867.578 245.479C866.393 245.342 865.322 245.137 864.365 244.863C863.408 244.59 862.907 244.202 862.861 243.701C862.861 242.926 862.839 241.878 862.793 240.557C862.793 239.189 862.77 237.686 862.725 236.045C862.725 234.404 862.702 232.695 862.656 230.918C862.611 229.095 862.565 227.34 862.52 225.654C862.52 223.968 862.497 222.419 862.451 221.006C862.451 219.593 862.451 218.477 862.451 217.656C862.451 215.104 862.52 212.666 862.656 210.342ZM867.51 227.09L866.895 240.83C868.717 241.468 870.449 241.787 872.09 241.787C873.366 241.787 874.528 241.582 875.576 241.172C876.67 240.716 877.581 240.146 878.311 239.463C879.04 238.734 879.609 237.913 880.02 237.002C880.43 236.09 880.635 235.133 880.635 234.131C880.635 233.128 880.43 232.194 880.02 231.328C879.609 230.417 878.994 229.619 878.174 228.936C877.354 228.252 876.351 227.728 875.166 227.363C873.981 226.953 872.637 226.748 871.133 226.748C870.632 226.748 870.085 226.794 869.492 226.885C868.9 226.93 868.239 226.999 867.51 227.09ZM912.9 211.094L912.559 214.033C910.645 213.76 909.004 213.623 907.637 213.623C904.492 213.623 901.895 214.58 899.844 216.494C897.793 218.363 896.38 220.596 895.605 223.193C894.876 225.745 894.512 228.594 894.512 231.738C894.512 233.197 894.603 234.495 894.785 235.635C894.967 236.774 895.286 237.891 895.742 238.984C896.243 240.078 896.995 240.944 897.998 241.582C899.046 242.174 900.322 242.471 901.826 242.471C903.831 242.471 906.383 242.083 909.482 241.309C910.439 240.944 911.191 240.762 911.738 240.762C912.832 240.762 913.493 242.038 913.721 244.59C909.71 245.866 905.996 246.504 902.578 246.504C897.611 246.504 894.238 245.296 892.461 242.881C890.729 240.42 889.863 236.455 889.863 230.986C889.863 227.796 890.068 225.016 890.479 222.646C890.934 220.231 891.709 217.998 892.803 215.947C893.896 213.851 895.469 212.256 897.52 211.162C899.616 210.068 902.168 209.521 905.176 209.521C908.548 209.521 911.123 210.046 912.9 211.094ZM940.654 209.521L941.68 246.23C941.224 247.598 940.449 248.281 939.355 248.281C938.581 248.281 937.806 247.962 937.031 247.324C936.302 246.686 935.846 245.911 935.664 245L936.348 230.166C934.434 231.396 932.451 232.035 930.4 232.08C928.669 237.777 926.481 241.947 923.838 244.59C921.24 247.233 917.07 249.352 911.328 250.947L910.234 248.008C918.757 245.866 923.61 240.238 924.795 231.123C922.607 230.212 920.785 228.822 919.326 226.953C917.913 225.085 917.207 222.943 917.207 220.527C917.207 215.697 918.438 212.484 920.898 210.889C923.359 209.294 927.256 208.496 932.588 208.496C935.368 208.496 938.057 208.838 940.654 209.521ZM936.895 224.424L936.553 213.623C934.958 213.122 932.611 212.871 929.512 212.871C927.324 212.871 925.456 213.372 923.906 214.375C922.357 215.332 921.582 216.904 921.582 219.092C921.582 221.553 922.562 223.672 924.521 225.449C926.481 227.181 928.623 228.047 930.947 228.047C933.682 228.047 935.664 226.839 936.895 224.424ZM124.307 286.932C131.37 285.428 135.677 284.676 137.227 284.676C143.333 284.676 146.387 287.296 146.387 292.537C146.387 294.36 146.068 296.137 145.43 297.869C144.837 299.555 144.085 300.672 143.174 301.219C146.729 303.634 148.506 306.961 148.506 311.199C148.506 315.21 147.184 318.331 144.541 320.564C141.943 322.798 138.503 323.914 134.219 323.914C129.115 323.914 125.309 322.547 122.803 319.812L124.307 286.932ZM128.203 304.09L128.818 317.967C129.958 318.514 131.257 318.787 132.715 318.787C135.54 318.787 138.138 317.898 140.508 316.121C142.878 314.344 144.062 312.27 144.062 309.9C144.062 308.26 143.424 306.756 142.148 305.389C140.872 303.976 139.255 303.27 137.295 303.27C136.156 303.27 133.125 303.543 128.203 304.09ZM127.52 290.008L127.998 300.535C128.682 300.444 129.73 300.376 131.143 300.33C132.555 300.285 133.695 300.193 134.561 300.057C135.426 299.874 136.383 299.533 137.432 299.031C138.48 298.484 139.3 297.55 139.893 296.229C140.531 294.907 140.964 293.175 141.191 291.033C140.736 289.666 139.346 288.982 137.021 288.982C135.973 288.982 134.333 289.142 132.1 289.461C129.867 289.78 128.34 289.962 127.52 290.008ZM191.436 285.701L194.238 284.812C194.74 286.499 195.218 292.833 195.674 303.816C196.175 314.754 196.517 320.633 196.699 321.453C196.289 322.866 195.492 323.572 194.307 323.572C193.486 323.572 192.689 323.23 191.914 322.547C191.185 321.863 190.729 321.043 190.547 320.086C190.638 317.488 190.729 313.546 190.82 308.26C188.451 308.852 186.491 309.148 184.941 309.148C182.572 309.148 180.521 308.67 178.789 307.713C177.057 306.756 175.713 305.434 174.756 303.748C173.844 302.062 173.184 300.285 172.773 298.416C172.363 296.502 172.158 294.451 172.158 292.264C172.158 290.532 172.386 288.253 172.842 285.428L175.918 286.18C175.964 286.772 176.032 287.911 176.123 289.598C176.26 291.238 176.374 292.423 176.465 293.152C176.556 293.882 176.693 294.93 176.875 296.297C177.103 297.618 177.399 298.621 177.764 299.305C178.174 299.943 178.652 300.649 179.199 301.424C179.792 302.199 180.521 302.745 181.387 303.064C182.298 303.383 183.346 303.543 184.531 303.543C186.035 303.543 188.132 303.11 190.82 302.244C190.82 301.059 190.934 298.439 191.162 294.383C191.39 290.281 191.504 287.729 191.504 286.727C191.504 286.134 191.481 285.792 191.436 285.701ZM229.785 315.369L230.469 318.377C228.464 319.106 225.479 319.926 221.514 320.838C217.594 321.704 214.678 322.137 212.764 322.137C210.804 322.137 209.095 321.499 207.637 320.223C206.178 318.901 205.085 317.238 204.355 315.232C203.626 313.182 203.079 311.176 202.715 309.217C202.396 307.212 202.236 305.252 202.236 303.338C202.236 291.945 207.386 286.248 217.686 286.248C220.146 286.248 222.311 287.046 224.18 288.641C226.048 290.19 226.982 292.218 226.982 294.725C226.982 296.092 226.595 297.299 225.82 298.348C225.091 299.396 224.18 300.239 223.086 300.877C222.038 301.469 220.671 302.016 218.984 302.518C217.344 303.019 215.885 303.383 214.609 303.611C213.333 303.839 211.807 304.09 210.029 304.363C208.252 304.637 207.021 304.842 206.338 304.979C206.383 306.3 206.452 307.462 206.543 308.465C206.68 309.467 206.908 310.561 207.227 311.746C207.591 312.885 208.047 313.842 208.594 314.617C209.186 315.346 209.984 315.962 210.986 316.463C211.989 316.964 213.174 317.215 214.541 317.215C216.182 317.215 218.187 317.078 220.557 316.805C222.926 316.486 225.023 316.167 226.846 315.848C228.714 315.529 229.694 315.369 229.785 315.369ZM206.611 300.74C212.809 298.963 217.891 297.094 221.855 295.135C221.536 293.631 221.104 292.537 220.557 291.854C220.01 291.17 219.189 290.828 218.096 290.828C215.316 290.828 212.786 291.785 210.508 293.699C208.275 295.613 206.976 297.96 206.611 300.74ZM225.889 328.152L224.795 325.213C226.299 324.62 227.666 323.686 228.896 322.41C230.081 321.134 231.061 319.812 231.836 318.445C232.611 317.033 233.271 315.278 233.818 313.182C234.365 311.085 234.753 309.262 234.98 307.713C235.254 306.118 235.459 304.158 235.596 301.834C235.732 299.51 235.801 297.778 235.801 296.639C235.846 295.454 235.869 293.882 235.869 291.922C235.869 289.142 236.12 287.479 236.621 286.932C237.259 286.248 240.791 285.906 247.217 285.906C252.275 285.906 255.146 285.883 255.83 285.838C255.921 304.34 256.149 316.349 256.514 321.863C256.058 323.23 255.26 323.914 254.121 323.914C253.346 323.914 252.594 323.595 251.865 322.957C251.136 322.319 250.68 321.544 250.498 320.633C250.452 318.855 250.43 316.212 250.43 312.703C250.43 310.971 250.43 308.351 250.43 304.842C250.475 301.333 250.498 298.689 250.498 296.912C250.498 293.631 250.475 291.17 250.43 289.529C248.516 289.848 246.624 290.031 244.756 290.076C242.887 290.122 241.566 290.19 240.791 290.281C240.654 291.785 240.54 294.018 240.449 296.98C240.358 299.943 240.267 302.563 240.176 304.842C240.13 307.075 239.857 309.627 239.355 312.498C238.854 315.324 238.125 317.739 237.168 319.744C236.257 321.704 234.821 323.458 232.861 325.008C230.947 326.603 228.623 327.651 225.889 328.152ZM262.051 307.439C262.051 305.617 262.233 303.589 262.598 301.355C263.008 299.122 263.6 296.775 264.375 294.314C265.15 291.854 266.312 289.803 267.861 288.162C269.411 286.521 271.211 285.701 273.262 285.701C277.637 285.701 281.146 287.684 283.789 291.648C286.432 295.568 287.754 299.943 287.754 304.773C287.754 306.824 287.526 308.875 287.07 310.926C286.66 312.931 285.999 314.913 285.088 316.873C284.176 318.833 282.855 320.473 281.123 321.795C279.437 323.071 277.454 323.8 275.176 323.982C270.983 323.436 267.747 321.658 265.469 318.65C263.19 315.597 262.051 311.86 262.051 307.439ZM273.672 289.256C272.077 289.438 270.732 290.896 269.639 293.631C268.545 296.365 267.839 299.031 267.52 301.629C267.201 304.181 267.041 306.437 267.041 308.396C267.041 310.949 267.816 313.318 269.365 315.506C270.96 317.648 272.738 318.719 274.697 318.719C276.11 318.719 277.386 318.172 278.525 317.078C279.665 315.984 280.553 314.64 281.191 313.045C281.875 311.404 282.376 309.764 282.695 308.123C283.06 306.482 283.242 305.024 283.242 303.748C283.242 300.011 282.399 296.753 280.713 293.973C279.027 291.193 276.68 289.62 273.672 289.256ZM294.795 286.932C301.859 285.428 306.165 284.676 307.715 284.676C313.822 284.676 316.875 287.296 316.875 292.537C316.875 294.36 316.556 296.137 315.918 297.869C315.326 299.555 314.574 300.672 313.662 301.219C317.217 303.634 318.994 306.961 318.994 311.199C318.994 315.21 317.673 318.331 315.029 320.564C312.432 322.798 308.991 323.914 304.707 323.914C299.603 323.914 295.798 322.547 293.291 319.812L294.795 286.932ZM298.691 304.09L299.307 317.967C300.446 318.514 301.745 318.787 303.203 318.787C306.029 318.787 308.626 317.898 310.996 316.121C313.366 314.344 314.551 312.27 314.551 309.9C314.551 308.26 313.913 306.756 312.637 305.389C311.361 303.976 309.743 303.27 307.783 303.27C306.644 303.27 303.613 303.543 298.691 304.09ZM298.008 290.008L298.486 300.535C299.17 300.444 300.218 300.376 301.631 300.33C303.044 300.285 304.183 300.193 305.049 300.057C305.915 299.874 306.872 299.533 307.92 299.031C308.968 298.484 309.788 297.55 310.381 296.229C311.019 294.907 311.452 293.175 311.68 291.033C311.224 289.666 309.834 288.982 307.51 288.982C306.462 288.982 304.821 289.142 302.588 289.461C300.355 289.78 298.828 289.962 298.008 290.008ZM349.619 315.369L350.303 318.377C348.298 319.106 345.312 319.926 341.348 320.838C337.428 321.704 334.512 322.137 332.598 322.137C330.638 322.137 328.929 321.499 327.471 320.223C326.012 318.901 324.919 317.238 324.189 315.232C323.46 313.182 322.913 311.176 322.549 309.217C322.23 307.212 322.07 305.252 322.07 303.338C322.07 291.945 327.22 286.248 337.52 286.248C339.98 286.248 342.145 287.046 344.014 288.641C345.882 290.19 346.816 292.218 346.816 294.725C346.816 296.092 346.429 297.299 345.654 298.348C344.925 299.396 344.014 300.239 342.92 300.877C341.872 301.469 340.505 302.016 338.818 302.518C337.178 303.019 335.719 303.383 334.443 303.611C333.167 303.839 331.641 304.09 329.863 304.363C328.086 304.637 326.855 304.842 326.172 304.979C326.217 306.3 326.286 307.462 326.377 308.465C326.514 309.467 326.742 310.561 327.061 311.746C327.425 312.885 327.881 313.842 328.428 314.617C329.02 315.346 329.818 315.962 330.82 316.463C331.823 316.964 333.008 317.215 334.375 317.215C336.016 317.215 338.021 317.078 340.391 316.805C342.76 316.486 344.857 316.167 346.68 315.848C348.548 315.529 349.528 315.369 349.619 315.369ZM326.445 300.74C332.643 298.963 337.725 297.094 341.689 295.135C341.37 293.631 340.938 292.537 340.391 291.854C339.844 291.17 339.023 290.828 337.93 290.828C335.15 290.828 332.62 291.785 330.342 293.699C328.109 295.613 326.81 297.96 326.445 300.74ZM377.51 320.291L377.715 323.299C376.621 323.572 375.846 323.709 375.391 323.709C373.659 323.709 372.087 323.139 370.674 322C369.261 320.861 368.099 319.471 367.188 317.83C366.276 316.189 365.41 314.549 364.59 312.908C363.815 311.268 362.972 309.878 362.061 308.738C361.149 307.599 360.215 307.029 359.258 307.029C358.893 307.029 358.551 307.098 358.232 307.234C358.415 309.969 358.734 314.389 359.189 320.496C358.779 321.909 357.982 322.615 356.797 322.615C355.977 322.615 355.179 322.296 354.404 321.658C353.675 320.975 353.219 320.154 353.037 319.197C353.219 311.541 353.311 304.34 353.311 297.596C353.311 292.628 353.516 288.686 353.926 285.77L357.002 286.863C357.367 288.641 357.572 291.193 357.617 294.52C357.663 297.801 357.708 299.829 357.754 300.604C359.121 300.376 360.306 299.669 361.309 298.484C362.357 297.299 363.2 295.955 363.838 294.451C364.521 292.947 365.228 291.466 365.957 290.008C366.686 288.549 367.62 287.319 368.76 286.316C369.945 285.314 371.335 284.812 372.93 284.812C373.75 284.812 375.026 285.086 376.758 285.633L376.484 287.957C376.211 287.911 375.846 287.889 375.391 287.889C373.568 287.889 371.973 288.663 370.605 290.213C369.284 291.717 368.281 293.403 367.598 295.271C366.96 297.094 366.139 298.849 365.137 300.535C364.134 302.221 363.04 303.201 361.855 303.475C363.542 303.885 364.977 305.024 366.162 306.893C367.393 308.761 368.304 310.698 368.896 312.703C369.535 314.663 370.446 316.463 371.631 318.104C372.816 319.699 374.274 320.496 376.006 320.496C376.462 320.496 376.963 320.428 377.51 320.291ZM382.979 292.469L381.611 288.982C382.796 287.798 384.3 286.863 386.123 286.18C387.946 285.451 389.746 285.086 391.523 285.086C399.225 285.086 403.076 291.74 403.076 305.047C403.076 306.87 402.962 309.559 402.734 313.113C402.552 316.668 402.461 319.334 402.461 321.111C402.096 322.524 401.39 323.23 400.342 323.23C399.521 323.23 398.77 322.82 398.086 322C397.402 321.18 397.061 320.268 397.061 319.266C397.061 318.947 397.083 318.719 397.129 318.582C394.303 321.316 391.296 322.684 388.105 322.684C385.69 322.684 383.571 321.818 381.748 320.086C379.971 318.309 379.082 316.167 379.082 313.66C379.082 309.422 380.723 305.594 384.004 302.176C387.331 298.758 391.09 297.049 395.283 297.049C395.465 297.049 395.648 297.072 395.83 297.117C396.012 297.117 396.217 297.14 396.445 297.186C396.719 297.231 396.924 297.254 397.061 297.254C396.696 291.922 394.577 289.256 390.703 289.256C388.424 289.256 385.85 290.327 382.979 292.469ZM397.266 313.865C397.357 310.675 397.402 308.26 397.402 306.619C397.402 305.252 397.357 303.338 397.266 300.877H396.719C393.483 300.923 390.521 302.13 387.832 304.5C385.189 306.87 383.867 309.741 383.867 313.113C383.867 314.572 384.3 315.734 385.166 316.6C386.077 317.465 387.171 317.898 388.447 317.898C390.452 317.898 393.392 316.554 397.266 313.865ZM428.984 330.955L425.908 330.271C425.908 329.77 425.817 328.289 425.635 325.828C425.452 323.367 425.361 321.59 425.361 320.496C425.361 319.585 425.43 318.605 425.566 317.557H430.01C430.238 316.782 430.602 315.62 431.104 314.07C431.65 312.521 432.015 311.427 432.197 310.789C432.38 310.151 432.63 309.217 432.949 307.986C433.314 306.71 433.542 305.639 433.633 304.773C433.77 303.862 433.883 302.745 433.975 301.424C434.111 300.102 434.18 298.712 434.18 297.254C434.18 293.836 434.043 289.985 433.77 285.701C436.322 285.838 439.01 285.929 441.836 285.975C444.707 286.02 447.054 286.089 448.877 286.18C450.7 286.271 452.568 286.476 454.482 286.795C454.619 289.894 454.756 294.998 454.893 302.107C455.075 309.171 455.234 314.253 455.371 317.352H460.703V319.402C460.703 320.587 460.726 322.273 460.771 324.461C460.863 326.648 460.908 328.107 460.908 328.836C460.908 330.203 460.863 331.251 460.771 331.98L457.695 331.297C457.513 330.659 457.331 329.839 457.148 328.836C457.012 327.879 456.852 326.831 456.67 325.691C456.488 324.552 456.351 323.732 456.26 323.23C453.662 323.094 449.515 322.82 443.818 322.41C438.167 322 433.747 321.727 430.557 321.59L428.984 330.955ZM439.512 290.008C439.466 290.691 439.421 292.127 439.375 294.314C439.329 296.456 439.261 298.097 439.17 299.236C439.124 300.376 438.988 301.971 438.76 304.021C438.577 306.027 438.327 307.713 438.008 309.08C437.689 310.402 437.21 311.86 436.572 313.455C435.98 315.005 435.273 316.349 434.453 317.488H449.424L450.791 290.555C450.153 290.509 448.467 290.441 445.732 290.35C443.044 290.258 440.97 290.145 439.512 290.008ZM462.07 307.439C462.07 305.617 462.253 303.589 462.617 301.355C463.027 299.122 463.62 296.775 464.395 294.314C465.169 291.854 466.331 289.803 467.881 288.162C469.43 286.521 471.23 285.701 473.281 285.701C477.656 285.701 481.165 287.684 483.809 291.648C486.452 295.568 487.773 299.943 487.773 304.773C487.773 306.824 487.546 308.875 487.09 310.926C486.68 312.931 486.019 314.913 485.107 316.873C484.196 318.833 482.874 320.473 481.143 321.795C479.456 323.071 477.474 323.8 475.195 323.982C471.003 323.436 467.767 321.658 465.488 318.65C463.21 315.597 462.07 311.86 462.07 307.439ZM473.691 289.256C472.096 289.438 470.752 290.896 469.658 293.631C468.564 296.365 467.858 299.031 467.539 301.629C467.22 304.181 467.061 306.437 467.061 308.396C467.061 310.949 467.835 313.318 469.385 315.506C470.98 317.648 472.757 318.719 474.717 318.719C476.13 318.719 477.406 318.172 478.545 317.078C479.684 315.984 480.573 314.64 481.211 313.045C481.895 311.404 482.396 309.764 482.715 308.123C483.079 306.482 483.262 305.024 483.262 303.748C483.262 300.011 482.419 296.753 480.732 293.973C479.046 291.193 476.699 289.62 473.691 289.256ZM514.365 286.932C521.429 285.428 525.736 284.676 527.285 284.676C533.392 284.676 536.445 287.296 536.445 292.537C536.445 294.36 536.126 296.137 535.488 297.869C534.896 299.555 534.144 300.672 533.232 301.219C536.787 303.634 538.564 306.961 538.564 311.199C538.564 315.21 537.243 318.331 534.6 320.564C532.002 322.798 528.561 323.914 524.277 323.914C519.173 323.914 515.368 322.547 512.861 319.812L514.365 286.932ZM518.262 304.09L518.877 317.967C520.016 318.514 521.315 318.787 522.773 318.787C525.599 318.787 528.197 317.898 530.566 316.121C532.936 314.344 534.121 312.27 534.121 309.9C534.121 308.26 533.483 306.756 532.207 305.389C530.931 303.976 529.313 303.27 527.354 303.27C526.214 303.27 523.184 303.543 518.262 304.09ZM517.578 290.008L518.057 300.535C518.74 300.444 519.788 300.376 521.201 300.33C522.614 300.285 523.753 300.193 524.619 300.057C525.485 299.874 526.442 299.533 527.49 299.031C528.538 298.484 529.359 297.55 529.951 296.229C530.589 294.907 531.022 293.175 531.25 291.033C530.794 289.666 529.404 288.982 527.08 288.982C526.032 288.982 524.391 289.142 522.158 289.461C519.925 289.78 518.398 289.962 517.578 290.008ZM544.102 307.439C544.102 305.617 544.284 303.589 544.648 301.355C545.059 299.122 545.651 296.775 546.426 294.314C547.201 291.854 548.363 289.803 549.912 288.162C551.462 286.521 553.262 285.701 555.312 285.701C559.688 285.701 563.197 287.684 565.84 291.648C568.483 295.568 569.805 299.943 569.805 304.773C569.805 306.824 569.577 308.875 569.121 310.926C568.711 312.931 568.05 314.913 567.139 316.873C566.227 318.833 564.906 320.473 563.174 321.795C561.488 323.071 559.505 323.8 557.227 323.982C553.034 323.436 549.798 321.658 547.52 318.65C545.241 315.597 544.102 311.86 544.102 307.439ZM555.723 289.256C554.128 289.438 552.783 290.896 551.689 293.631C550.596 296.365 549.889 299.031 549.57 301.629C549.251 304.181 549.092 306.437 549.092 308.396C549.092 310.949 549.867 313.318 551.416 315.506C553.011 317.648 554.788 318.719 556.748 318.719C558.161 318.719 559.437 318.172 560.576 317.078C561.715 315.984 562.604 314.64 563.242 313.045C563.926 311.404 564.427 309.764 564.746 308.123C565.111 306.482 565.293 305.024 565.293 303.748C565.293 300.011 564.45 296.753 562.764 293.973C561.077 291.193 558.73 289.62 555.723 289.256ZM598.379 288.094L598.037 291.033C596.123 290.76 594.482 290.623 593.115 290.623C589.971 290.623 587.373 291.58 585.322 293.494C583.271 295.363 581.859 297.596 581.084 300.193C580.355 302.745 579.99 305.594 579.99 308.738C579.99 310.197 580.081 311.495 580.264 312.635C580.446 313.774 580.765 314.891 581.221 315.984C581.722 317.078 582.474 317.944 583.477 318.582C584.525 319.174 585.801 319.471 587.305 319.471C589.31 319.471 591.862 319.083 594.961 318.309C595.918 317.944 596.67 317.762 597.217 317.762C598.311 317.762 598.971 319.038 599.199 321.59C595.189 322.866 591.475 323.504 588.057 323.504C583.089 323.504 579.717 322.296 577.939 319.881C576.208 317.42 575.342 313.455 575.342 307.986C575.342 304.796 575.547 302.016 575.957 299.646C576.413 297.231 577.188 294.998 578.281 292.947C579.375 290.851 580.947 289.256 582.998 288.162C585.094 287.068 587.646 286.521 590.654 286.521C594.027 286.521 596.602 287.046 598.379 288.094ZM602.822 323.709L599.883 322.137C601.068 319.174 604.167 313.432 609.18 304.91C606.536 301.31 603.529 295.317 600.156 286.932H603.164C604.85 290.486 607.699 295.112 611.709 300.809C612.393 299.852 613.281 298.37 614.375 296.365C615.514 294.36 616.608 292.628 617.656 291.17C618.75 289.712 619.98 288.436 621.348 287.342C622.988 288.253 623.809 289.324 623.809 290.555C623.809 291.238 623.649 291.899 623.33 292.537C622.1 294.041 620.527 296.411 618.613 299.646C616.699 302.882 615.514 304.842 615.059 305.525C619.889 312.27 623.148 317.352 624.834 320.77C624.834 322.501 624.059 323.367 622.51 323.367C620.96 323.367 619.775 322.615 618.955 321.111C618.135 318.377 615.97 314.503 612.461 309.49C611.686 310.766 610.091 313.09 607.676 316.463C605.306 319.79 603.688 322.205 602.822 323.709ZM627.568 307.439C627.568 305.617 627.751 303.589 628.115 301.355C628.525 299.122 629.118 296.775 629.893 294.314C630.667 291.854 631.829 289.803 633.379 288.162C634.928 286.521 636.729 285.701 638.779 285.701C643.154 285.701 646.663 287.684 649.307 291.648C651.95 295.568 653.271 299.943 653.271 304.773C653.271 306.824 653.044 308.875 652.588 310.926C652.178 312.931 651.517 314.913 650.605 316.873C649.694 318.833 648.372 320.473 646.641 321.795C644.954 323.071 642.972 323.8 640.693 323.982C636.501 323.436 633.265 321.658 630.986 318.65C628.708 315.597 627.568 311.86 627.568 307.439ZM639.189 289.256C637.594 289.438 636.25 290.896 635.156 293.631C634.062 296.365 633.356 299.031 633.037 301.629C632.718 304.181 632.559 306.437 632.559 308.396C632.559 310.949 633.333 313.318 634.883 315.506C636.478 317.648 638.255 318.719 640.215 318.719C641.628 318.719 642.904 318.172 644.043 317.078C645.182 315.984 646.071 314.64 646.709 313.045C647.393 311.404 647.894 309.764 648.213 308.123C648.577 306.482 648.76 305.024 648.76 303.748C648.76 300.011 647.917 296.753 646.23 293.973C644.544 291.193 642.197 289.62 639.189 289.256ZM659.629 330.955L656.553 330.271C656.553 329.77 656.462 328.289 656.279 325.828C656.097 323.367 656.006 321.59 656.006 320.496C656.006 319.585 656.074 318.605 656.211 317.557H660.654C660.882 316.782 661.247 315.62 661.748 314.07C662.295 312.521 662.66 311.427 662.842 310.789C663.024 310.151 663.275 309.217 663.594 307.986C663.958 306.71 664.186 305.639 664.277 304.773C664.414 303.862 664.528 302.745 664.619 301.424C664.756 300.102 664.824 298.712 664.824 297.254C664.824 293.836 664.688 289.985 664.414 285.701C666.966 285.838 669.655 285.929 672.48 285.975C675.352 286.02 677.699 286.089 679.521 286.18C681.344 286.271 683.213 286.476 685.127 286.795C685.264 289.894 685.4 294.998 685.537 302.107C685.719 309.171 685.879 314.253 686.016 317.352H691.348V319.402C691.348 320.587 691.37 322.273 691.416 324.461C691.507 326.648 691.553 328.107 691.553 328.836C691.553 330.203 691.507 331.251 691.416 331.98L688.34 331.297C688.158 330.659 687.975 329.839 687.793 328.836C687.656 327.879 687.497 326.831 687.314 325.691C687.132 324.552 686.995 323.732 686.904 323.23C684.307 323.094 680.16 322.82 674.463 322.41C668.812 322 664.391 321.727 661.201 321.59L659.629 330.955ZM670.156 290.008C670.111 290.691 670.065 292.127 670.02 294.314C669.974 296.456 669.906 298.097 669.814 299.236C669.769 300.376 669.632 301.971 669.404 304.021C669.222 306.027 668.971 307.713 668.652 309.08C668.333 310.402 667.855 311.86 667.217 313.455C666.624 315.005 665.918 316.349 665.098 317.488H680.068L681.436 290.555C680.798 290.509 679.111 290.441 676.377 290.35C673.688 290.258 671.615 290.145 670.156 290.008ZM698.184 292.469L696.816 288.982C698.001 287.798 699.505 286.863 701.328 286.18C703.151 285.451 704.951 285.086 706.729 285.086C714.43 285.086 718.281 291.74 718.281 305.047C718.281 306.87 718.167 309.559 717.939 313.113C717.757 316.668 717.666 319.334 717.666 321.111C717.301 322.524 716.595 323.23 715.547 323.23C714.727 323.23 713.975 322.82 713.291 322C712.607 321.18 712.266 320.268 712.266 319.266C712.266 318.947 712.288 318.719 712.334 318.582C709.508 321.316 706.501 322.684 703.311 322.684C700.895 322.684 698.776 321.818 696.953 320.086C695.176 318.309 694.287 316.167 694.287 313.66C694.287 309.422 695.928 305.594 699.209 302.176C702.536 298.758 706.296 297.049 710.488 297.049C710.671 297.049 710.853 297.072 711.035 297.117C711.217 297.117 711.423 297.14 711.65 297.186C711.924 297.231 712.129 297.254 712.266 297.254C711.901 291.922 709.782 289.256 705.908 289.256C703.63 289.256 701.055 290.327 698.184 292.469ZM712.471 313.865C712.562 310.675 712.607 308.26 712.607 306.619C712.607 305.252 712.562 303.338 712.471 300.877H711.924C708.688 300.923 705.726 302.13 703.037 304.5C700.394 306.87 699.072 309.741 699.072 313.113C699.072 314.572 699.505 315.734 700.371 316.6C701.283 317.465 702.376 317.898 703.652 317.898C705.658 317.898 708.597 316.554 712.471 313.865ZM766.406 288.094L766.064 291.033C764.15 290.76 762.51 290.623 761.143 290.623C757.998 290.623 755.4 291.58 753.35 293.494C751.299 295.363 749.886 297.596 749.111 300.193C748.382 302.745 748.018 305.594 748.018 308.738C748.018 310.197 748.109 311.495 748.291 312.635C748.473 313.774 748.792 314.891 749.248 315.984C749.749 317.078 750.501 317.944 751.504 318.582C752.552 319.174 753.828 319.471 755.332 319.471C757.337 319.471 759.889 319.083 762.988 318.309C763.945 317.944 764.697 317.762 765.244 317.762C766.338 317.762 766.999 319.038 767.227 321.59C763.216 322.866 759.502 323.504 756.084 323.504C751.117 323.504 747.744 322.296 745.967 319.881C744.235 317.42 743.369 313.455 743.369 307.986C743.369 304.796 743.574 302.016 743.984 299.646C744.44 297.231 745.215 294.998 746.309 292.947C747.402 290.851 748.975 289.256 751.025 288.162C753.122 287.068 755.674 286.521 758.682 286.521C762.054 286.521 764.629 287.046 766.406 288.094ZM770.713 307.439C770.713 305.617 770.895 303.589 771.26 301.355C771.67 299.122 772.262 296.775 773.037 294.314C773.812 291.854 774.974 289.803 776.523 288.162C778.073 286.521 779.873 285.701 781.924 285.701C786.299 285.701 789.808 287.684 792.451 291.648C795.094 295.568 796.416 299.943 796.416 304.773C796.416 306.824 796.188 308.875 795.732 310.926C795.322 312.931 794.661 314.913 793.75 316.873C792.839 318.833 791.517 320.473 789.785 321.795C788.099 323.071 786.117 323.8 783.838 323.982C779.645 323.436 776.41 321.658 774.131 318.65C771.852 315.597 770.713 311.86 770.713 307.439ZM782.334 289.256C780.739 289.438 779.395 290.896 778.301 293.631C777.207 296.365 776.501 299.031 776.182 301.629C775.863 304.181 775.703 306.437 775.703 308.396C775.703 310.949 776.478 313.318 778.027 315.506C779.622 317.648 781.4 318.719 783.359 318.719C784.772 318.719 786.048 318.172 787.188 317.078C788.327 315.984 789.215 314.64 789.854 313.045C790.537 311.404 791.038 309.764 791.357 308.123C791.722 306.482 791.904 305.024 791.904 303.748C791.904 300.011 791.061 296.753 789.375 293.973C787.689 291.193 785.342 289.62 782.334 289.256ZM794.639 328.152L793.545 325.213C795.049 324.62 796.416 323.686 797.646 322.41C798.831 321.134 799.811 319.812 800.586 318.445C801.361 317.033 802.021 315.278 802.568 313.182C803.115 311.085 803.503 309.262 803.73 307.713C804.004 306.118 804.209 304.158 804.346 301.834C804.482 299.51 804.551 297.778 804.551 296.639C804.596 295.454 804.619 293.882 804.619 291.922C804.619 289.142 804.87 287.479 805.371 286.932C806.009 286.248 809.541 285.906 815.967 285.906C821.025 285.906 823.896 285.883 824.58 285.838C824.671 304.34 824.899 316.349 825.264 321.863C824.808 323.23 824.01 323.914 822.871 323.914C822.096 323.914 821.344 323.595 820.615 322.957C819.886 322.319 819.43 321.544 819.248 320.633C819.202 318.855 819.18 316.212 819.18 312.703C819.18 310.971 819.18 308.351 819.18 304.842C819.225 301.333 819.248 298.689 819.248 296.912C819.248 293.631 819.225 291.17 819.18 289.529C817.266 289.848 815.374 290.031 813.506 290.076C811.637 290.122 810.316 290.19 809.541 290.281C809.404 291.785 809.29 294.018 809.199 296.98C809.108 299.943 809.017 302.563 808.926 304.842C808.88 307.075 808.607 309.627 808.105 312.498C807.604 315.324 806.875 317.739 805.918 319.744C805.007 321.704 803.571 323.458 801.611 325.008C799.697 326.603 797.373 327.651 794.639 328.152ZM851.24 287.342L854.316 288.025L855.889 321.18C855.479 322.547 854.681 323.23 853.496 323.23C852.676 323.23 851.878 322.889 851.104 322.205C850.329 321.567 849.85 320.77 849.668 319.812C849.668 319.676 849.873 315.825 850.283 308.26V307.713C849.007 307.622 847.116 307.576 844.609 307.576C840.827 307.576 837.979 307.462 836.064 307.234C836.292 309.878 836.589 314.139 836.953 320.018C836.543 321.43 835.745 322.137 834.561 322.137C833.74 322.137 832.943 321.818 832.168 321.18C831.439 320.496 830.983 319.676 830.801 318.719C830.938 316.44 831.006 314.161 831.006 311.883C831.006 310.424 830.983 308.237 830.938 305.32C830.892 302.404 830.869 300.239 830.869 298.826C830.869 294.451 831.006 290.783 831.279 287.82L834.355 288.572C835.267 298.462 835.745 303.543 835.791 303.816C843.584 304.227 847.594 304.432 847.822 304.432C849.691 304.432 850.625 304.318 850.625 304.09C850.625 303.178 850.716 300.285 850.898 295.408C851.081 290.532 851.195 287.843 851.24 287.342ZM861.426 322.205C861.562 319.699 861.654 313.911 861.699 304.842C861.745 295.727 861.927 289.393 862.246 285.838L865.322 286.521C865.641 290.167 865.869 296.001 866.006 304.021C866.188 312.042 866.302 316.417 866.348 317.146C867.031 317.101 868.148 317.078 869.697 317.078C870.791 317.078 872.386 317.101 874.482 317.146C876.624 317.192 878.128 317.215 878.994 317.215H880.908C881.045 314.389 881.204 309.422 881.387 302.312C881.569 295.158 881.751 289.871 881.934 286.453L885.01 287.137C885.192 290.691 885.283 296.32 885.283 304.021C885.329 311.723 885.352 316.121 885.352 317.215H890.479C890.433 318.491 890.319 320.838 890.137 324.256C889.954 327.674 889.84 330.226 889.795 331.912L886.514 331.365L885.146 322.205C879.222 322.387 874.801 322.479 871.885 322.479C868.011 322.479 864.525 322.387 861.426 322.205ZM897.109 292.469L895.742 288.982C896.927 287.798 898.431 286.863 900.254 286.18C902.077 285.451 903.877 285.086 905.654 285.086C913.356 285.086 917.207 291.74 917.207 305.047C917.207 306.87 917.093 309.559 916.865 313.113C916.683 316.668 916.592 319.334 916.592 321.111C916.227 322.524 915.521 323.23 914.473 323.23C913.652 323.23 912.9 322.82 912.217 322C911.533 321.18 911.191 320.268 911.191 319.266C911.191 318.947 911.214 318.719 911.26 318.582C908.434 321.316 905.426 322.684 902.236 322.684C899.821 322.684 897.702 321.818 895.879 320.086C894.102 318.309 893.213 316.167 893.213 313.66C893.213 309.422 894.854 305.594 898.135 302.176C901.462 298.758 905.221 297.049 909.414 297.049C909.596 297.049 909.779 297.072 909.961 297.117C910.143 297.117 910.348 297.14 910.576 297.186C910.85 297.231 911.055 297.254 911.191 297.254C910.827 291.922 908.708 289.256 904.834 289.256C902.555 289.256 899.98 290.327 897.109 292.469ZM911.396 313.865C911.488 310.675 911.533 308.26 911.533 306.619C911.533 305.252 911.488 303.338 911.396 300.877H910.85C907.614 300.923 904.652 302.13 901.963 304.5C899.32 306.87 897.998 309.741 897.998 313.113C897.998 314.572 898.431 315.734 899.297 316.6C900.208 317.465 901.302 317.898 902.578 317.898C904.583 317.898 907.523 316.554 911.396 313.865ZM923.77 313.455C925 313.455 926.025 314.002 926.846 315.096C927.712 316.144 928.145 317.352 928.145 318.719C928.145 319.721 927.894 320.542 927.393 321.18C926.937 321.772 926.299 322.068 925.479 322.068C924.202 322.068 923.177 321.544 922.402 320.496C921.673 319.448 921.309 318.217 921.309 316.805C921.309 315.802 921.514 315.005 921.924 314.412C922.38 313.774 922.995 313.455 923.77 313.455ZM933.34 313.455C934.57 313.455 935.596 314.002 936.416 315.096C937.282 316.144 937.715 317.352 937.715 318.719C937.715 319.721 937.464 320.542 936.963 321.18C936.507 321.772 935.869 322.068 935.049 322.068C933.773 322.068 932.747 321.544 931.973 320.496C931.243 319.448 930.879 318.217 930.879 316.805C930.879 315.802 931.084 315.005 931.494 314.412C931.95 313.774 932.565 313.455 933.34 313.455ZM942.91 313.455C944.141 313.455 945.166 314.002 945.986 315.096C946.852 316.144 947.285 317.352 947.285 318.719C947.285 319.721 947.035 320.542 946.533 321.18C946.077 321.772 945.439 322.068 944.619 322.068C943.343 322.068 942.318 321.544 941.543 320.496C940.814 319.448 940.449 318.217 940.449 316.805C940.449 315.802 940.654 315.005 941.064 314.412C941.52 313.774 942.135 313.455 942.91 313.455Z" fill="white"/>
</svg>
