<svg width="1086" height="534" viewBox="0 0 1086 534" fill="none" xmlns="http://www.w3.org/2000/svg">
<rect width="1086" height="534" fill="black"/>
<path d="M298.938 227.094L298 222.875L333.812 220.812C335.375 220.875 336.688 221.438 337.75 222.5C338.812 223.562 339.344 224.719 339.344 225.969C339.344 226.781 339.031 227.5 338.406 228.125C337.781 228.75 336.844 229.125 335.594 229.25L319.844 228.406C321.406 250.469 322.562 270.531 323.312 288.594C322.75 290.469 321.688 291.406 320.125 291.406C319 291.406 317.906 290.938 316.844 290C315.781 289.125 315.125 288.031 314.875 286.719C315 283.344 315.062 278.219 315.062 271.344C315.062 268.781 315.031 264.938 314.969 259.812C314.969 254.688 314.969 250.844 314.969 248.281C314.969 240.844 315.094 234.125 315.344 228.125C308.281 227.625 302.812 227.281 298.938 227.094ZM344.5 221.094L348.719 222.031C348.781 223.219 349.188 232.562 349.938 250.062C351.625 249.812 353.5 249.688 355.562 249.688C363.812 249.688 370.562 252.031 375.812 256.719C381.062 261.344 383.688 266.781 383.688 273.031C383.688 285.719 375.844 292.062 360.156 292.062C356.094 292.062 352.375 291.75 349 291.125C345.625 290.5 343.688 289.719 343.188 288.781C343.375 283.531 343.531 272.906 343.656 256.906C343.781 240.844 344.062 228.906 344.5 221.094ZM350.406 257.094C350.844 270.406 351.156 279.281 351.344 283.719C355.656 284.281 359.438 284.562 362.688 284.562C371.438 284.562 375.812 280.406 375.812 272.094C375.812 267.781 373.938 264.156 370.188 261.219C366.5 258.219 361.625 256.719 355.562 256.719C353.688 256.719 351.969 256.844 350.406 257.094ZM394.562 221.75L398.781 222.688C398.969 225.625 399.75 247.75 401.125 289.062C400.562 290.938 399.5 291.875 397.938 291.875C396.812 291.875 395.719 291.406 394.656 290.469C393.594 289.594 392.938 288.5 392.688 287.188C392.812 282.688 393.031 272.75 393.344 257.375C393.719 242 394.125 230.125 394.562 221.75ZM435.625 287.562L436.094 221.562C436.781 219.25 439.469 218.094 444.156 218.094C448.469 218.094 452.438 218.688 456.062 219.875C459.688 221 462.719 222.938 465.156 225.688C467.656 228.375 468.906 231.625 468.906 235.438C468.906 238.438 468.156 241.344 466.656 244.156C465.219 246.969 463.438 248.781 461.312 249.594C465.312 250.156 468.531 252.562 470.969 256.812C473.406 261.062 474.625 266.094 474.625 271.906C474.625 275.844 473.062 279.281 469.938 282.219C466.812 285.094 463.156 287.188 458.969 288.5C454.844 289.75 450.656 290.375 446.406 290.375C441.219 290.375 437.625 289.438 435.625 287.562ZM443.312 254.75C443.312 259.062 443.25 267.719 443.125 280.719C445 282.844 447.406 283.906 450.344 283.906C454.219 283.906 457.969 282.312 461.594 279.125C465.219 275.875 467.031 272.406 467.031 268.719C467.031 264.156 465.5 260.594 462.438 258.031C459.375 255.469 455.438 254.188 450.625 254.188C447.438 254.188 445 254.375 443.312 254.75ZM443.125 247.812L448.938 247.719C452.938 247.719 456 246.562 458.125 244.25C460.312 241.875 461.406 239.062 461.406 235.812C461.406 232.5 460.312 229.656 458.125 227.281C455.938 224.844 452.906 223.625 449.031 223.625C447.281 223.625 445.219 224 442.844 224.75C442.969 228.562 443.031 233.281 443.031 238.906C443.094 244.531 443.125 247.5 443.125 247.812ZM483.531 221.094L487.75 222.031C487.812 223.219 488.219 232.562 488.969 250.062C490.656 249.812 492.531 249.688 494.594 249.688C502.844 249.688 509.594 252.031 514.844 256.719C520.094 261.344 522.719 266.781 522.719 273.031C522.719 285.719 514.875 292.062 499.188 292.062C495.125 292.062 491.406 291.75 488.031 291.125C484.656 290.5 482.719 289.719 482.219 288.781C482.406 283.531 482.562 272.906 482.688 256.906C482.812 240.844 483.094 228.906 483.531 221.094ZM489.438 257.094C489.875 270.406 490.188 279.281 490.375 283.719C494.688 284.281 498.469 284.562 501.719 284.562C510.469 284.562 514.844 280.406 514.844 272.094C514.844 267.781 512.969 264.156 509.219 261.219C505.531 258.219 500.656 256.719 494.594 256.719C492.719 256.719 491 256.844 489.438 257.094ZM533.594 221.75L537.812 222.688C538 225.625 538.781 247.75 540.156 289.062C539.594 290.938 538.531 291.875 536.969 291.875C535.844 291.875 534.75 291.406 533.688 290.469C532.625 289.594 531.969 288.5 531.719 287.188C531.844 282.688 532.062 272.75 532.375 257.375C532.75 242 533.156 230.125 533.594 221.75ZM549.25 221.281L553.469 222.219C554.094 232.531 554.812 249.688 555.625 273.688C567.812 252 576.188 234.562 580.75 221.375C581.688 220.625 582.594 220.25 583.469 220.25C584.844 220.25 585.969 221.062 586.844 222.688C587.781 224.312 588.281 226.156 588.344 228.219C588.531 234.031 588.688 243.844 588.812 257.656C589 271.469 589.25 281.781 589.562 288.594C589 290.469 587.938 291.406 586.375 291.406C585.25 291.406 584.156 290.938 583.094 290C582.031 289.125 581.375 288.031 581.125 286.719C581.312 281.281 581.406 272.938 581.406 261.688C581.469 250.438 581.531 242.844 581.594 238.906C580.219 241.281 577.812 245.781 574.375 252.406C570.938 259.031 567.75 264.719 564.812 269.469C561.938 274.219 558.969 278.344 555.906 281.844L556.281 289.438C555.719 291.375 554.625 292.344 553 292.344C551.875 292.344 550.781 291.875 549.719 290.938C548.719 290 548.094 288.875 547.844 287.562C548.031 282.25 548.219 271.844 548.406 256.344C548.594 240.844 548.875 229.156 549.25 221.281ZM632.781 222.875L633.719 227.094C630.969 227.281 626.156 227.594 619.281 228.031C612.406 228.406 607.594 228.719 604.844 228.969C605.031 234.906 605.156 244.844 605.219 258.781C605.281 272.719 605.438 282.938 605.688 289.438C605.125 291.375 604.031 292.344 602.406 292.344C601.281 292.344 600.188 291.875 599.125 290.938C598.125 290 597.5 288.875 597.25 287.562C597.938 279.688 598.375 261.281 598.562 232.344C598.562 231.281 598.562 229.656 598.562 227.469C598.625 225.281 598.656 223.562 598.656 222.312C602.031 222.5 605.438 222.594 608.875 222.594C610.25 222.594 612.312 222.594 615.062 222.594C617.812 222.531 619.875 222.5 621.25 222.5C625.5 222.5 629.344 222.625 632.781 222.875ZM639.062 222.688L643.281 221.562C643.281 223.562 643.312 224.688 643.375 224.938C646.938 222.562 651.938 221.375 658.375 221.375C665.312 221.375 670.5 223.562 673.938 227.938C677.375 232.25 679.094 238.312 679.094 246.125C679.094 253.062 677.406 258.812 674.031 263.375C670.656 267.938 665.562 270.219 658.75 270.219C657.625 270.219 653.125 269.844 645.25 269.094C645.375 273.656 645.625 280.75 646 290.375C645.438 292.312 644.344 293.281 642.719 293.281C641.594 293.281 640.5 292.812 639.438 291.875C638.438 291 637.812 289.906 637.562 288.594C637.75 283.344 637.938 273.125 638.125 257.938C638.375 242.75 638.688 231 639.062 222.688ZM644.219 231.219L644.969 260.469C648.406 262.344 652.375 263.281 656.875 263.281C661.188 263.281 664.844 261.656 667.844 258.406C670.844 255.156 672.344 251.188 672.344 246.5C672.344 241.438 670.781 236.875 667.656 232.812C664.531 228.75 660.625 226.719 655.938 226.719C652.125 226.719 648.219 228.219 644.219 231.219ZM696.438 222.031L703.562 222.5C705.312 230.25 708.906 241.219 714.344 255.406C719.781 269.531 723.375 280.094 725.125 287.094C725.125 288.906 724.812 290.25 724.188 291.125C723.562 292.062 722.781 292.531 721.844 292.531C721.031 292.531 720.25 292.188 719.5 291.5C718.812 290.875 718.344 289.969 718.094 288.781C717.531 286.031 715.719 280.531 712.656 272.281C699.781 270.656 691.688 269.656 688.375 269.281C687.562 271.531 686.562 275.188 685.375 280.25C684.188 285.312 683.25 288.812 682.562 290.75C681.625 291.875 680.562 292.438 679.375 292.438C678.062 292.438 676.938 291.844 676 290.656C675.062 289.531 674.594 288.125 674.594 286.438C676.594 279.125 680.219 268.375 685.469 254.188C690.719 240 694.375 229.281 696.438 222.031ZM699.719 231.5C698.469 239.062 695 250.156 689.312 264.781H699.812C704.562 264.781 708.531 264.938 711.719 265.25C705.281 251.438 701.281 240.188 699.719 231.5ZM720.062 298.812L717.344 293.938C720.781 291.625 723.719 288.969 726.156 285.969C728.594 282.906 730.5 279.875 731.875 276.875C733.25 273.812 734.344 270.344 735.156 266.469C735.969 262.594 736.469 259.031 736.656 255.781C736.906 252.469 737.031 248.656 737.031 244.344C737.031 242.094 737.094 238.625 737.219 233.938C737.406 229.188 737.5 225.562 737.5 223.062C739.312 222.75 742.094 222.594 745.844 222.594C747.406 222.594 749.781 222.656 752.969 222.781C756.156 222.844 758.562 222.875 760.188 222.875C763.188 222.875 765.938 222.75 768.438 222.5C769.188 226.688 769.562 233.25 769.562 242.188C769.562 244.562 769.531 248.312 769.469 253.438C769.406 258.5 769.375 262.344 769.375 264.969C769.375 275.219 769.812 283.656 770.688 290.281C770.125 292.219 769.062 293.188 767.5 293.188C766.375 293.188 765.281 292.719 764.219 291.781C763.156 290.906 762.5 289.812 762.25 288.5C762.375 283.625 762.438 279.906 762.438 277.344C762.438 273.719 762.344 268.031 762.156 260.281C762.031 252.531 761.969 246.531 761.969 242.281C761.969 236.531 762.031 232.25 762.156 229.438C760.656 229.312 758.062 229.219 754.375 229.156C750.688 229.094 747.875 228.938 745.938 228.688C745.375 231.938 744.906 236.188 744.531 241.438C744.219 246.625 743.938 251.25 743.688 255.312C743.5 259.312 742.938 263.75 742 268.625C741.125 273.438 739.906 277.625 738.344 281.188C736.844 284.75 734.531 288.125 731.406 291.312C728.344 294.562 724.562 297.062 720.062 298.812ZM785.031 273.875L780.812 272.938C780.5 268.812 779.688 252.438 778.375 223.812C778.625 221.375 779.719 220.156 781.656 220.156C782.906 220.156 784.062 220.688 785.125 221.75C786.188 222.812 786.75 224.125 786.812 225.688C786.625 229.062 786.406 236.406 786.156 247.719C785.906 259.031 785.531 267.75 785.031 273.875ZM782.219 279.125C783.906 279.125 785.312 279.875 786.438 281.375C787.562 282.812 788.125 284.469 788.125 286.344C788.125 287.719 787.781 288.844 787.094 289.719C786.469 290.531 785.594 290.938 784.469 290.938C782.719 290.938 781.344 290.219 780.344 288.781C779.344 287.344 778.844 285.656 778.844 283.719C778.844 282.344 779.125 281.25 779.688 280.438C780.312 279.562 781.156 279.125 782.219 279.125Z" fill="white"/>
</svg>
