<svg width="572" height="806" viewBox="0 0 572 806" fill="none" xmlns="http://www.w3.org/2000/svg">
<path d="M534.919 674.394C486.485 789.215 350.573 797.521 350.573 797.521C294.246 807.028 260.832 808.908 193.41 797.521C119.474 782.276 58.5775 722 47.6134 688.075C-55.1854 369.999 39.2115 171.629 47.6134 141.825C56.0153 112.02 120.759 27.0044 285.83 2.57459C450.901 -21.8552 534.919 134.007 556.171 198.013C577.423 262.019 583.353 559.574 534.919 674.394Z" fill="#F5EEE4"/>
<path d="M252.13 456C256.863 441.926 279.423 365.167 292.59 356C298.59 359.833 320.483 420.589 326.63 441.5C334.916 469.694 326.23 479.275 316.63 481C307.165 482.701 297.59 472.5 292.59 467C285.218 496.916 243.674 481.138 252.13 456Z" fill="black" stroke="black"/>
<path d="M458.5 580.5C322.1 664.1 165.667 615.333 104.5 580.5C172.5 700 230 729.5 321 718C393.8 708.8 443 622.5 458.5 580.5Z" fill="black" stroke="black"/>
<path d="M228.979 671C228.979 651.415 234.993 633.356 238 626.775L216 623L228.979 671Z" fill="white" stroke="black"/>
<path d="M336.5 648.5C294.5 656.9 251.5 650.833 236 646.5L240 628C274.4 634.8 317 632.333 331 630L336.5 648.5Z" fill="white"/>
<path d="M342.226 669.5C342.226 651.343 336.075 634.601 333 628.5L355.5 625L342.226 669.5Z" fill="white" stroke="black"/>
<path d="M509.5 515.5C514.7 494.7 553.833 458.5 571 442.5L567.5 501.5C558.667 510.667 538.5 538.5 528.5 576.5C518.5 614.5 503.333 606.333 497 597.5C499 578.833 504.3 536.3 509.5 515.5Z" fill="black" stroke="black"/>
<path d="M62.5 516C57.3 495.2 18.1667 459 1 443L5 502C13.8333 511.167 33.5 539 43.5 577C53.5 615 68.6667 606.833 75 598C73 579.333 67.7 536.8 62.5 516Z" fill="black" stroke="black"/>
<path d="M263.192 277.944C272.421 370.662 230.724 367.532 176.747 382.661C122.771 397.791 70.8672 384.19 59.315 342.976C47.7629 301.762 59.4247 241.687 113.401 226.558C167.378 211.428 255.5 200.662 263.192 277.944Z" fill="black"/>
<path d="M321.465 277.944C312.237 370.662 353.933 367.532 407.91 382.661C461.887 397.791 513.79 384.19 525.342 342.976C536.894 301.762 525.233 241.687 471.256 226.558C417.279 211.428 329.157 200.662 321.465 277.944Z" fill="black"/>
<path d="M111.594 590.546L109 585C121.849 597.252 185.076 617.136 214.5 624L219 645L206.547 642.479C148.849 625.538 119.204 600.798 111.594 590.546Z" fill="white" stroke="black"/>
<path d="M453 591.5L455 584.5C442.151 596.752 385.924 618.136 356.5 625L352 646L364.453 643.479C422.151 626.538 445.39 601.752 453 591.5Z" fill="white" stroke="black"/>
<path d="M363.946 698.594C315.522 712.854 261.498 708.643 212.448 699.406C244.161 720.436 295.562 720.461 318.543 716.838C341.524 713.215 356.806 703.633 363.946 698.594Z" fill="white" stroke="black"/>
</svg>
