<svg width="682" height="997" viewBox="0 0 682 997" fill="none" xmlns="http://www.w3.org/2000/svg">
<path d="M404.38 809.77C391.386 827.83 391.386 895.292 404.38 997H251.338C278.674 974.187 262.728 872.347 251.338 809.77C179.341 794.941 126.69 732.618 109.365 703.309C9.26178 393.908 101.183 200.948 109.365 171.957C117.546 142.965 180.592 60.2679 341.334 36.5044C502.077 12.7408 583.892 164.352 604.586 226.613C625.281 288.873 631.056 578.313 583.892 690.002C536.728 801.69 417.374 791.71 404.38 809.77Z" fill="#F5EEE4"/>
<path d="M273 332.406C237.194 297.083 140.867 245.319 42 320.852C70.86 357.496 157.464 411.108 273 332.406Z" fill="white"/>
<path d="M413 332.406C446.171 297.083 535.409 245.319 627 320.852C600.264 357.496 520.033 411.108 413 332.406Z" fill="white"/>
<ellipse cx="157" cy="328" rx="23" ry="27" fill="#FF0000"/>
<ellipse cx="519" cy="328" rx="24" ry="27" fill="#FF0000"/>
<path d="M460 615.562C460 624.457 400.636 656 339.135 656C277.634 656 228 624.457 228 615.562C228 606.667 277.634 623.788 339.135 623.788C400.636 623.788 460 606.667 460 615.562Z" fill="#FFAC88"/>
<path d="M272.989 751.794L249.163 598.503L298.572 598.784L272.989 751.794Z" fill="white"/>
<path d="M414.757 757.924L390.931 604.633L440.34 604.915L414.757 757.924Z" fill="white"/>
<path d="M19.3548 369.4C29.0323 382.14 54.0323 400.025 65.3226 407.375L75 536C62.5 526.608 30 466.665 19.3548 444.125C8.70968 421.585 2.01613 365.317 0 340C2.41935 344.492 9.67742 356.66 19.3548 369.4Z" fill="#F5EEE4"/>
<path d="M662.645 381.25C652.968 393.925 627.968 411.719 616.677 419.031L607 547C619.5 537.656 652 478.019 662.645 455.594C673.29 433.169 679.984 377.188 682 352C679.581 356.469 672.323 368.575 662.645 381.25Z" fill="#F5EEE4"/>
<path d="M489 622.003C489 630.997 400.085 622.003 339.213 622.003C278.34 622.003 200 630.997 200 622.003C200 613.009 276.071 583 339.213 583C391.868 583 489 613.009 489 622.003Z" fill="#FFAC88"/>
<path d="M134.152 535.868C130.268 528.019 88.838 493.352 68.6084 477C65.6954 483.868 67.3947 499.484 68.6084 506.434C81.1508 514.201 107.935 530.962 114.732 535.868C123.228 542 130.511 565.302 134.152 583.698C137.065 598.415 149.931 605.365 156 607C156 599.642 139.007 545.679 134.152 535.868Z" fill="#D9D9D9"/>
<path d="M550.093 534.415C554.021 526.626 595.917 492.226 616.373 476C619.319 482.815 617.601 498.311 616.373 505.208C603.69 512.915 576.605 529.547 569.732 534.415C561.14 540.5 553.776 563.623 550.093 581.877C547.148 596.481 534.137 603.377 528 605C528 597.698 545.184 544.151 550.093 534.415Z" fill="#D9D9D9"/>
<path d="M312.619 460.068C312.619 447.383 300.873 369.404 295 332H312.619C330.239 332 328.98 460.068 328.98 477.144C328.98 494.22 312.619 475.924 312.619 460.068Z" fill="#D9D9D9"/>
<path d="M375.417 441.226C375.417 428.624 386.472 351.158 392 314H375.417C358.834 314 360.019 441.226 360.019 458.189C360.019 475.153 375.417 456.977 375.417 441.226Z" fill="#D9D9D9"/>
<path d="M299.225 518.182C292.755 513.386 301.921 503.396 307.313 499C321.177 499 316.556 509.79 314.245 518.182C311.934 526.574 325.798 526.574 326.954 532.568C328.109 538.562 307.313 524.176 299.225 518.182Z" fill="#D9D9D9"/>
<path d="M387.775 518.182C394.245 513.386 385.079 503.396 379.687 499C365.823 499 370.444 509.79 372.755 518.182C375.066 526.574 361.202 526.574 360.046 532.568C358.891 538.562 379.687 524.176 387.775 518.182Z" fill="#D9D9D9"/>
<path d="M431.998 89.1257C398.439 75.921 368.438 112.578 353.184 130.777C346.828 96.0724 327.76 20.563 337.93 10.4056C348.099 0.24813 364.201 -0.598324 370.981 0.248129C528.609 -2.29123 552.762 80.2379 566.745 101.822C580.728 123.407 612.508 203.397 621.406 209.745C628.525 214.824 648.102 207.629 657 203.397C655.729 208.476 646.83 221.68 621.406 233.869C589.627 249.105 473.948 105.632 431.998 89.1257Z" fill="#FEF17D"/>
<path d="M241.196 128.891C273.279 112.506 334.726 112.253 351.65 128.891C354.611 93.7374 343.21 24.9248 332.118 15.7985C321.026 6.67218 304.938 7.38577 298.281 8.88335C141.345 21.5885 125.321 106.058 113.509 128.891C101.698 151.724 77.8461 234.404 69.6149 241.582C63.0299 247.324 42.8739 242.056 33.619 238.703C35.374 243.635 45.497 255.917 71.9489 265.591C105.014 277.683 201.094 149.372 241.196 128.891Z" fill="#FEF17D"/>
</svg>
