<svg width="658" height="997" viewBox="0 0 658 997" fill="none" xmlns="http://www.w3.org/2000/svg">
<path d="M392.38 809.77C379.386 827.83 379.386 895.292 392.38 997H239.338C266.674 974.187 250.728 872.347 239.338 809.77C167.341 794.941 114.69 732.618 97.3648 703.309C-2.73822 393.908 89.1833 200.948 97.3648 171.957C105.546 142.965 168.592 60.2679 329.334 36.5044C490.077 12.7408 571.892 164.352 592.586 226.613C613.281 288.873 619.056 578.313 571.892 690.002C524.728 801.69 405.374 791.71 392.38 809.77Z" fill="#F5EEE4"/>
<path d="M261 332.406C225.194 297.083 128.867 245.319 30 320.852C58.86 357.496 145.464 411.108 261 332.406Z" fill="white"/>
<path d="M401 332.406C434.171 297.083 523.409 245.319 615 320.852C588.264 357.496 508.033 411.108 401 332.406Z" fill="white"/>
<ellipse cx="145" cy="328" rx="23" ry="27" fill="black"/>
<ellipse cx="507" cy="328" rx="24" ry="27" fill="black"/>
<path d="M448 615.562C448 624.457 388.636 656 327.135 656C265.634 656 216 624.457 216 615.562C216 606.667 265.634 623.788 327.135 623.788C388.636 623.788 448 606.667 448 615.562Z" fill="#FFAC88"/>
<path d="M477 622.003C477 630.997 388.085 622.003 327.213 622.003C266.34 622.003 188 630.997 188 622.003C188 613.009 264.071 583 327.213 583C379.868 583 477 613.009 477 622.003Z" fill="#FFAC88"/>
<path d="M122.152 535.868C118.268 528.019 76.838 493.352 56.6084 477C53.6954 483.868 55.3947 499.484 56.6084 506.434C69.1508 514.201 95.9346 530.962 102.732 535.868C111.228 542 118.511 565.302 122.152 583.698C125.065 598.415 137.931 605.365 144 607C144 599.642 127.007 545.679 122.152 535.868Z" fill="#D9D9D9"/>
<path d="M538.093 534.415C542.021 526.626 583.917 492.226 604.373 476C607.319 482.815 605.601 498.311 604.373 505.208C591.69 512.915 564.605 529.547 557.732 534.415C549.14 540.5 541.776 563.623 538.093 581.877C535.148 596.481 522.137 603.377 516 605C516 597.698 533.184 544.151 538.093 534.415Z" fill="#D9D9D9"/>
<path d="M300.619 460.068C300.619 447.383 288.873 369.404 283 332H300.619C318.239 332 316.98 460.068 316.98 477.144C316.98 494.22 300.619 475.924 300.619 460.068Z" fill="#D9D9D9"/>
<path d="M363.417 441.226C363.417 428.624 374.472 351.158 380 314H363.417C346.834 314 348.019 441.226 348.019 458.189C348.019 475.153 363.417 456.977 363.417 441.226Z" fill="#D9D9D9"/>
<path d="M287.225 518.182C280.755 513.386 289.921 503.396 295.313 499C309.177 499 304.556 509.79 302.245 518.182C299.934 526.574 313.798 526.574 314.954 532.568C316.109 538.562 295.313 524.176 287.225 518.182Z" fill="#D9D9D9"/>
<path d="M375.775 518.182C382.245 513.386 373.079 503.396 367.687 499C353.823 499 358.444 509.79 360.755 518.182C363.066 526.574 349.202 526.574 348.046 532.568C346.891 538.562 367.687 524.176 375.775 518.182Z" fill="#D9D9D9"/>
<path d="M505.524 249.866C496.453 249.866 442.114 269.955 416.078 280L406 261.166C419.858 258.655 453.62 251.373 477.808 242.333C508.044 231.033 511.823 237.311 537.019 242.333C562.215 247.355 596.229 283.767 573.553 271.211C550.877 258.655 516.862 249.866 505.524 249.866Z" fill="#AD9668"/>
<path d="M151.339 247.866C160.513 247.866 215.473 267.955 241.806 278L252 259.166C237.984 256.655 203.835 249.373 179.371 240.333C148.79 229.033 144.968 235.311 119.484 240.333C93.9998 245.355 59.5966 281.767 82.5321 269.211C105.468 256.655 139.871 247.866 151.339 247.866Z" fill="#AD9668"/>
<path d="M419.998 89.1257C386.439 75.921 356.438 112.578 341.184 130.777C334.828 96.0724 315.76 20.563 325.93 10.4056C336.099 0.24813 352.201 -0.598324 358.981 0.248129C516.609 -2.29123 540.762 80.2379 554.745 101.822C568.728 123.407 600.508 203.397 609.406 209.745C616.525 214.824 636.102 207.629 645 203.397C643.729 208.476 634.83 221.68 609.406 233.869C577.627 249.105 461.948 105.632 419.998 89.1257Z" fill="#FEF17D"/>
<path d="M229.196 128.891C261.279 112.506 322.726 112.253 339.65 128.891C342.611 93.7374 331.21 24.9248 320.118 15.7985C309.026 6.67218 292.938 7.38577 286.281 8.88335C129.345 21.5885 113.321 106.058 101.509 128.891C89.6977 151.724 65.8461 234.404 57.6149 241.582C51.0299 247.324 30.8739 242.056 21.619 238.703C23.374 243.635 33.497 255.917 59.9489 265.591C93.0137 277.683 189.094 149.372 229.196 128.891Z" fill="#FEF17D"/>
<path d="M642.751 361.096C631.499 359.058 613.343 389.971 605.672 405.682L598 549.631C600.557 551.754 607.717 556 615.9 556C626.129 556 642.751 503.771 652.979 470.65C663.208 437.529 656.815 363.644 642.751 361.096Z" fill="#F5EEE4"/>
<path d="M15.2494 360.097C26.501 358.048 44.657 389.119 52.3285 404.911L60 549.598C57.4428 551.732 50.2827 556 42.0998 556C31.8711 556 15.2494 503.503 5.02075 470.212C-5.20795 436.921 1.18499 362.657 15.2494 360.097Z" fill="#F5EEE4"/>
</svg>
