<svg width="372" height="386" viewBox="0 0 372 386" fill="none" xmlns="http://www.w3.org/2000/svg">
<path d="M187.331 147.78C157.309 147.78 132.972 174.842 132.972 208.225H241.69C241.69 174.842 217.352 147.78 187.331 147.78Z" fill="white"/>
<path d="M255.234 206.111L307.936 191.868L307.075 205.282L255.234 206.111Z" fill="white"/>
<path d="M247.153 182.6L332.729 140.935L341.367 166.116L247.153 182.6Z" fill="white"/>
<path d="M128.99 203.071L34.9492 186.04L32.7671 203.01L128.99 203.071Z" fill="white"/>
<path d="M235.483 163.85L252.573 132.559L270.165 152.874L235.483 163.85Z" fill="white"/>
<path d="M119.069 177.896L92.8728 153.359L82.598 178.001L119.069 177.896Z" fill="white"/>
<path d="M212.699 148.38L232.678 87.1782L256.465 100.255L212.699 148.38Z" fill="white"/>
<path d="M152.214 155.999L117.737 101.215L97.8624 119.438L152.214 155.999Z" fill="white"/>
<path d="M193.938 143.208L176.854 62.0867L204.166 61.0054L193.938 143.208Z" fill="white"/>
<path d="M172.093 145.061L147.678 35.6851L121.839 44.3437L172.093 145.061Z" fill="white"/>
</svg>
