<svg width="372" height="386" viewBox="0 0 372 386" fill="none" xmlns="http://www.w3.org/2000/svg">
<path d="M133.474 207.725C133.715 174.798 157.783 148.28 187.331 148.28C216.878 148.28 240.947 174.798 241.188 207.725H133.474Z" fill="white" stroke="#FF006B"/>
<path d="M306.606 204.789L259.236 205.547L307.393 192.532L306.606 204.789Z" fill="white" stroke="#FF006B"/>
<path d="M340.704 165.726L250.563 181.497L332.44 141.633L340.704 165.726Z" fill="white" stroke="#FF006B"/>
<path d="M33.3354 202.51L123.402 202.568L35.3779 186.626L33.3354 202.51Z" fill="white" stroke="#FF006B"/>
<path d="M269.293 152.631L236.522 163.002L252.671 133.434L269.293 152.631Z" fill="white" stroke="#FF006B"/>
<path d="M83.347 177.503L117.806 177.404L93.055 154.221L83.347 177.503Z" fill="white" stroke="#FF006B"/>
<path d="M255.671 100.389L213.9 146.32L232.969 87.9081L255.671 100.389Z" fill="white" stroke="#FF006B"/>
<path d="M98.6654 119.379L150.53 154.268L117.631 101.991L98.6654 119.379Z" fill="white" stroke="#FF006B"/>
<path d="M203.597 61.5283L193.811 140.179L177.465 62.5629L203.597 61.5283Z" fill="white" stroke="#FF006B"/>
<path d="M122.542 44.6354L170.713 141.177L147.31 36.3357L122.542 44.6354Z" fill="white" stroke="#FF006B"/>
</svg>
